<svg id="Layer_1" data-name="Layer 1" xmlns="http://www.w3.org/2000/svg" viewBox="0 0 50.632 41.8">
  <defs>
    <style>
      .cls-1 {
        fill: #808285;
      }
    </style>
  </defs>
  <title>80454faa-7f60-465d-838f-19d071587a76</title>
  <g>
    <path class="cls-1" d="M8.688,41.8a2.168,2.168,0,0,1-2.27-2.043V36.649a6.529,6.529,0,0,1,1.135-3.642,5.747,5.747,0,0,1,3.216-2.346l6.378-.961,0.056-.036c1.151-.744,1.248-2.456,1.249-4.294V25.246l-0.087-.089a11.207,11.207,0,0,1-3.122-7.864V16.9l-0.1-.092a6.866,6.866,0,0,1-2.3-5.13V7.666a5.262,5.262,0,0,1,4.625-5.222l0.214-.026,0.048-.209A2.875,2.875,0,0,1,20.5,0h10.43A6.871,6.871,0,0,1,37.8,6.863v4.814a6.865,6.865,0,0,1-2.3,5.13l-0.1.092v0.394a11.207,11.207,0,0,1-3.122,7.864l-0.086.089V25.37c0,1.838.1,3.55,1.249,4.294L33.485,29.7l6.324,0.949a5.769,5.769,0,0,1,3.271,2.358,6.533,6.533,0,0,1,1.134,3.642v3.108a2.168,2.168,0,0,1-2.27,2.043H8.688ZM11,31.524a5.358,5.358,0,0,0-3.694,5.125v3.108a1.282,1.282,0,0,0,1.379,1.151H41.944a1.282,1.282,0,0,0,1.379-1.151V36.649a5.354,5.354,0,0,0-3.654-5.117l-6-.9-0.064.277a8.343,8.343,0,0,1-8.293,6.087,8.343,8.343,0,0,1-8.293-6.087l-0.064-.277Zm8.315-4.9a4.895,4.895,0,0,1-1.361,3.593l-0.141.116,0.035,0.18a7.377,7.377,0,0,0,7.465,5.59,7.377,7.377,0,0,0,7.465-5.59l0.035-.18-0.141-.116a4.891,4.891,0,0,1-1.361-3.593l-0.029-.556-0.454.322a9.433,9.433,0,0,1-11.028,0l-0.454-.322ZM18.9,9.716a2.766,2.766,0,0,0-2.763,2.764v4.144a0.637,0.637,0,0,1,0,.11v0.56c0,5.505,4.119,9.984,9.181,9.984S34.5,22.8,34.5,17.293V11.677a0.446,0.446,0,0,1,.891,0v4.108l0.564-.872a5.946,5.946,0,0,0,.951-3.236V6.863A5.979,5.979,0,0,0,30.932.891H20.5a1.963,1.963,0,0,0-1.961,1.961A0.446,0.446,0,0,1,18.1,3.3a4.373,4.373,0,0,0-4.368,4.368v4.011a5.948,5.948,0,0,0,.952,3.236l0.564,0.872V12.48A3.659,3.659,0,0,1,18.9,8.825H32.536a0.446,0.446,0,0,1,0,.891H18.9Z"/>
    <path class="cls-1" d="M1.626,34.587A1.56,1.56,0,0,1,0,33.107V31.1a4.2,4.2,0,0,1,2.93-4.025l4.116-.621L7.107,26.4c0.61-.454.67-1.482,0.678-2.409V23.868L7.7,23.778a7.4,7.4,0,0,1-2.082-5.211V18.431l-0.1-.1a4.6,4.6,0,0,1-1.5-3.4v-2.6A3.549,3.549,0,0,1,6.978,8.827L7.163,8.8,7.22,8.617a2,2,0,0,1,1.909-1.4h0.944a0.446,0.446,0,1,1,0,.891H9.128A1.113,1.113,0,0,0,8.017,9.224a0.446,0.446,0,0,1-.446.446A2.671,2.671,0,0,0,4.9,12.338v2.6a3.722,3.722,0,0,0,.109.893l0.6-.074V15.358a2.525,2.525,0,0,1,2.522-2.522h1.935a0.446,0.446,0,1,1,0,.891H8.138a1.632,1.632,0,0,0-1.63,1.631v3.208a6.066,6.066,0,0,0,5.783,6.3,5.336,5.336,0,0,0,2.4-.566,0.446,0.446,0,0,1,.4.8,6.229,6.229,0,0,1-2.795.659,6.294,6.294,0,0,1-3.208-.888l-0.406-.241L8.622,25.1a2.588,2.588,0,0,1-1.182,2.151l-0.082.042-0.074.022-4.118.619A3.312,3.312,0,0,0,.891,31.1v2.011a0.683,0.683,0,0,0,.735.588H4.457a0.446,0.446,0,0,1,0,.891H1.626Z"/>
    <path class="cls-1" d="M46.175,34.587a0.446,0.446,0,0,1,0-.891h2.831a0.683,0.683,0,0,0,.735-0.588V31.1a3.307,3.307,0,0,0-2.232-3.153l-4.136-.624L43.286,27.3l-0.069-.032-0.025-.015A2.588,2.588,0,0,1,42.01,25.1l-0.055-.468-0.406.241a6.247,6.247,0,0,1-6,.229,0.446,0.446,0,0,1,.2-0.845,0.441,0.441,0,0,1,.2.047,5.332,5.332,0,0,0,2.4.566,6.067,6.067,0,0,0,5.783-6.3V15.358a1.632,1.632,0,0,0-1.63-1.631H40.559a0.446,0.446,0,1,1,0-.891h1.935a2.525,2.525,0,0,1,2.522,2.522v0.394l0.6,0.073a3.755,3.755,0,0,0,.109-0.892V10.875a2.767,2.767,0,0,0-2.763-2.763H40.559a0.446,0.446,0,1,1,0-.891h2.407a3.659,3.659,0,0,1,3.655,3.655v4.057a4.6,4.6,0,0,1-1.5,3.4l-0.1.091V18.56a7.4,7.4,0,0,1-2.082,5.218l-0.088.09v0.126c0.008,0.928.067,1.955,0.678,2.409l0.061,0.046,4.062,0.609A4.208,4.208,0,0,1,50.632,31.1v2.011a1.56,1.56,0,0,1-1.626,1.48H46.175Z"/>
  </g>
</svg>
