<svg id="Layer_1" data-name="Layer 1" xmlns="http://www.w3.org/2000/svg" xmlns:xlink="http://www.w3.org/1999/xlink" viewBox="0 0 81 81">
  <defs>
    <style>
      .cls-1 {
        fill: url(#linear-gradient);
      }

      .cls-2 {
        fill: url(#linear-gradient-2);
      }

      .cls-3 {
        fill: none;
        stroke-miterlimit: 10;
        stroke: url(#linear-gradient-3);
      }
    </style>
    <linearGradient id="linear-gradient" x1="47.104" y1="-3.536" x2="49.104" y2="73.464" gradientUnits="userSpaceOnUse">
      <stop offset="0" stop-color="#fff100"/>
      <stop offset="1" stop-color="#68bc45"/>
    </linearGradient>
    <linearGradient id="linear-gradient-2" x1="39.147" y1="-3.33" x2="41.147" y2="73.67" xlink:href="#linear-gradient"/>
    <linearGradient id="linear-gradient-3" x1="0" y1="40.5" x2="81" y2="40.5" xlink:href="#linear-gradient"/>
  </defs>
  <title>a323538d-6385-4151-9e72-b309aea7bdd7</title>
  <g>
    <path class="cls-1" d="M47.86,30.306A4.736,4.736,0,1,1,52.6,25.571,4.741,4.741,0,0,1,47.86,30.306Zm0-8.856a4.12,4.12,0,1,0,4.121,4.121A4.125,4.125,0,0,0,47.86,21.45Z"/>
    <path class="cls-2" d="M62.785,62.287a0.3,0.3,0,0,1-.087-0.013L48.13,57.952l-0.145.064a0.309,0.309,0,0,1-.125.026,0.316,0.316,0,0,1-.125-0.026l-0.145-.064L33.056,62.264H33.049L33,62.28a0.514,0.514,0,0,1-.068.007l-0.05-.005-0.033-.01L32.8,62.261,17.925,57.846a0.306,0.306,0,0,1-.22-0.3V27.7a0.311,0.311,0,0,1,.124-0.247,0.306,0.306,0,0,1,.183-0.06,0.3,0.3,0,0,1,.088.013l14.836,4.4L40.2,29.654l-0.18-.44a9.837,9.837,0,0,1-.835-3.644,8.672,8.672,0,1,1,17.343,0,9.835,9.835,0,0,1-.835,3.644l-0.18.44,7.355,2.183a0.309,0.309,0,0,1,.22.295V61.979A0.308,0.308,0,0,1,62.785,62.287ZM18.32,57.321l14.309,4.245V47.285L26.8,45.556a0.307,0.307,0,0,1-.208-0.382,0.307,0.307,0,0,1,.382-0.208l5.653,1.677V32.361L18.32,28.116V42.4l5.827,1.729a0.308,0.308,0,0,1-.087.6,0.3,0.3,0,0,1-.086-0.013L18.32,43.039V57.321ZM47.86,51.35a0.308,0.308,0,0,1,.308.308v5.664l14.309,4.245V47.285L48.168,43.039v5.666a0.308,0.308,0,1,1-.615,0V43.039L33.243,47.285V61.567l14.309-4.245V51.657A0.308,0.308,0,0,1,47.86,51.35Zm7.23-20.811a41.991,41.991,0,0,1-6.8,9.138l-0.122.125v2.6l14.309,4.246V32.361l-7.225-2.144ZM33.243,32.361V46.643L47.553,42.4V39.8l-0.122-.125a41.979,41.979,0,0,1-6.8-9.138l-0.162-.321ZM47.86,17.514A8.066,8.066,0,0,0,39.8,25.571a9.969,9.969,0,0,0,1.061,4.059l0.012,0.026,0.016,0.025a0.306,0.306,0,0,1,.033.071l0.009,0.029,0.013,0.028a40.4,40.4,0,0,0,6.6,9.1l0.314,0.333,0.314-.334a40.426,40.426,0,0,0,6.6-9.1l0.019-.047a0.3,0.3,0,0,1,.03-0.066l0.016-.025,0.012-.026a10,10,0,0,0,1.064-4.066A8.066,8.066,0,0,0,47.86,17.514Z"/>
  </g>
  <circle class="cls-3" cx="40.5" cy="40.5" r="40"/>
</svg>
