<svg id="Layer_1" data-name="Layer 1" xmlns="http://www.w3.org/2000/svg" xmlns:xlink="http://www.w3.org/1999/xlink" viewBox="0 0 77.158 70.734">
  <defs>
    <style>
      .cls-1 {
        fill: url(#linear-gradient);
      }

      .cls-2 {
        fill: url(#linear-gradient-2);
      }

      .cls-3 {
        fill: url(#linear-gradient-3);
      }
    </style>
    <linearGradient id="linear-gradient" x1="33.309" y1="-39.055" x2="39.329" y2="72.313" gradientTransform="translate(-0.761 1.528) rotate(-1.724)" gradientUnits="userSpaceOnUse">
      <stop offset="0" stop-color="#fff100"/>
      <stop offset="1" stop-color="#68bc45"/>
    </linearGradient>
    <linearGradient id="linear-gradient-2" x1="27.74" y1="-38.754" x2="33.76" y2="72.614" xlink:href="#linear-gradient"/>
    <linearGradient id="linear-gradient-3" x1="27.006" y1="-38.714" x2="33.026" y2="72.654" xlink:href="#linear-gradient"/>
  </defs>
  <title>e2c4d076-6a5b-4fde-8751-c91f7c496c99</title>
  <g>
    <path class="cls-1" d="M76.212,25.205a4.289,4.289,0,0,0-3.34-1.609l-4.285,0A4.284,4.284,0,0,0,64.3,19.308l-4.286,0,0-4.286a4.284,4.284,0,0,0-4.284-4.287H53.592l0-8.571A2.146,2.146,0,0,0,51.454.017L8.6,0A2.141,2.141,0,0,0,6.454,2.142l0,8.571H4.308A4.284,4.284,0,0,0,.021,15L0,66.423A4.284,4.284,0,0,0,4.284,70.71l60,0.024a4.288,4.288,0,0,0,4.186-3.354l8.587-38.567A4.272,4.272,0,0,0,76.212,25.205ZM6.428,66.425H4.286L4.306,15H6.449ZM51.446,19.3a4.284,4.284,0,0,0-4.287,4.284l-25.713-.01a4.287,4.287,0,0,0-4.186,3.354s-8.688,39.186-8.688,39.5L8.6,2.143,51.453,2.16Zm4.286,0H53.588l0-4.286h2.143Z" transform="translate(0 0)"/>
    <path class="cls-2" d="M17.023,11.647l25.57,0.01a2.143,2.143,0,0,0,0-4.285l-25.57-.01A2.143,2.143,0,1,0,17.023,11.647Z" transform="translate(0 0)"/>
    <path class="cls-3" d="M17.019,20.36l25.57,0.01a2.143,2.143,0,0,0,0-4.286l-25.57-.01A2.143,2.143,0,0,0,17.019,20.36Z" transform="translate(0 0)"/>
  </g>
</svg>
