<svg id="Layer_1" data-name="Layer 1" xmlns="http://www.w3.org/2000/svg" xmlns:xlink="http://www.w3.org/1999/xlink" viewBox="0 0 511.48 167.312">
  <defs>
    <style>
      .cls-1 {
        fill: none;
      }

      .cls-2 {
        clip-path: url(#clip-path);
      }

      .cls-3 {
        fill: url(#linear-gradient);
      }

      .cls-4 {
        fill: url(#linear-gradient-2);
      }

      .cls-5 {
        fill: url(#linear-gradient-3);
      }

      .cls-6 {
        fill: url(#linear-gradient-4);
      }

      .cls-7 {
        fill: #f9f9f9;
      }

      .cls-8 {
        fill: #fbfbfb;
      }
    </style>
    <clipPath id="clip-path">
      <path class="cls-1" d="M110.844,73.647L87.781,60.331,43.3,34.645c-2.47-1.426-4.931-.562-4.931,2.418v104.65c0,2.234,1.759,3.2,3.9,1.959s45.512-26.279,45.512-26.279l23.062-13.314,22.169-12.8c2.6-1.5,2.351-3.563.156-4.745S110.844,73.647,110.844,73.647Z"/>
    </clipPath>
    <linearGradient id="linear-gradient" x1="66.932" y1="32.211" x2="66.932" y2="145.514" gradientUnits="userSpaceOnUse">
      <stop offset="0" stop-color="#316199"/>
      <stop offset="0.278" stop-color="#4d839d"/>
      <stop offset="0.764" stop-color="#7abaa3"/>
      <stop offset="1" stop-color="#8bd0a5"/>
    </linearGradient>
    <linearGradient id="linear-gradient-2" x1="38.365" y1="60.331" x2="110.844" y2="60.331" gradientUnits="userSpaceOnUse">
      <stop offset="0" stop-color="#5dbc91"/>
      <stop offset="1" stop-color="#daef7e"/>
    </linearGradient>
    <linearGradient id="linear-gradient-3" x1="74.604" y1="88.863" x2="74.604" y2="145.926" gradientUnits="userSpaceOnUse">
      <stop offset="0" stop-color="#f91b1c"/>
      <stop offset="0.358" stop-color="#c71e49"/>
      <stop offset="0.79" stop-color="#90227a"/>
      <stop offset="1" stop-color="#7a238d"/>
    </linearGradient>
    <linearGradient id="linear-gradient-4" x1="116.349" y1="73.647" x2="116.349" y2="104.078" gradientUnits="userSpaceOnUse">
      <stop offset="0" stop-color="#fa6c61"/>
      <stop offset="0.113" stop-color="#fb775f"/>
      <stop offset="0.711" stop-color="#fdae58"/>
      <stop offset="1" stop-color="#fec455"/>
    </linearGradient>
  </defs>
  <title>a9b97eef-f599-4121-b7a9-119f8568eb78</title>
  <g>
    <path d="M511.48,144.7a22.61,22.61,0,0,1-22.605,22.612H22.61A22.614,22.614,0,0,1,0,144.7V22.61A22.613,22.613,0,0,1,22.61,0H488.874A22.609,22.609,0,0,1,511.48,22.61V144.7Z"/>
    <g id="PLAY">
      <g class="cls-2">
        <polygon class="cls-3" points="38.365 32.211 38.365 88.862 38.365 145.514 95.498 88.863 38.365 32.211"/>
        <polygon class="cls-4" points="110.844 73.647 87.781 60.331 38.365 31.799 38.365 32.211 95.498 88.863 110.844 73.647"/>
        <polygon class="cls-5" points="38.365 145.514 38.365 145.926 87.781 117.393 110.843 104.078 95.498 88.863 38.365 145.514"/>
        <polygon class="cls-6" points="110.844 73.647 95.498 88.863 110.843 104.078 137.2 88.862 110.844 73.647"/>
      </g>
    </g>
    <g>
      <path class="cls-7" d="M398.058,111.011a14.259,14.259,0,0,1-5.877-1.187,11.072,11.072,0,0,1-4.466-3.652h-0.36a44.228,44.228,0,0,1,.36,5.471V125.2h-4.988V77.459h4.058l0.69,4.51h0.24a11.6,11.6,0,0,1,4.481-3.908,13.614,13.614,0,0,1,5.861-1.2q6.555,0,10.117,4.48T411.739,93.9q0,8.118-3.621,12.614A12.207,12.207,0,0,1,398.058,111.011ZM397.336,81.1q-5.051,0-7.3,2.8t-2.316,8.9V93.9q0,6.946,2.316,9.938t7.425,2.99a7.725,7.725,0,0,0,6.692-3.456q2.418-3.456,2.419-9.532,0-6.161-2.419-9.455A7.965,7.965,0,0,0,397.336,81.1Z"/>
      <path class="cls-7" d="M423.293,110.409H418.3V63.629h4.99v46.78Z"/>
      <path class="cls-7" d="M451.986,110.409l-0.993-4.69h-0.24a13.824,13.824,0,0,1-4.916,4.194,14.948,14.948,0,0,1-6.117,1.1q-4.9,0-7.682-2.525a9.207,9.207,0,0,1-2.781-7.185q0-9.98,15.964-10.463l5.594-.181V88.613q0-3.879-1.67-5.727t-5.336-1.85a21.735,21.735,0,0,0-9.32,2.525l-1.534-3.818a23.46,23.46,0,0,1,5.338-2.074,23.109,23.109,0,0,1,5.817-.752q5.892,0,8.734,2.615t2.84,8.389v22.487h-3.7Zm-11.273-3.517a10.135,10.135,0,0,0,7.32-2.555,9.46,9.46,0,0,0,2.661-7.157V94.205l-4.993.209q-5.952.214-8.583,1.852a5.576,5.576,0,0,0-2.63,5.1,5.133,5.133,0,0,0,1.639,4.117A6.794,6.794,0,0,0,440.712,106.893Z"/>
      <path class="cls-7" d="M458.58,77.459h5.35l7.216,18.791a71.774,71.774,0,0,1,2.948,9.291h0.24q0.391-1.537,1.638-5.249t8.162-22.833h5.354l-14.162,37.52q-2.1,5.562-4.917,7.894a10.455,10.455,0,0,1-6.9,2.327,20.142,20.142,0,0,1-4.512-.51v-4a17.419,17.419,0,0,0,3.7.361q5.142,0,7.336-5.773l1.833-4.69Z"/>
    </g>
    <g>
      <path class="cls-7" d="M305.609,80.521a11.619,11.619,0,0,1,4.892,9.306c0,5.1-2.894,7.514-5.79,9.785-0.9.895-1.93,1.863-1.93,3.381a3.781,3.781,0,0,0,1.794,2.962l2.482,1.926c3.032,2.551,5.786,4.9,5.786,9.653,0,6.478-6.272,13.024-18.124,13.024-10,0-14.817-4.754-14.817-9.857,0-2.48,1.235-5.993,5.307-8.408,4.269-2.619,10.063-2.96,13.163-3.172-0.968-1.239-2.068-2.549-2.068-4.682a6.222,6.222,0,0,1,.689-2.691c-0.761.07-1.517,0.139-2.208,0.139-7.3,0-11.438-5.445-11.438-10.818a12.4,12.4,0,0,1,4.409-9.235c3.93-3.239,8.616-3.792,12.341-3.792H314.29l-4.411,2.481h-4.27Zm-4.894,30.6a10.653,10.653,0,0,0-1.583-.072,27.546,27.546,0,0,0-7.238,1.108c-1.516.547-5.928,2.2-5.928,7.1s4.758,8.411,12.133,8.411c6.612,0,10.131-3.177,10.131-7.446C308.229,116.7,305.954,114.846,300.714,111.123Zm2-13.1a6.97,6.97,0,0,0,1.719-5.032c0-4.961-2.962-12.68-8.681-12.68a6.436,6.436,0,0,0-4.825,2.275,7.962,7.962,0,0,0-1.518,5.1c0,4.617,2.688,12.268,8.618,12.268A7.058,7.058,0,0,0,302.714,98.026Z"/>
      <path class="cls-7" d="M262.22,110.02a16.237,16.237,0,0,1-16.788-16.241c0-9.015,7.361-16.718,17.824-16.718A16.086,16.086,0,0,1,279.7,93.3C279.7,101.415,273.439,110.02,262.22,110.02Zm8.6-5.572a12.446,12.446,0,0,0,2.067-7.641c0-6.057-2.89-17.615-11.423-17.615a9.585,9.585,0,0,0-6.191,2.344c-2.684,2.405-3.168,5.434-3.168,8.4,0,6.807,3.372,18.019,11.7,18.019A8.791,8.791,0,0,0,270.82,104.447Z"/>
      <path class="cls-7" d="M224.925,110.02a16.238,16.238,0,0,1-16.79-16.241c0-9.015,7.364-16.718,17.824-16.718A16.086,16.086,0,0,1,242.4,93.3C242.4,101.415,236.142,110.02,224.925,110.02Zm8.6-5.572a12.464,12.464,0,0,0,2.065-7.641c0-6.057-2.892-17.615-11.425-17.615a9.585,9.585,0,0,0-6.191,2.344c-2.684,2.405-3.165,5.434-3.165,8.4,0,6.807,3.37,18.019,11.7,18.019A8.8,8.8,0,0,0,233.527,104.447Z"/>
      <path class="cls-7" d="M202.878,108.941l-9.894,2.283a73.313,73.313,0,0,1-11.413,1.173c-19.1,0-26.357-14.044-26.357-25.044,0-13.419,10.306-25.868,27.949-25.868a39.847,39.847,0,0,1,10.582,1.452,26.991,26.991,0,0,1,9.132,4.289l-5.744,5.465-2.42.551,1.73-2.768c-2.351-2.281-6.644-6.5-14.8-6.5-10.931,0-19.165,8.3-19.165,20.41,0,13,9.41,25.247,24.488,25.247a20.6,20.6,0,0,0,8.787-1.73V96.766l-10.444.553,5.532-2.978h14.667l-1.8,1.729a1.618,1.618,0,0,0-.693,1.105c-0.072.624-.137,2.632-0.137,3.323v8.443Z"/>
      <path class="cls-7" d="M327.474,106.949c-2.284-.208-2.762-0.621-2.762-3.322V64.473c0.014-.149.023-0.3,0.037-0.446,0.279-2.42.97-2.835,3.117-4.082h-9.9l-5.19,2.491h5.289v0.031l0-.025V105.15c0,1.381-.273,1.591-1.866,3.664h12.246L331,107.3C329.829,107.154,328.652,107.087,327.474,106.949Z"/>
      <path class="cls-7" d="M355.623,107.585c-0.753.413-1.509,0.9-2.262,1.237a16.008,16.008,0,0,1-6.671,1.306,14.679,14.679,0,0,1-9.138-2.681c-4.874-3.437-7-9.346-7-14.5,0-10.647,8.656-15.868,15.732-15.868a13.355,13.355,0,0,1,7.08,1.925,11.371,11.371,0,0,1,4.8,6.8l-16.141,6.529-5.291.412c1.715,8.725,7.623,13.8,14.152,13.8a17.752,17.752,0,0,0,8.381-2.4Zm-6.455-20.476c1.3-.48,1.99-0.893,1.99-1.854,0-2.746-3.09-5.908-6.8-5.908-2.751,0-7.9,2.131-7.9,9.549,0,1.168.138,2.4,0.209,3.644Z"/>
      <g>
        <path class="cls-7" d="M362.255,77.552v4.533H361.7V77.552h-1.5v-0.47h3.55v0.47h-1.5Z"/>
        <path class="cls-7" d="M368.435,82.085V77.51H368.41l-1.4,4.575h-0.431l-1.408-4.575h-0.018v4.575h-0.5v-5h0.857l1.274,4.044h0.018l1.255-4.044h0.869v5h-0.5Z"/>
      </g>
    </g>
    <g>
      <path class="cls-8" d="M168.954,48.015h-3.437A22.754,22.754,0,0,0,164.539,44h-4.963a20.73,20.73,0,0,0-1.01,4.018h-3.233q0-.419,2.508-6.875a53.962,53.962,0,0,0,2.508-7.111h4.06a59.218,59.218,0,0,0,2.272,7.009A61.479,61.479,0,0,1,168.954,48.015Zm-4.963-6.069a60.559,60.559,0,0,1-1.837-5.994h-0.172q0,0.419-1.9,5.994h3.91Z"/>
      <path class="cls-8" d="M182.806,48.015h-2.653q0-.441-2.954-4.651-3.094-4.437-3.523-6.069H173.5a37.907,37.907,0,0,1,.268,4.254q0,2.653.15,6.467h-2.642q0.161-3.33.161-7.315,0-3.921-.161-6.671h3.19q0,0.57,2.653,4.544a26.741,26.741,0,0,1,3.244,5.726h0.161a40.554,40.554,0,0,1-.258-4.3q0-2.911-.15-5.973h2.685q-0.151,2.665-.15,6.671Q182.655,44.738,182.806,48.015Z"/>
      <path class="cls-8" d="M198.375,40.538a7.926,7.926,0,0,1-1.955,5.328,6.831,6.831,0,0,1-5.479,2.277q-1.59,0-4.383-.129,0.139-3.245.14-7.315,0-3.91-.14-6.671h1.88q0.461,0,1.375-.032t1.192-.032q3.877,0,5.623,1.934A6.686,6.686,0,0,1,198.375,40.538ZM195.443,41a5.179,5.179,0,0,0-1.2-3.476,4.562,4.562,0,0,0-3.674-1.412,11.3,11.3,0,0,0-1.268.1q0.107,2.149.107,4.49,0,2.568.107,5.092a7.125,7.125,0,0,0,1.4.14,4.058,4.058,0,0,0,3.421-1.435A5.533,5.533,0,0,0,195.443,41Z"/>
      <path class="cls-8" d="M212.732,48.015h-3.18a21.13,21.13,0,0,0-1.912-4.694,2.506,2.506,0,0,0-2.148-.892q-0.623,0-1.192.011,0,2.761.1,5.575H201.41q0.139-3.245.14-7.315,0-3.91-.14-6.671h1.858q0.322,0,1.348-.032t1.9-.032q4.931,0,4.931,3.373a3.783,3.783,0,0,1-2.814,3.728v0.161a3.355,3.355,0,0,1,1.9,1.691A37.349,37.349,0,0,1,212.732,48.015ZM208.7,38.132q0-2.137-2.75-2.138a9.389,9.389,0,0,0-1.783.15q0.118,1.665.118,4.34,0.59,0.022,1,.021Q208.7,40.506,208.7,38.132Z"/>
      <path class="cls-8" d="M228.13,40.764a7.714,7.714,0,0,1-2.019,5.468,6.553,6.553,0,0,1-5,2.17,6.312,6.312,0,0,1-4.748-1.993,7.016,7.016,0,0,1-1.912-5.064,7.711,7.711,0,0,1,2.02-5.468,6.551,6.551,0,0,1,5-2.17,6.321,6.321,0,0,1,4.748,1.987A7.015,7.015,0,0,1,228.13,40.764Zm-2.965.311a5.545,5.545,0,0,0-1.149-3.642,3.54,3.54,0,0,0-2.836-1.4,3.275,3.275,0,0,0-2.664,1.407A5.614,5.614,0,0,0,217.42,41a5.531,5.531,0,0,0,1.155,3.636,3.538,3.538,0,0,0,2.831,1.4,3.272,3.272,0,0,0,2.664-1.413A5.618,5.618,0,0,0,225.165,41.075Z"/>
      <path class="cls-8" d="M234.2,48.015h-3.04q0.139-3.33.14-7.315,0-3.921-.14-6.671h3.04q-0.14,2.707-.14,6.671Q234.064,44.749,234.2,48.015Z"/>
      <path class="cls-8" d="M249.774,40.538a7.926,7.926,0,0,1-1.955,5.328,6.831,6.831,0,0,1-5.478,2.277q-1.59,0-4.383-.129,0.139-3.245.14-7.315,0-3.91-.14-6.671h1.88q0.462,0,1.375-.032t1.192-.032q3.877,0,5.624,1.934A6.687,6.687,0,0,1,249.774,40.538ZM246.842,41a5.179,5.179,0,0,0-1.2-3.476,4.562,4.562,0,0,0-3.674-1.412,11.3,11.3,0,0,0-1.268.1q0.107,2.149.107,4.49,0,2.568.107,5.092a7.124,7.124,0,0,0,1.4.14A4.058,4.058,0,0,0,245.73,44.5,5.533,5.533,0,0,0,246.842,41Z"/>
      <path class="cls-8" d="M270.43,48.015h-3.437A22.7,22.7,0,0,0,266.014,44h-4.963a20.771,20.771,0,0,0-1.01,4.018h-3.233q0-.419,2.508-6.875a53.9,53.9,0,0,0,2.508-7.111h4.06a59.283,59.283,0,0,0,2.273,7.009A61.539,61.539,0,0,1,270.43,48.015Zm-4.963-6.069a60.755,60.755,0,0,1-1.838-5.994h-0.172q0,0.419-1.9,5.994h3.91Z"/>
      <path class="cls-8" d="M282.96,37.691a4.187,4.187,0,0,1-1.907,3.792,8.479,8.479,0,0,1-4.678,1.225c-0.337,0-.576-0.007-0.72-0.022q0,2.02.118,5.328h-3.019q0.139-3.1.14-7.315,0-3.867-.14-6.671h1.869q0.4,0,1.525-.032t1.955-.032a6.147,6.147,0,0,1,3.448.924A3.125,3.125,0,0,1,282.96,37.691Zm-2.771.591q0-2.3-3.051-2.3a8.637,8.637,0,0,0-1.611.161q0.119,2.03.118,4.6c0.179,0.015.387,0.021,0.623,0.021Q280.189,40.764,280.189,38.282Z"/>
      <path class="cls-8" d="M295.844,37.691a4.188,4.188,0,0,1-1.906,3.792,8.484,8.484,0,0,1-4.679,1.225c-0.337,0-.576-0.007-0.72-0.022q0,2.02.118,5.328h-3.019q0.139-3.1.14-7.315,0-3.867-.14-6.671h1.869q0.4,0,1.525-.032t1.955-.032a6.147,6.147,0,0,1,3.448.924A3.125,3.125,0,0,1,295.844,37.691Zm-2.771.591q0-2.3-3.051-2.3a8.637,8.637,0,0,0-1.611.161q0.119,2.03.118,4.6c0.179,0.015.387,0.021,0.623,0.021Q293.073,40.764,293.073,38.282Z"/>
      <path class="cls-8" d="M316.909,40.764a7.711,7.711,0,0,1-2.019,5.468,6.553,6.553,0,0,1-5,2.17,6.312,6.312,0,0,1-4.748-1.993,7.018,7.018,0,0,1-1.912-5.064,7.711,7.711,0,0,1,2.02-5.468,6.553,6.553,0,0,1,5-2.17A6.321,6.321,0,0,1,315,35.693,7.014,7.014,0,0,1,316.909,40.764Zm-2.965.311a5.542,5.542,0,0,0-1.149-3.642,3.54,3.54,0,0,0-2.836-1.4,3.276,3.276,0,0,0-2.664,1.407A5.614,5.614,0,0,0,306.2,41a5.529,5.529,0,0,0,1.155,3.636,3.537,3.537,0,0,0,2.83,1.4,3.272,3.272,0,0,0,2.664-1.413A5.618,5.618,0,0,0,313.944,41.075Z"/>
      <path class="cls-8" d="M331.469,48.015h-2.653q0-.441-2.954-4.651-3.094-4.437-3.523-6.069h-0.172a37.907,37.907,0,0,1,.269,4.254q0,2.653.15,6.467h-2.643q0.161-3.33.161-7.315,0-3.921-.161-6.671h3.19q0,0.57,2.653,4.544a26.719,26.719,0,0,1,3.244,5.726h0.161a40.581,40.581,0,0,1-.258-4.3q0-2.911-.15-5.973h2.686q-0.151,2.665-.15,6.671Q331.319,44.738,331.469,48.015Z"/>
    </g>
  </g>
</svg>
