<svg id="Layer_1" data-name="Layer 1" xmlns="http://www.w3.org/2000/svg" viewBox="0 0 231.603 467.1">
  <defs>
    <style>
      .cls-1 {
        fill: #404040;
      }
    </style>
  </defs>
  <title>42c5538c-3347-4b60-a1b7-031b9ba43cfe</title>
  <g>
    <g>
      <path class="cls-1" d="M116.809,16.6a2.92,2.92,0,1,1,2.92-2.921A2.924,2.924,0,0,1,116.809,16.6Zm0-5.027a2.107,2.107,0,1,0,2.107,2.106A2.109,2.109,0,0,0,116.809,11.57Z"/>
      <path class="cls-1" d="M80.175,33.139a4,4,0,1,1,4-4A4,4,0,0,1,80.175,33.139Zm0-7.179a3.183,3.183,0,1,0,3.184,3.183A3.188,3.188,0,0,0,80.175,25.961Z"/>
      <path class="cls-1" d="M133.264,30.787H99.582a2.111,2.111,0,0,1,0-4.223h33.682A2.111,2.111,0,1,1,133.264,30.787ZM99.582,27.378a1.3,1.3,0,0,0,0,2.6h33.682a1.3,1.3,0,1,0,0-2.6H99.582Z"/>
    </g>
    <g>
      <path class="cls-1" d="M116.486,452.02a15.582,15.582,0,1,1,15.581-15.581A15.6,15.6,0,0,1,116.486,452.02Zm0-30.35a14.768,14.768,0,1,0,14.768,14.769A14.785,14.785,0,0,0,116.486,421.67Z"/>
      <path class="cls-1" d="M116.486,455.081a18.645,18.645,0,1,1,18.645-18.642A18.665,18.665,0,0,1,116.486,455.081Zm0-36.475a17.831,17.831,0,1,0,17.831,17.833A17.853,17.853,0,0,0,116.486,418.605Z"/>
    </g>
    <g>
      <path class="cls-1" d="M3.275,77.358H0.407v-19.1H3.275v19.1Zm-2.054-.814h1.24V59.068H1.221V76.544Z"/>
      <path class="cls-1" d="M3.275,133.988H0.407V98.118H3.275v35.87Zm-2.054-.814h1.24V98.932H1.221v34.242Z"/>
      <path class="cls-1" d="M3.275,176.946H0.407V140.967H3.275v35.979Zm-2.054-.814h1.24V141.78H1.221v34.352Z"/>
    </g>
    <path class="cls-1" d="M194.146,461.578H38.348a31.132,31.132,0,0,1-31.1-31.1V36.618a31.132,31.132,0,0,1,31.1-31.1h155.8a31.132,31.132,0,0,1,31.1,31.1V430.48A31.132,31.132,0,0,1,194.146,461.578ZM38.348,6.335A30.318,30.318,0,0,0,8.065,36.618V430.48a30.318,30.318,0,0,0,30.284,30.283h155.8a30.318,30.318,0,0,0,30.284-30.283V36.618A30.318,30.318,0,0,0,194.146,6.335H38.348Z"/>
    <path class="cls-1" d="M200.1,467.1H33.574a31.54,31.54,0,0,1-31.5-31.5V177.353H0V140.56H2.07v-6.165H0V97.711H2.07V77.765H0V57.848H2.07V31.5A31.54,31.54,0,0,1,33.574,0H200.1a31.54,31.54,0,0,1,31.5,31.5V435.6A31.54,31.54,0,0,1,200.1,467.1ZM1.627,175.725H3.7V435.6a29.91,29.91,0,0,0,29.877,29.877H200.1A29.91,29.91,0,0,0,229.975,435.6V31.5A29.91,29.91,0,0,0,200.1,1.627H33.574A29.91,29.91,0,0,0,3.7,31.5V59.475H1.627V76.137H3.7v23.2H1.627v33.429H3.7v9.42H1.627v33.538Z"/>
    <path class="cls-1" d="M16.954,56.246v352.9h198.6V56.246H16.954Zm197.784,352.09H17.767V57.059h196.97V408.335Z"/>
  </g>
</svg>
