<?xml version="1.0" standalone="no"?>
<!DOCTYPE svg PUBLIC "-//W3C//DTD SVG 1.1//EN" "http://www.w3.org/Graphics/SVG/1.1/DTD/svg11.dtd">
<svg xmlns="http://www.w3.org/2000/svg">
<metadata>Generated by Fontastic.me</metadata>
<defs>
<font id="icon-megapack-webfont" horiz-adv-x="512">
<font-face font-family="icon-megapack-webfont" units-per-em="512" ascent="480" descent="-32"/>
<missing-glyph horiz-adv-x="512" />

<glyph unicode="&#57344;" d="M388 484c0 16-12 28-28 28l-208 0c-16 0-28-12-28-28l0-456c0-16 12-28 28-28l208 0c16 0 28 12 28 28z m-132 4c3 0 6-3 6-6 0-3-3-6-6-6-3 0-6 3-6 6 0 3 3 6 6 6z m-24-25c0 2 1 6 3 6l43 0c3 0 2-4 2-6l0 0c0-1 1-3-2-3l-43 0c-2 0-3 2-3 3z m25-443c-13 0-24 11-24 24 0 13 11 24 24 24 13 0 24-11 24-24 0-13-11-24-24-24z m-116 423l229 0 0-356-229 0z"/>
<glyph unicode="&#57345;" d="M401 512l-290 0c-14 0-26-12-26-26l0-460c0-14 12-26 26-26l290 0c14 0 26 12 26 26l0 460c0 14-12 26-26 26z m-145-20c3 0 5-2 5-5 0-3-2-5-5-5-3 0-5 2-5 5 0 3 2 5 5 5z m-1-472c-12 0-21 9-21 20 0 12 9 21 21 21 11 0 20-9 20-21 0-11-9-20-20-20z m-152 444l302 0 0-379-302 0z"/>
<glyph unicode="&#57346;" d="M431 512l-350 0c-13 0-23-10-23-23l0-466c0-13 10-23 23-23l350 0c13 0 23 10 23 23l0 466c0 13-10 23-23 23z m-174-18c2 0 4-2 4-5 0-2-2-4-4-4-3 0-5 2-5 4 0 3 2 5 5 5z m0-476c-10 0-18 8-18 18 0 10 8 18 18 18 10 0 18-8 18-18 0-10-8-18-18-18z m-160 452l319 0 0-396-319 0z"/>
<glyph unicode="&#57347;" d="M77 149l359 0c9 0 16 8 16 17l0 210c0 9-7 15-16 15l-359 0c-9 0-16-6-16-15l0-210c0-9 7-17 16-17z m181 235c1 0 2-1 2-2 0-1-1-2-2-2-1 0-2 1-2 2 0 1 1 2 2 2z m-181-9l358 0 0-210-358 0z m223-231l0-1c0-5-3-8-8-8l-71 0c-4 0-7 3-7 8l0 1-214 0 0-7c0-9 6-16 15-16l482 0c9 0 15 7 15 16l0 7-212 0"/>
<glyph unicode="&#57348;" d="M485 463l-458 0c-15 0-27-10-27-25l0-285c0-14 12-28 27-28l458 0c15 0 27 14 27 28l0 285c0 15-12 25-27 25z m-228-8c1 0 2-1 2-2 0-1-1-3-2-3-2 0-3 2-3 3 0 1 1 2 3 2z m-230-19l459 0 0-242-459 0z m274-321l-86 0c-7-24-20-48-55-60l0-7 192 0 0 9 1 0c-34 10-45 34-52 58"/>
<glyph unicode="&#57349;" d="M394 492c0 8-6 14-13 15-83 7-167 7-250 0-7-1-13-7-13-15-5-157-5-315 0-472 0-8 6-14 13-15 83-7 167-7 250 0 7 1 13 7 13 15 5 157 5 315 0 472z m-67-3c3 0 6-3 6-6 0-3-3-6-6-6-4 0-6 3-6 6 0 3 2 6 6 6z m-108-5l74 0 0-6-74 0z m-53-414l39 0 0-8-39 0z m110-26c0-5-5-10-11-10l-18 0c-6 0-10 5-10 10l0 19c0 5 4 10 10 10l18 0c6 0 11-5 11-10z m32 26l39 0 0-8-39 0z m-169 388l236 0 0-359-236 0z m126-391l-18 0c-3 0-5-2-5-5l0-19c0-3 2-5 5-5l18 0c3 0 6 2 6 5l0 19c0 3-3 5-6 5"/>
<glyph unicode="&#57350;" d="M0 131l512 0 0 304-512 0z m36 267l439 0 0-231-439 0z m277-281l-110 0 0-18-72 0 0-22 254 0 0 22-72 0 0 18"/>
<glyph unicode="&#57351;" d="M464 345l-141 0c-4 10-17 18-36 23l106 131c3 3 2 8-2 11-3 3-8 2-11-1l-108-134c-1-1-1-3-2-4-4 0-9 0-14 0-3 0-6 0-9 0l-90 115c-3 3-8 4-11 1-4-3-4-8-2-11l84-107c-20-5-35-13-40-24l-140 0c-25 0-45-20-45-45l0-255c0-25 20-45 45-45l416 0c25 0 46 20 46 45l0 255c0 25-21 45-46 45z m-84-234c0-37-31-67-68-67l-205 0c-37 0-67 30-67 67l0 120c0 37 30 67 67 67l205 0c37 0 68-30 68-67z m60-6c-14 0-24 11-24 24 0 14 10 25 24 25 14 0 25-11 25-25 0-13-11-24-25-24z m0 89c-14 0-24 11-24 24 0 14 10 25 24 25 14 0 25-11 25-25 0-13-11-24-25-24z"/>
<glyph unicode="&#57352;" d="M501 388l-123 0c-6 0-11-5-11-11l0-241c0-6 5-11 11-11l123 0c6 0 11 5 11 11l0 241c0 6-5 11-11 11z m-61-208c-9 0-15 6-15 14 0 9 6 15 15 15 8 0 14-6 14-15 0-8-6-14-14-14z m-55 145l108 0 0-20-108 0z m0 40l108 0 0-20-108 0z m-186-194l-75 0 0-26-33 0 0-21 141 0 0 21-33 0z m-199 10l316 0 0 204-316 0z m25 179l267 0 0-155-267 0z"/>
<glyph unicode="&#57353;" d="M198 161l-54 0 0-35 227 0 0 35-54 0 0 17 163 0 0 334-447 0 0-334 165 0z m-120 306l356 0 0-244-356 0z m-68-467l492 0 0 114-492 0z m111 34c-13 0-24 11-24 23 0 13 11 24 24 24 12 0 23-11 23-24 0-12-11-23-23-23z m161 35l175 0 0-19-175 0z"/>
<glyph unicode="&#57354;" d="M512 250l-512 0c0-2 0-5 0-8l0-133c0-7 5-12 12-12l97 0-11-42-6-25 328 0-7 25-10 42 96 0c7 0 13 5 13 12l0 133c0 3 0 6 0 8z m-395-200l32 124 214 0 32-124z m-13 93l0 36 27 0 0 0-9-36z m305 0l-19 0-9 36 0 0 28 0z m-59 1l-3 8-182 0-3-10 188 0z m7-31l-202 0-4-15 210 0z m-208-24l-4-18 223 0-4 18z m203 45l-192 0-3-13 198 0z m-192 127l351 0c-9 49-52 86-104 86l-35 0 0 65 0 3-65 66-166 0 0-134-36 0c-52 0-94-37-103-86z m1 201l138 0 0-53 54 0 0-63-192 0z"/>
<glyph unicode="&#57355;" d="M471 353c-26 26-60 40-97 40l-237 0c-36 0-71-14-97-40-26-26-40-61-40-97 0-37 14-71 40-97 26-26 61-40 97-40l237 0c37 0 71 14 97 40 26 26 40 60 40 97 0 36-14 71-40 97z m-97-211l-237 0c-63 0-113 51-113 114 0 63 50 114 113 114l237 0c63 0 114-51 114-114 0-63-51-114-114-114z m-232 208c-53 0-96-43-96-96 0-53 43-96 96-96 53 0 91 43 91 96 0 53-38 96-91 96z"/>
<glyph unicode="&#57356;" d="M383 385l-254 0c-71 0-129-57-129-129 0-72 58-130 129-130l254 0c71 0 129 58 129 130 0 72-58 129-129 129z m-250-222c-51 0-93 42-93 93 0 51 42 93 93 93 51 0 93-42 93-93 0-51-42-93-93-93z"/>
<glyph unicode="&#57357;" d="M4 276l280 0c1 0 1 2 1 2l-60 55c-5 4-11 6-18 6l-127 0c-6 0-13-2-17-6l-60-55c-1 0 0-2 1-2m500-87c-46-1-85 0-115 2-14 2-24 4-30 5 10 2 28 3 56 2 10 0 17 3 20 8 2 2 3 7-1 13-10 18-65 40-136 36l0 0c-1 0-1 0-2 0l-9 4 0 11c0 0-1 1-1 1l-284 0c-1 0-1-1-1-1l0-28c0-12 9-21 20-21l246 0c9 0 16 6 19 15l10 4c0 0 0 0 0 0l2 0 0 0c31 2 63-2 89-10 18-6 29-13 33-17-1 0-3 0-5 0-21 1-40 0-53-1-20-3-25-7-27-11-2-3-2-6 0-9 2-3 6-10 49-15 22-2 51-4 84-4 12 0 24 0 36 1 4 0 7 3 7 7 0 5-3 8-7 8z m-466 47c-1-1-4-2-7-2-3 0-5 1-7 2-2 1-3 3-3 6l5 0c0-1 1-2 1-3 1-1 2-1 4-1 1 0 2 0 3 0 1 1 2 2 2 3 0 1 0 1-1 2-1 0-2 0-3 1l-3 0c-2 1-4 1-5 2-1 1-2 3-2 5 0 2 1 4 2 5 2 2 4 2 7 2 2 0 5 0 6-1 2-2 3-4 3-6l-5 0c0 1 0 2-2 3 0 0-1 0-2 0-2 0-3 0-4 0 0-1-1-2-1-2 0-1 1-2 1-2 1-1 2-1 4-1l4-1c1-1 3-1 4-2 1-1 2-3 2-5 0-2-1-4-3-5z m22 0c-2-1-4-2-7-2-3 0-6 1-7 2-2 1-3 3-3 6l5 0c0-1 0-2 1-3 0-1 2-1 4-1 1 0 2 0 3 0 1 1 2 2 2 3 0 1-1 1-1 2-1 0-2 0-4 1l-2 0c-3 1-4 1-5 2-2 1-3 3-3 5 0 2 1 4 3 5 1 2 4 2 7 2 2 0 4 0 6-1 2-2 3-4 3-6l-5 0c0 1-1 2-2 3-1 0-2 0-3 0-1 0-2 0-3 0-1-1-1-2-1-2 0-1 0-2 1-2 1-1 2-1 3-1l4-1c2-1 3-1 4-2 2-1 2-3 2-5 0-2 0-4-2-5z m24 3c-2-3-5-5-8-5l-10 0 0 24 10 0c1 0 3 0 4-1 1 0 2-1 4-3 0-1 1-2 1-3 0-2 1-3 1-4 0-3-1-6-2-8z m173 7c-1-4-3-6-7-7-5 0-9 4-8 9 0 3 3 6 6 6 5 1 9-3 9-8z m-182 8l-4 0 0-15 4 0c2 0 4 1 5 3 0 1 1 3 1 4 0 3-1 5-1 6-1 1-3 2-5 2"/>
<glyph unicode="&#57358;" d="M505 184c-40-1-74-1-100 2-13 1-21 3-27 4 9 1 25 3 49 2 10 0 16 2 18 7 1 2 3 6-1 11-9 15-57 35-119 31l-1 0c0 0 0 0-1 0l-12 6 0 17c0 1-1 1-1 1l-308 0c-1 0-1 0-1-1l0-42c0-12 10-22 22-22l266 0c12 0 22 10 22 22l0 1 12 5c0 0 0 0 0 0l1 0 1 0c27 2 55-1 78-8 16-5 25-11 29-15-1 0-3 0-5 0-18 1-34 0-46-1-18-3-22-6-24-9-1-3-1-6 0-9 2-3 6-9 43-13 20-2 45-3 74-3 10 0 21 0 32 0 3 1 6 4 6 7 0 4-3 7-7 7z m-501 90l304 0c1 0 1 1 0 2l-64 59c-6 4-12 7-19 7l-138 0c-7 0-14-3-19-7l-65-59c-1-1 0-2 1-2z m105-52c-3-3-6-5-10-5l-14 0 0 30 14 0c1 0 3 0 4-1 2 0 4-2 5-4 1-1 2-3 3-5 0-1 0-3 0-5 0-4-1-7-2-10z m-12 20l-5 0 0-20 5 0c3 0 6 1 7 4 0 2 1 4 1 6 0 3-1 6-2 7-1 2-3 3-6 3z m-48-25l-6 0 0 13-12 0 0-13-6 0 0 30 6 0 0-12 12 0 0 12 6 0z m29 5c-2-3-5-5-10-5l-13 0 0 30 13 0c2 0 4 0 5-1 2 0 4-2 5-4 1-1 2-3 2-5 1-1 1-3 1-5 0-4-1-7-3-10z m200 10c0-4-3-7-7-7-5-1-10 4-9 9 0 4 3 7 7 7 5 1 10-4 9-9z m-211 10l-6 0 0-20 6 0c3 0 5 1 6 4 1 2 1 4 1 6 0 3 0 6-1 7-1 2-3 3-6 3z"/>
<glyph unicode="&#57359;" d="M446 359l0 82c0 4-2 8-5 11l-56 55c-3 3-7 5-11 5l-292 0c-9 0-15-7-15-16l0-137 12 0 0-120-12 0 0-215c0-13 10-24 24-24l114 0 0 4 101 0 0-4 115 0c13 0 25 11 25 24l0 300-8 0 0 35z m-35-315c0-8-7-15-15-15l-280 0c-8 0-15 7-15 15l0 379c0 8 7 15 15 15l280 0c8 0 15-7 15-15z m-344 309l8 0 0-47-8 0z m46-228l288 0 0-82-288 0z m41 9c11 0 20 4 25 10 5 7 8 15 8 24 0 8-3 16-8 21-6 6-12 9-21 9-4 0-7-1-10-2-3-1-6-3-8-6 0 7 1 13 3 16 2 7 6 10 13 10 4 0 7-1 9-4 1-2 1-4 1-5l19 0c-1 7-4 14-9 18-5 5-12 7-21 7-6 0-11-2-16-5-4-2-7-6-10-10-3-6-5-12-6-20-1-5-1-11-1-18 0-12 2-22 6-30 6-10 15-15 26-15z m-8 46c2 2 5 3 8 3 4 0 7-1 10-4 3-3 4-8 4-13 0-5-1-9-4-12-2-3-5-5-9-5-4 0-8 2-11 5-2 3-4 7-4 13 0 6 2 10 6 13z m86-43l18 0 0 20 11 0 0 15-11 0 0 58-20 0-35-57 0-16 37 0z m-23 35l23 40 0-40z m66-30c2-2 4-4 7-5 2-1 5-1 8-1 3 0 5 0 7 0 2 1 3 1 5 2 1 1 3 2 4 3 1 1 2 3 2 4l0-8 4 0 0 25-21 0 0-4 17 0c0-1 0-3 0-5-1-2-1-3-2-5-1-2-2-3-3-4-1-1-2-2-3-3-2 0-3-1-5-1-1 0-2-1-4-1-2 0-5 1-7 2-2 1-4 3-6 5-1 1-2 4-3 6-1 2-1 5-1 8 0 3 0 6 1 9 0 3 1 6 3 8 1 2 3 3 6 4 2 1 5 2 8 2 2 0 4 0 5-1 2 0 3-1 5-2 1-1 2-2 3-4 1-1 2-3 2-4l5 0c0 2-1 4-3 6-1 2-2 4-4 5-2 1-4 2-6 3-2 1-5 1-7 1-4 0-8-1-10-2-3-1-6-3-7-5-2-3-4-5-5-8-1-4-1-7-1-10 0-5 1-9 2-12 1-3 2-6 4-8m75-5c2 1 4 2 5 3 2 1 3 2 4 4 0 2 1 4 1 7 0 3-1 6-3 8-1 2-4 3-7 4l0 0c1 0 2 0 3 1 1 0 1 1 2 2 1 1 1 2 2 3 0 1 1 3 1 4 0 2-1 4-1 5-1 2-2 3-3 4-1 1-3 2-5 3-2 0-5 1-7 1l-18 0 0-49 20 0c2 0 4 0 6 0z m-22 45l11 0c3 0 5 0 7-1 1 0 3 0 4-1 1-1 2-2 2-3 1-1 1-2 1-4 0-1 0-2-1-4 0-1-1-2-2-2-1-1-2-2-4-2-1-1-3-1-6-1l-12 0z m0-42l0 20 13 0c2 0 4 0 6 0 1 0 3-1 4-2 2 0 2-1 3-2 1-2 1-3 1-5 0-3 0-4-1-6 0-1-1-2-2-3-2 0-3-1-5-1-2 0-4-1-7-1z"/>
<glyph unicode="&#57360;" d="M430 512l-292 0c-4 0-8-2-11-5l-56-55c-3-3-4-7-4-11l0-82 7 0 0-35-7 0 0-300c0-13 10-24 24-24l330 0c14 0 25 11 25 24l0 215-13 0 0 120 13 0 0 137c0 9-8 16-16 16z m-332-58l33 0 0-87-33 0z m42 38l33 0 0-87-33 0z m43 0l33 0 0-87-33 0z m42 0l33 0 0-87-33 0z m43 0l33 0 0-87-33 0z m42 0l33 0 0-87-33 0z m43 0l33 0 0-87-33 0z m42 0l25 0 0-87-25 0z m42-139l9 0 0-47-9 0z"/>
<glyph unicode="&#57361;" d="M256 512c-141 0-256-115-256-256 0-141 115-256 256-256 141 0 256 115 256 256 0 141-115 256-256 256z m27-146c12-3 23-8 34-15 7-4 13-9 19-15 21-21 33-50 33-80 0-30-12-59-33-80-21-21-50-33-80-33-9 0-18 1-27 3-12 3-24 8-34 15-7 4-13 9-19 15-22 21-33 50-33 80 0 30 11 59 33 80 21 22 50 33 80 33 9 0 18-1 27-3z m-84-344c-26 7-51 17-73 31l64 100c11-8 24-13 37-16z m123 338c-11 7-24 12-37 15l28 115c26-7 51-17 73-31z m-125-163c5-4 9-8 14-11 8-5 16-8 25-11 7-1 13-2 20-2 22 0 43 9 59 24 32 33 32 85 0 118-5 4-9 8-14 11-8 5-16 9-25 11-7 1-13 2-20 2-22 0-43-9-59-24-32-33-32-85 0-118z m77 134c9-2 16-5 24-10 4-3 9-6 13-10 30-30 30-79 0-110-15-14-34-22-55-22-6 0-12 1-18 2-9 2-16 5-24 10-4 3-9 6-13 10-30 31-30 80 0 110 15 14 34 22 55 22 6 0 12 0 18-2z m-32-97c2-2 5-3 8-4 8-2 18 0 25 7 10 11 10 27 0 38-2 1-3 2-5 3-2 2-5 3-8 4-8 2-18 0-25-7-10-11-10-27 0-38 2-1 3-2 5-3"/>
<glyph unicode="&#57362;" d="M418 507l-21 0 0-216-284 0 0 216-113 0 0-503 512 0 0 409z m-376-266l428 0 0-211-428 0z m256 245l66 0 0-174-66 0z m-225-276l366 0 0-32-366 0z m0-59l366 0 0-32-366 0z m0-59l366 0 0-33-366 0z"/>
<glyph unicode="&#57363;" d="M362 98l-30 0-20 19-114 0-19-19-28 0c-3 0-6-3-6-6l0-8 222 0 0 8c0 3-2 6-5 6z m144 329l-500 0c-3 0-6-2-6-6l0-292c0-4 3-6 6-6l500 0c3 0 6 2 6 6l0 292c0 4-3 6-6 6z m-257-291l16 0 0-2-16 0z m-222 267l458 0 0-248-458 0z m13-14l432 0 0-221-432 0z"/>
<glyph unicode="&#57364;" d="M201 118l0-18-70 0 0-23 253 0 0 23-72 0 0 18z m-201 13l512 0 0 303-512 0z m28 276l456 0 0-248-456 0z m18-19l420 0 0-211-420 0z"/>
<glyph unicode="&#57365;" d="M312 117l-114 0-19-19-28 0c-3 0-6-3-6-6l0-8 222 0 0 8c0 3-2 6-5 6l-30 0-20 19m-312 304l0-292c0-4 3-6 6-6l500 0c3 0 6 2 6 6l0 292c0 4-3 6-6 6l-500 0c-3 0-6-2-6-6z m249-285l16 0 0-2-16 0z m-219 261l452 0 0-236-452 0z"/>
<glyph unicode="&#57366;" d="M384 87l-58 0c-6 0-11 5-11 10l0 1c0 5-4 9-9 9l-100 0c-5 0-11-4-11-9l0-1c0-5-3-10-9-10l-56 0c-5 0-10-4-10-9l0-5c0-5 5-10 10-10l254 0c5 0 8 5 8 10l0 5c0 5-3 9-8 9m110 361l-476 0c-10 0-18-8-18-18l0-290c0-10 8-19 18-19l476 0c10 0 18 9 18 19l0 290c0 10-8 18-18 18z m-217-302c0-1-1-3-3-3l-34 0c-2 0-3 2-3 3l0 0c0 2 1 3 3 3l34 0c2 0 3-1 3-3z m195 52c0-14-11-25-25-25l-382 0c-14 0-25 11-25 25l0 186c0 13 11 25 25 25l382 0c14 0 25-12 25-25z"/>
<glyph unicode="&#57367;" d="M0 131l512 0 0 303-512 0z m37 267l438 0 0-230-438 0z m275-280l-111 0 0-18-70 0 0-23 253 0 0 23-72 0 0 18"/>
<glyph unicode="&#57368;" d="M395 292l0 82c0 76-63 138-139 138-76 0-139-62-139-138l0-82-57 0 0-292 393 0 0 292z m-206 75c0 39 31 76 71 76 39 0 71-37 71-76l0-76-142 0z"/>
<glyph unicode="&#57369;" d="M395 292l0 82c0 76-63 138-139 138-76 0-139-62-139-138l0-82-57 0 0-292 393 0 0 292z m-206 75c0 39 31 76 71 76 39 0 71-37 71-76l0-76-142 0z m75-226l4-50-30 0 4 50c-12 5-19 16-19 29 0 17 13 31 30 31 17 0 31-14 31-31 0-13-8-24-20-29z"/>
<glyph unicode="&#57370;" d="M259 269l0 116c0 70-57 127-128 127-70 0-127-57-127-127l0-182 65 0 0 175c0 36 29 70 66 70 36 0 65-34 65-70l0-109-52 0 0-269 361 0 0 269-250 0"/>
<glyph unicode="&#57371;" d="M259 269l0 116c0 70-57 127-128 127-70 0-127-57-127-127l0-182 65 0 0 175c0 36 29 70 66 70 36 0 65-34 65-70l0-109-52 0 0-269 361 0 0 269z m78-139l3-46-28 0 3 46c-10 4-17 14-17 26 0 16 12 29 28 29 16 0 29-13 29-29 0-12-8-22-18-26z"/>
<glyph unicode="&#57372;" d="M193 378c0 36 29 70 65 70 37 0 66-34 66-70l0-83 59 0 0 90c0 70-58 127-128 127-70 0-128-57-128-127l0-90 66 0 0 83m191-109l-309 0 0-269 362 0 0 269-53 0"/>
<glyph unicode="&#57373;" d="M384 269l-309 0 0-269 362 0 0 269z m-120-137l4-46-29 0 4 46c-11 4-18 14-18 26 0 16 13 29 29 29 15 0 28-13 28-29 0-12-7-22-18-26z m-71 246c0 36 29 70 65 70 37 0 66-34 66-70l0-83 59 0 0 90c0 70-58 127-128 127-70 0-128-57-128-127l0-90 66 0 0 83"/>
<glyph unicode="&#57374;" d="M204 387l0-113 55 0 0 120c0 65-53 118-118 118-65 0-119-53-119-118l0-169 61 0 0 162c0 34 27 66 61 66 33 0 60-32 60-66z m54-137l-104 0 0-250 336 0 0 250z"/>
<glyph unicode="&#57375;" d="M260 250l-104 0 0-250 335 0 0 250z m71-127l3-43-26 0 3 43c-9 4-16 13-16 24 0 15 12 27 26 27 14 0 26-12 26-27 0-11-7-20-16-24z m-128 264l0-113 55 0 0 120c0 65-53 118-118 118-65 0-119-53-119-118l0-169 61 0 0 162c0 34 27 66 61 66 33 0 60-32 60-66"/>
<glyph unicode="&#57376;" d="M420 269l-324 0c-18 0-33-11-33-30l0-203c0-18 15-36 33-36l324 0c18 0 29 18 29 36l0 203c0 19-11 30-29 30m-225 109c0 36 29 70 65 70 37 0 66-34 66-70l0-83 59 0 0 90c0 70-58 127-128 127-70 0-128-57-128-127l0-90 66 0 0 83"/>
<glyph unicode="&#57377;" d="M420 269l-324 0c-18 0-33-11-33-30l0-203c0-18 15-36 33-36l324 0c18 0 29 18 29 36l0 203c0 19-11 30-29 30z m-154-137l4-46-29 0 4 46c-11 4-18 14-18 26 0 16 13 29 29 29 15 0 28-13 28-29 0-12-7-22-18-26z m-72 246c0 36 29 70 65 70 37 0 66-34 66-70l0-83 59 0 0 90c0 70-58 127-128 127-70 0-128-57-128-127l0-90 66 0 0 83"/>
<glyph unicode="&#57378;" d="M199 387l0-113 55 0 0 120c0 65-54 118-119 118-65 0-118-53-118-118l0-169 60 0 0 162c0 34 27 66 61 66 34 0 61-32 61-66z m269-137l-300 0c-17 0-30-11-30-27l0-189c0-17 13-34 30-34l300 0c17 0 28 17 28 34l0 189c0 16-11 27-28 27z"/>
<glyph unicode="&#57379;" d="M468 250l-300 0c-17 0-30-11-30-27l0-189c0-17 13-34 30-34l300 0c17 0 28 17 28 34l0 189c0 16-11 27-28 27z m-143-127l4-43-27 0 4 43c-10 4-16 13-16 24 0 15 11 27 26 27 14 0 26-12 26-27 0-11-7-20-17-24z m-126 264l0-113 55 0 0 120c0 65-54 118-119 118-65 0-118-53-118-118l0-169 60 0 0 162c0 34 27 66 61 66 34 0 61-32 61-66"/>
<glyph unicode="&#57380;" d="M420 270l-324 0c-18 0-33-12-33-30l0-204c0-18 15-36 33-36l324 0c18 0 29 18 29 36l0 204c0 18-11 30-29 30z m-33-218l-263 0c-9 0-16 7-16 16 0 9 7 16 16 16l263 0c9 0 16-7 16-16 0-9-7-16-16-16z m0 67l-263 0c-9 0-16 7-16 16 0 9 7 16 16 16l263 0c9 0 16-7 16-16 0-9-7-16-16-16z m0 66l-263 0c-9 0-16 7-16 16 0 9 7 16 16 16l263 0c9 0 16-7 16-16 0-9-7-16-16-16z m-192 193c0 36 29 70 65 70 37 0 66-34 66-70l0-83 59 0 0 90c0 70-58 127-128 127-70 0-128-57-128-127l0-90 66 0 0 83"/>
<glyph unicode="&#57381;" d="M420 270l-324 0c-18 0-33-12-33-30l0-204c0-18 15-36 33-36l324 0c18 0 29 18 29 36l0 204c0 18-11 30-29 30z m-220-119c1-12 7-23 15-32l-91 0c-9 0-16 7-16 16 0 9 7 16 16 16z m41 34c4 1 8 2 12 2 4 0 7-1 11-2 10-5 17-15 17-26 0-3 0-5-1-7-2-10-8-20-17-23l4-49-29 0 4 49c-9 3-15 13-17 23-1 2-1 4-1 6 0 11 7 22 17 27z m-117-133c-9 0-16 7-16 16 0 9 7 16 16 16l90 0-2-32z m261 0l-90 0-2 29 0 3 92 0c9 0 16-7 16-16 0-9-7-16-16-16z m1 67l-93 0c8 9 13 20 15 32l78 0c9 0 16-7 16-16 0-9-7-16-16-16z m1 66l-85 0c-9 17-27 28-48 28-21 0-39-11-48-28l-82 0c-9 0-16 7-16 16 0 9 7 16 16 16l263 0c9 0 16-7 16-16 0-9-7-16-16-16z m-193 193c0 36 29 70 65 70 37 0 66-34 66-70l0-83 59 0 0 90c0 70-58 127-128 127-70 0-128-57-128-127l0-90 66 0 0 83"/>
<glyph unicode="&#57382;" d="M469 250l-301 0c-16 0-30-11-30-27l0-189c0-17 14-34 30-34l301 0c16 0 27 17 27 34l0 189c0 16-11 27-27 27z m-31-202l-244 0c-8 0-15 7-15 15 0 8 7 15 15 15l244 0c8 0 15-7 15-15 0-8-7-15-15-15z m0 62l-244 0c-8 0-15 7-15 15 0 8 7 15 15 15l244 0c8 0 15-7 15-15 0-8-7-15-15-15z m0 61l-244 0c-8 0-15 7-15 15 0 8 7 15 15 15l244 0c8 0 15-7 15-15 0-8-7-15-15-15z m-239 216l0-113 55 0 0 120c0 65-54 118-119 118-65 0-119-53-119-118l0-169 61 0 0 162c0 34 27 66 61 66 34 0 61-32 61-66"/>
<glyph unicode="&#57383;" d="M168 250c-16 0-30-11-30-27l0-189c0-17 14-34 30-34l301 0c16 0 27 17 27 34l0 189c0 16-11 27-27 27z m96-110c1-11 6-22 14-30l-84 0c-8 0-15 7-15 15 0 8 7 15 15 15z m25 6c0 11 7 21 16 25 3 1 7 2 11 2 3 0 7-1 10-2 9-4 16-14 16-24 0-2 0-4-1-6-2-10-8-19-16-22l4-45-27 0 4 45c-9 4-15 12-16 22-1 1-1 3-1 5z m-95-98c-8 0-15 7-15 15 0 8 7 15 15 15l83 0-2-30z m243 0l-83 0-2 27 0 3 85 0c8 0 15-7 15-15 0-8-7-15-15-15z m1 62l-86 0c7 8 12 19 14 30l72 0c8 0 15-7 15-15 0-8-7-15-15-15z m0 61l-79 0c-8 16-25 26-44 26-20 0-36-10-45-26l-76 0c-8 0-15 7-15 15 0 8 7 15 15 15l244 0c8 0 15-7 15-15 0-8-7-15-15-15z m-239 216l0-113 55 0 0 120c0 65-54 118-119 118-65 0-119-53-119-118l0-169 61 0 0 162c0 34 27 66 61 66 34 0 61-32 61-66"/>
<glyph unicode="&#57384;" d="M373 252c-15 17-33 31-54 40-19 9-40 14-63 14-20 0-38-4-55-10-23-9-44-24-60-42-24-27-38-62-38-101 0-84 68-153 153-153 85 0 154 69 154 153 0 38-14 72-37 99z m-173 138c0 33 27 64 59 64 33 0 60-31 60-64l0-73c20-7 38-18 54-32l0 112c0 63-53 115-116 115-64 0-116-52-116-115l0-110c17 14 37 26 59 33z"/>
<glyph unicode="&#57385;" d="M373 252c-15 17-33 31-54 40-19 9-40 14-63 14-20 0-38-4-55-10-23-9-44-24-60-42-24-27-38-62-38-101 0-84 68-153 153-153 85 0 154 69 154 153 0 38-14 72-37 99z m-118-174c-42 0-75 34-75 76 0 41 33 75 75 75 42 0 76-34 76-75 0-42-34-76-76-76z m2 139c-35 0-63-28-63-63 0-36 28-64 63-64 35 0 64 28 64 64 0 35-29 63-64 63z m-57 173c0 33 27 64 59 64 33 0 60-31 60-64l0-73c20-7 38-18 54-32l0 112c0 63-53 115-116 115-64 0-116-52-116-115l0-110c17 14 37 26 59 33z"/>
<glyph unicode="&#57386;" d="M214 394l0-117c15 13 32 23 52 30l0 93c0 62-51 112-112 112-62 0-112-50-112-112l0-159 57 0 0 153c0 32 26 62 57 62 32 0 58-30 58-62z m108-98c-21 0-41-4-59-12-20-9-37-22-51-38-23-26-37-60-37-98 0-82 66-148 147-148 82 0 149 66 149 148 0 82-67 148-149 148z"/>
<glyph unicode="&#57387;" d="M324 296c-21 0-41-4-59-12-20-9-38-22-52-38-23-26-37-60-37-98 0-82 66-148 148-148 82 0 148 66 148 148 0 82-66 148-148 148z m0-221c-40 0-73 33-73 73 0 40 33 73 73 73 40 0 73-33 73-73 0-40-33-73-73-73z m-112 319l0-117c15 13 33 23 52 30l0 93c0 62-51 112-112 112-61 0-112-50-112-112l0-159 57 0 0 153c0 32 26 62 58 62 32 0 57-30 57-62z m112-184c-34 0-61-27-61-61 0-34 27-61 61-61 34 0 61 27 61 61 0 34-27 61-61 61z"/>
<glyph unicode="&#57388;" d="M372 251c-14 17-32 31-53 40-19 9-40 14-63 14-19 0-38-4-55-10-23-9-43-23-59-41-24-27-39-63-39-102 0-84 69-152 153-152 84 0 153 68 153 152 0 38-14 73-37 99z m-117-213c-64 0-116 52-116 116 0 30 12 58 31 79 9 9 19 17 30 23 16 9 35 14 55 14 23 0 45-7 63-19 8-5 15-11 22-18 19-21 31-49 31-79 0-64-52-116-116-116z m0 226c-20 0-38-6-55-15-8-5-15-10-22-17-20-20-33-48-33-78 0-61 50-111 110-111 61 0 111 50 111 111 0 30-13 58-33 78-5 5-9 9-14 12-18 13-40 20-64 20z m1-160c-28 0-51 22-51 50 0 28 23 50 51 50 27 0 50-22 50-50 0-28-23-50-50-50z m-56 287c0 33 27 64 59 64 33 0 60-31 60-64l0-73c19-7 37-18 53-32l0 111c0 64-52 115-115 115-64 0-116-51-116-115l0-109c17 14 37 26 59 33z"/>
<glyph unicode="&#57389;" d="M436 249c-15 17-33 31-53 40-19 9-41 14-63 14-19 0-38-4-55-11-23-8-43-23-59-40-23-27-38-62-38-101 0-83 68-151 152-151 84 0 152 68 152 151 0 38-14 72-36 98z m-117-211c-63 0-115 51-115 115 0 30 12 57 31 78 8 9 18 17 29 23 17 9 35 14 55 14 23 0 44-7 62-19 9-5 16-11 22-18 19-21 31-48 31-78 0-64-52-115-115-115z m1 224c-20 0-39-6-55-15-8-4-16-10-22-16-20-20-33-48-33-79 0-60 49-109 110-109 60 0 109 49 109 109 0 31-13 59-33 79-4 4-9 8-14 11-18 13-39 20-62 20z m0-159c-28 0-51 22-51 50 0 27 23 49 51 49 27 0 50-22 50-49 0-28-23-50-50-50z m-109 292l0-116c15 12 33 23 51 30l0 92c0 61-50 111-111 111-61 0-111-50-111-111l0-158 57 0 0 152c0 32 26 62 57 62 32 0 57-30 57-62z"/>
<glyph unicode="&#57390;" d="M254 512c-70 0-127-57-127-127 0-49 33-92 71-113l0-37 35-44-32-43 26-36-29-38 0-4 58-70 1 0 59 70 0 201c37 21 69 64 69 114 0 70-60 127-131 127z m1-137c-23 0-42 19-42 42 0 22 19 41 42 41 22 0 41-19 41-41 0-23-19-42-41-42z"/>
<glyph unicode="&#57391;" d="M256 512c-141 0-255-115-255-256 0-141 114-256 255-256 141 0 256 115 256 256 0 141-115 256-256 256z m36-252l0-135-35-45-1 0-39 45 0 2 20 26-17 24 21 29-24 30 0 24c-30 14-46 43-46 77 0 47 38 85 85 85 47 0 85-38 85-85 0-34-19-63-49-77z m-36 131c-15 0-27-12-27-28 0-15 12-27 27-27 15 0 28 12 28 27 0 16-13 28-28 28z"/>
<glyph unicode="&#57392;" d="M256 208c-109 0-201-88-229-208l459 0c-29 120-121 208-230 208m0 25c68 0 124 63 124 139 0 77-56 139-124 139-68 0-123-62-123-139 0-76 55-139 123-139"/>
<glyph unicode="&#57393;" d="M369 203c-31-29-70-46-113-46-43 0-82 17-112 46-70-39-123-113-143-203l511 0c-21 90-74 164-143 203z m-202 12c24-21 55-34 89-34 33 0 64 13 88 34 36 30 59 78 59 131 0 91-66 165-147 165-82 0-148-74-148-165 0-53 23-101 59-131z"/>
<glyph unicode="&#57394;" d="M255 233c68 0 124 63 124 140 0 77-56 139-124 139-68 0-124-62-124-139 0-77 56-140 124-140m129-22l-256 0c-59 0-107-48-107-107l0-104 470 0 0 104c0 59-48 107-107 107"/>
<glyph unicode="&#57395;" d="M395 222l-4 0c-30-48-80-78-136-78-57 0-106 30-137 78l-1 0c-64 0-116-53-116-117l0-84 511 0 0 84c0 64-53 117-117 117z m-140-54c42 0 80 21 107 54 23 28 37 66 37 107 0 90-65 162-144 162-80 0-145-72-145-162 0-41 14-79 37-107 27-33 65-54 108-54z"/>
<glyph unicode="&#57396;" d="M356 230c-3-4-11-1-10 0-11-13-10-39-15-55-4-17 1-35 18-44 53-19 121-42 163-74l-511 0c47 25 77 53 129 74 12 6 25 12 36 20 12 9 7 33 6 47 0 4-1 42-2 42-24 0-24 20-21 41 1 11 1 40 15 26-9 10 0 46 0 58 1 20 1 40 15 56 25 26 64 40 100 32 16-4 27-10 43-14 12-2 37-29 36-44 0-16 4-33 5-49 1-18-7-31-8-49 17 14 12-23 12-33 0-12-4-25-11-34"/>
<glyph unicode="&#57397;" d="M466 512l-385 0c-9 0-16-6-17-14l32 0c9 0 17-7 17-17l0-1c0-9-8-17-17-17l-32 0 0-20 32 0c9 0 17-7 17-17l0-1c0-9-8-17-17-17l-32 0 0-20 32 0c9 0 17-7 17-17l0-1c0-9-8-17-17-17l-32 0 0-20 32 0c9 0 17-7 17-17l0-1c0-9-8-17-17-17l-32 0 0-20 32 0c9 0 17-7 17-17l0-1c0-9-8-17-17-17l-32 0 0-20 32 0c9 0 17-7 17-17l0-1c0-9-8-17-17-17l-32 0 0-20 32 0c9 0 17-7 17-17l0-1c0-9-8-17-17-17l-32 0 0-20 32 0c9 0 17-7 17-17l0-1c0-9-8-17-17-17l-32 0 0-20 32 0c9 0 17-7 17-16l0-2c0-9-8-17-17-17l-32 0 0-6c0-9 7-17 17-17l385 0c10 0 18 8 18 17l0 478c0 9-8 17-18 17z m-161-287c-8-7-17-10-27-10-11 0-20 4-28 12-7 8-11 19-11 34 0 16 6 32 17 47 11 15 25 22 41 22 9 0 17-3 22-8 4-4 7-9 8-15l5 17 25 0-17-60c-1-5-2-8-3-11 0-2-1-4-1-6 0-2 1-5 3-8 2-2 5-3 9-3 7 0 15 5 23 15 8 11 12 25 12 42 0 26-11 44-32 55-14 7-29 11-45 11-31 0-56-10-74-29-17-18-25-39-25-63 0-27 9-49 29-65 18-14 39-21 64-21 17 0 33 3 48 10 8 3 16 8 25 15l3 2 10-16c-13-10-27-18-41-23-15-5-31-8-47-8-37 0-66 12-87 36-17 20-25 44-25 71 0 30 10 56 31 77 23 23 51 34 86 34 29 0 52-8 71-23 20-16 30-38 30-65 0-21-7-39-19-54-13-15-27-23-43-23-8 0-14 3-19 8-4 5-7 10-7 15 0 0 0 1 0 2 0 1 1 1 1 2-4-6-8-12-12-16z m-210-193c5 0 9 4 9 8l0 2c0 4-4 7-9 7l-59 0c-5 0-7-3-7-7l0-2c0-4 2-8 7-8z m-59 54l59 0c5 0 9 4 9 8l0 2c0 4-4 7-9 7l-59 0c-5 0-7-3-7-7l0-2c0-4 2-8 7-8z m0 56l59 0c5 0 9 4 9 8l0 2c0 4-4 7-9 7l-59 0c-5 0-7-3-7-7l0-2c0-4 2-8 7-8z m0 55l59 0c5 0 9 4 9 8l0 2c0 4-4 7-9 7l-59 0c-5 0-7-3-7-7l0-2c0-4 2-8 7-8z m0 55l59 0c5 0 9 4 9 8l0 2c0 4-4 7-9 7l-59 0c-5 0-7-3-7-7l0-2c0-4 2-8 7-8z m0 54l59 0c5 0 9 4 9 8l0 2c0 4-4 7-9 7l-59 0c-5 0-7-3-7-7l0-2c0-4 2-8 7-8z m0 56l59 0c5 0 9 4 9 8l0 2c0 4-4 7-9 7l-59 0c-5 0-7-3-7-7l0-2c0-4 2-8 7-8z m0 55l59 0c5 0 9 4 9 8l0 2c0 4-4 7-9 7l-59 0c-5 0-7-3-7-7l0-2c0-4 2-8 7-8z m0 55l59 0c5 0 9 4 9 8l0 2c0 4-4 7-9 7l-59 0c-5 0-7-3-7-7l0-2c0-4 2-8 7-8z m278-167c-3 3-7 5-11 5-10 0-18-6-24-18-7-12-10-24-10-35 0-7 1-13 4-17 3-4 7-6 13-6 9 0 17 8 23 23 6 15 10 27 10 36 0 4-2 9-5 12z"/>
<glyph unicode="&#57398;" d="M466 512l-385 0c-9 0-16-6-17-14l32 0c9 0 17-7 17-17l0-1c0-9-8-17-17-17l-32 0 0-20 32 0c9 0 17-7 17-17l0-1c0-9-8-17-17-17l-32 0 0-20 32 0c9 0 17-7 17-17l0-1c0-9-8-17-17-17l-32 0 0-20 32 0c9 0 17-7 17-17l0-1c0-9-8-17-17-17l-32 0 0-20 32 0c9 0 17-7 17-17l0-1c0-9-8-17-17-17l-32 0 0-20 32 0c9 0 17-7 17-17l0-1c0-9-8-17-17-17l-32 0 0-20 32 0c9 0 17-7 17-17l0-1c0-9-8-17-17-17l-32 0 0-20 32 0c9 0 17-7 17-17l0-1c0-9-8-17-17-17l-32 0 0-20 32 0c9 0 17-7 17-16l0-2c0-9-8-17-17-17l-32 0 0-6c0-9 7-17 17-17l385 0c10 0 18 8 18 17l0 478c0 9-8 17-18 17z m-371-480c5 0 9 4 9 8l0 2c0 4-4 7-9 7l-59 0c-5 0-7-3-7-7l0-2c0-4 2-8 7-8z m-59 54l59 0c5 0 9 4 9 8l0 2c0 4-4 7-9 7l-59 0c-5 0-7-3-7-7l0-2c0-4 2-8 7-8z m0 56l59 0c5 0 9 4 9 8l0 2c0 4-4 7-9 7l-59 0c-5 0-7-3-7-7l0-2c0-4 2-8 7-8z m0 55l59 0c5 0 9 4 9 8l0 2c0 4-4 7-9 7l-59 0c-5 0-7-3-7-7l0-2c0-4 2-8 7-8z m0 55l59 0c5 0 9 4 9 8l0 2c0 4-4 7-9 7l-59 0c-5 0-7-3-7-7l0-2c0-4 2-8 7-8z m0 54l59 0c5 0 9 4 9 8l0 2c0 4-4 7-9 7l-59 0c-5 0-7-3-7-7l0-2c0-4 2-8 7-8z m0 56l59 0c5 0 9 4 9 8l0 2c0 4-4 7-9 7l-59 0c-5 0-7-3-7-7l0-2c0-4 2-8 7-8z m0 55l59 0c5 0 9 4 9 8l0 2c0 4-4 7-9 7l-59 0c-5 0-7-3-7-7l0-2c0-4 2-8 7-8z m0 55l59 0c5 0 9 4 9 8l0 2c0 4-4 7-9 7l-59 0c-5 0-7-3-7-7l0-2c0-4 2-8 7-8z"/>
<glyph unicode="&#57399;" d="M457 512l-399 0c-10 0-20-5-20-14l0-478c0-9 10-20 20-20l399 0c10 0 18 8 18 17l0 478c0 9-8 17-18 17z m-344-497l-56 0c-1 0-5 4-5 6l0 477c2 0 3 0 5 0l56 0z m189 210c-8-7-17-10-27-10-11 0-20 4-28 12-7 8-11 19-11 34 0 16 6 32 17 47 11 15 25 22 41 22 9 0 17-3 22-8 4-4 7-9 8-15l5 17 25 0-17-60c-1-5-2-8-3-11 0-2-1-4-1-6 0-2 1-5 3-8 2-2 5-3 9-3 7 0 15 5 23 15 8 11 12 25 12 42 0 26-11 44-32 55-14 7-29 11-45 11-31 0-56-10-74-29-17-18-25-39-25-63 0-27 9-49 29-65 18-14 39-21 64-21 17 0 33 3 48 10 8 3 16 8 25 15l3 2 10-16c-13-10-27-18-41-23-15-5-31-8-47-8-37 0-66 12-87 36-17 20-25 44-25 71 0 30 10 56 31 77 23 23 51 34 86 34 29 0 52-8 71-23 20-16 30-38 30-65 0-21-7-39-19-54-13-15-27-23-43-23-8 0-14 3-19 8-4 5-7 10-7 15 0 0 0 1 0 2 0 1 1 1 1 2-4-6-8-12-12-16z m9 80c-3 3-7 5-11 5-10 0-18-6-24-18-7-12-10-24-10-35 0-7 1-13 4-17 3-4 7-6 13-6 9 0 17 8 23 23 6 15 10 27 10 36 0 4-2 9-5 12z"/>
<glyph unicode="&#57400;" d="M457 512l-399 0c-10 0-20-5-20-14l0-478c0-9 10-20 20-20l399 0c10 0 18 8 18 17l0 478c0 9-8 17-18 17z m-344-497l-56 0c-1 0-5 4-5 6l0 477c2 0 3 0 5 0l56 0z"/>
<glyph unicode="&#57401;" d="M256 511c-93 0-167-74-167-166 0-93 167-345 167-345 0 0 168 252 168 345 0 92-75 166-168 166z m0-242c-42 0-75 34-75 75 0 42 33 75 75 75 42 0 76-33 76-75 0-41-34-75-76-75z"/>
<glyph unicode="&#57402;" d="M372 396c0 64-51 115-115 115-64 0-117-51-117-115 0-57 42-105 97-114l0-246c-27-2-50-9-50-17 0-10 32-19 70-19 38 0 68 9 68 19 0 8-20 16-54 18l0 245c62 8 101 56 101 114z m-151 47c-10-6-23-6-28 2-5 8 0 20 11 26 11 7 23 6 28-2 5-8 0-19-11-26z"/>
<glyph unicode="&#57403;" d="M409 259c0 0-40 45-86 69l0 126c33 14 39 34 39 34 10 12 6 23-10 23l-192 0c-16 0-20-11-10-23 0 0 6-19 40-34l0-126c-47-24-86-70-86-70-16-20-8-39 17-39l120 0c0 0 0-6 0-10 0-13 0-26 1-39 0-12 0-25 1-37 1-25 3-47 5-67 3-20 5-36 7-48 1-5 2-10 3-13 0-3 1-5 1-5 0 0 0 2 1 5 0 3 1 8 2 14 2 11 5 27 7 47 2 20 4 43 5 67 1 12 1 25 2 38 0 13 0 25 0 38 0 4 0 10 0 10l114 0c26 0 34 19 19 40"/>
<glyph unicode="&#57404;" d="M255 255l23-255 234 511-511-233 254-23"/>
<glyph unicode="&#57405;" d="M78 511c-11 0-20-8-20-18l0-474c0-10 9-19 20-19 10 0 19 9 19 19l0 474c0 10-9 18-19 18m42-16l0-274 334 137-334 137"/>
<glyph unicode="&#57406;" d="M93 498c-3 10-14 16-24 13-11-4-17-14-13-25l146-472c3-10 14-16 24-13 11 4 16 14 13 25z m23 13l73-237c84-11 138 127 244 190 111 67-184-15-317 47z"/>
<glyph unicode="&#57407;" d="M256 188l-81 64-161-142 486 0-162 142z m-255 202l0-265 160 140z m353-125l158-139 0 263z m-165 0l67-52 67 53 15 11 160 125-483 0 159-125z"/>
<glyph unicode="&#57408;" d="M256 91l-81 64-162-142 486 0-162 142z m-256 201l0-265 160 140z m353-125l159-138 0 262z m-31 280l-66 52-67-52-15-12-160-126 483 0-160 126-15 12"/>
<glyph unicode="&#57409;" d="M502 404l-501 0 0-296 511 0 0 296z m-22-18l-145-111-15-10-64-50-64 50-15 10-145 111z m-462-9l143-112-143-125z m16-256l144 129 78-60 78 59 144-128z m460 17l-145 126 145 114z"/>
<glyph unicode="&#57410;" d="M499 309l-149 124 0 0 0 0-15 11-65 55-13 11-13-11-66-55-14-12-149-122-15-11 0-297 512 0 0 297z m-322 107l14 11 67 55 65-56 15-10 142-118-445 0z m-159-145l144-112-144-125z m16-256l143 129 79-60 78 59 143-128z m460 17l-146 127 146 113z"/>
<glyph unicode="&#57411;" d="M332 3c18 5 89 45 67 69-22 24-44 48-66 72-19 21-60-10-68-32-52 76-79 175-74 268 16-8 65-23 71 2 8 32 15 65 23 97 7 30-60 35-80 33-48-6-74-53-86-96-31-118 10-269 91-360 30-33 75-66 122-53"/>
<glyph unicode="&#57412;" d="M333 294l0 23c0 8-7 15-15 15l-126 0c-9 0-16-7-16-15l0-24c-81-43-130-136-130-136-30-57-2-102 61-102l298 0c63 0 91 45 61 101 0 0-50 96-133 138z m-77-190c-40 0-72 32-72 72 0 39 32 72 72 72 39 0 71-33 71-72 0-40-32-72-71-72z m-1 125c-30 0-53-24-53-54 0-29 23-53 53-53 29 0 52 24 52 53 0 30-23 54-52 54m194 185c-96 56-274 57-373 8-36-18-76-49-76-93 0-16 18-88 44-75 27 13 53 27 79 40 23 11 6 55-12 67 80 26 209 26 289-1-11-11-36-51-16-62 27-14 53-29 80-43 24-14 44 43 47 61 7 43-28 78-62 98"/>
<glyph unicode="&#57413;" d="M358 138c-11-1-49-68-72-69-7-1-10 4-10 10-1 12 6 32 10 44l47 153c24 76-12 94-46 92-44-3-83-27-112-58-10-11-42-45-41-59 0-4 5-9 11-9 13 1 47 70 75 71 6 1 14-6 9-20l-46-138c-5-14-28-78-26-115 2-29 22-41 50-40 77 4 162 105 161 127 0 7-6 11-10 11m-41 259c35 2 63 30 61 65-2 32-25 52-56 50-34-2-62-31-60-65 2-32 24-52 55-50"/>
<glyph unicode="&#57414;" d="M321 190l0-162c0-16-13-28-28-28l-211 0c-15 0-27 12-27 28l0 456c0 16 12 28 27 28l211 0c15 0 28-12 28-28l0-79c75-1 137-48 137-107 0-59-62-107-137-108z m-18 214l0 39-231 0 0-356 231 0 0 104c-12 1-23 3-33 6-20-16-52-23-53-22-2 1 12 13 22 35-36 20-58 52-58 88 0 55 53 100 122 106z m-118 84c4 0 7-3 7-6 0-3-3-6-7-6-3 0-5 3-5 6 0 3 2 6 5 6z m-22-25c0 2-2 6 1 6l44 0c2 0 4-4 4-6l0 0c0-1-2-3-4-3l-44 0c-3 0-1 2-1 3z m22-443c-13 0-23 11-23 24 0 13 10 24 23 24 14 0 25-11 25-24 0-13-11-24-25-24z"/>
<glyph unicode="&#57415;" d="M256 469c-141 0-256-89-256-199 0-66 42-125 107-161-18-41-42-64-40-66 2-1 61 12 98 42 29-9 59-13 91-13 141 0 256 89 256 198 0 110-115 199-256 199"/>
<glyph unicode="&#57416;" d="M256 469c-141 0-255-89-255-199 0-66 42-125 107-162-19-40-43-64-41-65 3-2 61 12 99 41 28-8 58-12 90-12 141 0 256 89 256 198 0 110-115 199-256 199z m-110-234c-20 0-37 16-37 36 0 20 17 36 37 36 20 0 36-16 36-36 0-20-16-36-36-36z m112 0c-20 0-36 16-36 36 0 20 16 36 36 36 21 0 37-16 37-36 0-20-16-36-37-36z m113 0c-20 0-36 16-36 36 0 20 16 36 36 36 20 0 37-16 37-36 0-20-17-36-37-36z"/>
<glyph unicode="&#57417;" d="M379 361c0 18-14 32-31 32l-291 0c-18 0-32-14-32-32l0-210c0-18 14-32 32-32l291 0c17 0 31 14 31 32z m123-6l10 0 0-204-10 0z m-116-137l109-65 0 200-109-65z m-369 129l-11 0c-3 0-5-2-5-5l0-32c0-3 2-5 5-5l11 0c0 0 0 1 0 2l0 39c0 0 0 1 0 1"/>
<glyph unicode="&#57418;" d="M328 312l0-45 103 0 0-222-350 0 0 222 105 0 0 45-150 0 0-312 440 0 0 312z m-95 125l0-253 47 0 0 253 88-78 30 27-142 126-141-126 30-27z"/>
<glyph unicode="&#57419;" d="M395 95l-350 0 0 221 108 0 0 45-152 0 0-311 439 0 0 161-45 0z m-11 213l0-48 128 101-128 101 0-44c-113-11-202-107-202-223 0-8 1-15 1-22 22 72 102 127 201 135z"/>
<glyph unicode="&#57420;" d="M493 360l-213 152 0-85c-105-5-203-70-243-174-34-87-19-182 31-253-19 49-22 103-3 152 32 83 117 134 215 139l0-83 213 152"/>
<glyph unicode="&#57421;" d="M512 269l-256 238-256-238 66 0 0-264 380 0 0 264 66 0"/>
<glyph unicode="&#57422;" d="M512 269l-256 240-256-240 66 0 0-266 130 0 0 149c0 8 5 15 12 15l95 0c7 0 13-7 13-15l0-149 130 0 0 266 66 0"/>
<glyph unicode="&#57423;" d="M512 269l-104 97 0 107-68 0 0-42-84 78-256-240 66 0 0-266 380 0 0 266 66 0"/>
<glyph unicode="&#57424;" d="M512 269l-104 97 0 107-68 0 0-43-84 79-256-240 66 0 0-266 130 0 0 149c0 8 5 15 12 15l95 0c7 0 13-7 13-15l0-149 130 0 0 266 66 0"/>
<glyph unicode="&#57425;" d="M255 507l-3-3 3 2z m251-238l-250 223-255-228 39-35 216 193 216-193 40 35z m-112 13l-138 124-190-170 0-231 378 0 0 234z"/>
<glyph unicode="&#57426;" d="M255 507l-3-3 3 2z m251-238l-250 223-255-228 39-35 216 193 216-193 40 35z m-112 13l-138 124-190-170 0-231 129 0 0 148c0 7 6 14 13 14l94 0c6 0 13-7 13-14l0-148 129 0 0 234z"/>
<glyph unicode="&#57427;" d="M388 475l-68 0 0-24 68-61z m118-207l-250 223-256-228 39-35 217 194 217-194 39 35z m-111 15l-139 123-190-169 0-232 378 0 0 234z m-140 223l-3-3 3 3 0 0"/>
<glyph unicode="&#57428;" d="M388 475l-68 0 0-24 68-61z m118-207l-250 223-256-228 39-35 217 194 217-194 39 35z m-111 15l-139 123-190-169 0-232 129 0 0 148c0 8 6 15 13 15l94 0c7 0 13-7 13-15l0-148 129 0 0 234z m-140 223l-3-3 3 3 0 0"/>
<glyph unicode="&#57429;" d="M46 334l0-218-19 0 0-17 458 0 0 17-32 0 0 218z m125-70l50 0 0-36-50 0z m0-51l50 0 0-37-50 0z m-65 51l50 0 0-36-50 0z m0-51l50 0 0-37-50 0z m180 41c0 6 5 10 10 10l78 0c5 0 11-4 11-10l0-138-99 0z m-285-162l511 0 0-20-511 0z m409 348l-308 0-101-94 511 0-102 94"/>
<glyph unicode="&#57430;" d="M425 322c-11 0-21 4-28 12-7-8-17-12-28-12-11 0-21 4-28 12-7-8-17-12-28-12-11 0-22 4-28 12-7-8-17-12-29-12-11 0-21 4-28 12-7-8-17-12-28-12-11 0-21 4-28 12-7-8-17-13-28-13-11 0-21 5-28 13-7-8-17-13-28-13-11 0-22 5-28 13-4-4-9-8-14-10l0-217-19 0 0-17 458 0 0 17-32 0 0 227c-7-8-17-12-28-12z m-254-67l50 0 0-36-50 0z m0-51l50 0 0-37-50 0z m-65 51l50 0 0-36-50 0z m0-51l50 0 0-37-50 0z m180-97l0 138c0 6 5 10 10 10l78 0c5 0 11-4 11-10l0-138z m-254 227c5 0 10 1 14 3 7 4 12 11 14 19 3-13 14-22 28-22 14 0 25 9 28 22 3-13 15-22 28-22 14 0 26 9 29 22 3-13 14-22 28-22 13 0 25 9 28 22 3-13 14-22 28-22 14 0 25 9 28 22 3-13 15-22 28-22 14 0 25 9 28 22 3-13 15-22 29-22 13 0 25 9 28 22 3-13 14-22 28-22 13 0 24 9 28 20 0 1 0 2 0 2 3-13 15-23 28-23 14 0 26 11 29 22l-100 93-309 0-99-93c3-11 15-21 29-21m353-250l-384 0 0-20 511 0 0 20-127 0"/>
<glyph unicode="&#57431;" d="M269 285l0 17 19 0 0 42-29 0 0 53-25 0 0 26-26 0 0 29-9 0 0 60-8 0 0-60-12 0 0-29-25 0 0-26-24 0 0-53-27 0 0-335 145 0 0 54-18 0 0 24 18 0 0 22-18 0 0 24 18 0 0 22-18 0 0 23 18 0 0 23-18 0 0 23 18 0 0 23-18 0 0 23 18 0 0 15z m-109 94l26 0 0-21-26 0z m-29-293l30 0 0-24-30 0z m0 46l30 0 0-24-30 0z m0 46l30 0 0-24-30 0z m0 46l30 0 0-24-30 0z m0 46l30 0 0-24-30 0z m0 46l30 0 0-24-30 0z m50-230l30 0 0-24-30 0z m0 46l30 0 0-24-30 0z m0 46l30 0 0-24-30 0z m0 46l30 0 0-24-30 0z m0 46l30 0 0-24-30 0z m0 46l30 0 0-24-30 0z m23 63l26 0 0-21-26 0z m27-63l30 0 0-24-30 0z m156-43l0 18-107 0 0-18-21 0 0-273 151 0 0 273z m-107-220l25 0 0-20-25 0z m0 39l25 0 0-20-25 0z m0 39l25 0 0-20-25 0z m0 39l25 0 0-20-25 0z m0 40l25 0 0-20-25 0z m0 38l25 0 0-20-25 0z m43-195l25 0 0-20-25 0z m0 39l25 0 0-20-25 0z m0 39l25 0 0-20-25 0z m0 39l25 0 0-20-25 0z m0 40l25 0 0-20-25 0z m0 38l25 0 0-20-25 0z m42-195l25 0 0-20-25 0z m0 39l25 0 0-20-25 0z m0 39l25 0 0-20-25 0z m0 39l25 0 0-20-25 0z m0 40l25 0 0-20-25 0z m0 38l25 0 0-20-25 0z"/>
<glyph unicode="&#57432;" d="M359 229l0 13 16 0 0 30-22 0 0 107-18 0 0 32-20 0 0 34-8 0 0 67-5 0 0-67-10 0 0-34-18 0 0-32-19 0 0-107-21 0 0-104 21 0 0 12 23 0 0-17-9 0 0-5 17 0 0-141 56 0 0 41-11 0 0 18 11 0 0 17-11 0 0 18 11 0 0 17-11 0 0 18 11 0 0 17-11 0 0 17 11 0 0 18-11 0 0 17 11 0 0 14z m-104-14l23 0 0-18-23 0z m0 35l23 0 0-18-23 0z m26 103l18 0 0-14-18 0z m0-25l18 0 0-14-18 0z m0-26l18 0 0-14-18 0z m12-227l23 0 0-18-23 0z m0 35l23 0 0-18-23 0z m0 35l23 0 0-18-23 0z m0 35l23 0 0-18-23 0z m0 35l23 0 0-18-23 0z m0 35l23 0 0-18-23 0z m17 52l18 0 0-14-18 0z m0 26l18 0 0-14-18 0z m0 25l18 0 0-14-18 0z m21-103l23 0 0-18-23 0z m-70-91l-81 0 0-10-17 0 0-149 115 0 0 149-17 0z m-80-119l31 0 0-15-31 0z m0 30l31 0 0-15-31 0z m0 30l31 0 0-15-31 0z m0 29l31 0 0-15-31 0z m49-89l31 0 0-15-31 0z m0 30l31 0 0-15-31 0z m0 30l31 0 0-15-31 0z m0 29l31 0 0-15-31 0z m-59 29l0 9 16 0 0 104-22 0 0 28-18 0 0 20-20 0 0 22-8 0 0 25-5 0 0-25-10 0 0-22-18 0 0-20-19 0 0-28-21 0 0-255 108 0 0 41-11 0 0 18 11 0 0 17-11 0 0 18 11 0 0 17-11 0 0 18 11 0 0 13z m-104-83l23 0 0-18-23 0z m0 35l23 0 0-18-23 0z m0 35l23 0 0-18-23 0z m0 35l23 0 0-18-23 0z m0 35l23 0 0-18-23 0z m0 35l23 0 0-18-23 0z m38-175l23 0 0-18-23 0z m0 35l23 0 0-18-23 0z m0 35l23 0 0-18-23 0z m0 35l23 0 0-18-23 0z m0 35l23 0 0-18-23 0z m0 35l23 0 0-18-23 0z m38 0l23 0 0-18-23 0z m0-35l23 0 0-18-23 0z m0-35l23 0 0-18-23 0z m306 41l0 13-81 0 0-13-17 0 0-208 115 0 0 208z m-82-169l19 0 0-15-19 0z m0 30l19 0 0-15-19 0z m0 30l19 0 0-15-19 0z m0 30l19 0 0-15-19 0z m0 29l19 0 0-15-19 0z m0 30l19 0 0-15-19 0z m33-149l19 0 0-15-19 0z m0 30l19 0 0-15-19 0z m0 30l19 0 0-15-19 0z m0 30l19 0 0-15-19 0z m0 29l19 0 0-15-19 0z m0 30l19 0 0-15-19 0z m32-149l19 0 0-15-19 0z m0 30l19 0 0-15-19 0z m0 30l19 0 0-15-19 0z m0 30l19 0 0-15-19 0z m0 29l19 0 0-15-19 0z m0 30l19 0 0-15-19 0z"/>
<glyph unicode="&#57433;" d="M307 263l0 111-20 0 0 34-21 0 0 35-7 0 0 69-6 0 0-69-10 0 0-35-19 0 0-34-19 0 0-111-22 0 0-263 58 0 0 39 30 0 0-39 58 0 0 263z m-76 86l18 0 0-14-18 0z m0-27l18 0 0-14-18 0z m-26-226l23 0 0-19-23 0z m0 36l23 0 0-19-23 0z m0 36l23 0 0-19-23 0z m0 36l23 0 0-19-23 0z m0 36l23 0 0-19-23 0z m26 56l18 0 0-15-18 0z m13-200l23 0 0-19-23 0z m0 36l23 0 0-19-23 0z m0 36l23 0 0-19-23 0z m0 36l23 0 0-19-23 0z m0 36l23 0 0-19-23 0z m18 56l18 0 0-15-18 0z m0 26l18 0 0-14-18 0z m0 27l18 0 0-14-18 0z m22-253l23 0 0-19-23 0z m0 36l23 0 0-19-23 0z m0 36l23 0 0-19-23 0z m0 36l23 0 0-19-23 0z m0 36l23 0 0-19-23 0z"/>
<glyph unicode="&#57434;" d="M256 511c-141 0-255-114-255-255 0-141 114-256 255-256 141 0 256 115 256 256 0 141-115 255-256 255z m22-466l0 69-44 0 0-69c-99 11-178 89-188 188l67 0 0 44-67 0c9 100 89 179 188 189l0-68 44 0 0 68c99-10 179-89 189-189l-69 0 0-44 68 0c-10-99-89-177-188-188z"/>
<glyph unicode="&#57435;" d="M471 274c-8 105-92 188-196 197l0 41-37 0 0-41c-104-9-188-92-196-197l-41 0 0-36 41 0c9-104 92-187 196-196l0-42 37 0 0 42c104 9 187 92 196 196l41 0 0 36z m-38-37c-9-83-75-149-159-158l0 58-36 0 0-58c-84 9-150 75-159 158l56 0 0 37-56 0c8 84 75 151 159 160l0-58 36 0 0 58c84-9 151-76 160-160l-59 0 0-37z"/>
<glyph unicode="&#57436;" d="M471 274c-8 105-92 188-196 197l0 41-37 0 0-41c-104-9-188-92-196-197l-41 0 0-36 41 0c9-104 92-187 196-196l0-42 37 0 0 42c104 9 187 92 196 196l41 0 0 36z m-233 160l0-56c-54-8-96-50-104-104l-55 0c8 84 75 151 159 160z m1-354c-84 9-151 75-159 158l55 0c8-53 50-95 104-103z m-1 129l0-50c-39 8-71 39-78 78l50 0 0 37-50 0c7 40 38 71 78 79l0-51 37 0 0 51c40-8 71-39 79-79l-51 0 0-37 50 0c-7-39-39-70-78-78l0 50z m38-129l0 55c53 8 95 50 103 103l56 0c-9-83-76-149-159-158z m103 194c-8 54-50 96-103 104l0 56c83-9 150-76 159-160z"/>
<glyph unicode="&#57437;" d="M362 511l-212 0-149-149 0-212 149-150 212 0 150 150 0 212z m-219-306c-7-6-18-9-31-9-14 0-25 3-33 9-7 7-11 15-11 26l20 0c1-5 2-8 4-11 4-4 10-6 19-6 5 0 10 0 13 1 6 3 9 7 9 13 0 3-1 6-4 8-3 1-8 3-15 4l-11 3c-11 2-19 5-23 8-7 5-11 12-11 23 0 9 4 17 11 23 7 6 17 9 30 9 11 0 21-2 29-8 8-6 12-15 12-26l-21 0c0 6-3 11-8 14-4 1-8 2-13 2-6 0-11-1-14-3-4-2-5-6-5-10 0-3 1-6 5-8 2-1 6-3 14-4l18-5c8-2 14-4 18-7 6-5 9-12 9-22 0-9-3-17-11-24z m103 80l-32 0 0-87-22 0 0 87-31 0 0 19 85 0z m91-77c-8-8-20-12-35-12-15 0-26 4-34 12-10 10-16 24-16 43 0 19 6 34 16 43 8 8 19 13 34 13 15 0 27-5 35-13 10-9 16-24 16-43 0-19-6-33-16-43z m103 36c-6-5-15-8-27-8l-21 0 0-38-22 0 0 106 45 0c10 0 18-3 25-9 6-5 9-13 9-25 0-12-3-21-9-26z m-17 38c-3 2-7 3-12 3l-19 0 0-31 19 0c5 0 9 1 12 4 3 2 4 6 4 12 0 5-1 9-4 12z m-121 6c-8 0-15-3-20-10-5-6-8-15-8-27 0-12 3-21 8-27 5-7 12-10 20-10 9 0 16 3 21 10 5 6 8 15 8 27 0 12-3 21-8 27-5 7-12 10-21 10"/>
<glyph unicode="&#57438;" d="M502 372l-130 130-9 9-212 0-10-9-131-130-9-10 0-211 9-10 131-131 10-10 212 0 9 10 130 131 10 10 0 211z m-24-207l-129-131-184 0-131 131 0 184 131 129 184 0 129-129z m-94 71l21 0c11 0 20 2 26 7 6 5 9 14 9 26 0 11-3 20-9 25-7 5-15 8-25 8l-44 0 0-103 22 0z m0 48l19 0c5 0 8-1 11-3 3-3 4-6 4-12 0-5-1-9-4-11-3-3-6-4-11-4l-19 0z m-55 9c-7 8-19 12-33 12-15 0-26-4-34-12-11-9-16-23-16-42 0-19 5-33 16-43 8-8 19-12 34-12 14 0 26 4 33 12 11 10 16 24 16 43 0 19-5 33-16 42z m-13-69c-5-7-12-10-20-10-9 0-16 3-21 10-5 6-7 15-7 27 0 11 2 20 7 26 5 7 12 10 21 10 8 0 15-3 20-10 5-6 7-15 7-26 0-12-2-21-7-27z m-159 60l30 0 0-85 22 0 0 85 31 0 0 18-83 0z m-16-34c-4 3-10 6-18 8l-18 4c-7 2-12 3-14 4-3 2-5 5-5 8 0 4 2 8 5 10 4 2 8 3 14 3 5 0 9-1 13-2 5-3 8-8 8-14l21 0c-1 11-5 20-13 25-7 6-17 9-28 9-13 0-23-3-30-9-6-6-10-14-10-23 0-10 4-18 11-22 4-3 11-6 22-8l11-3c7-1 12-3 15-5 3-1 4-4 4-8 0-5-3-9-9-11-3-2-7-2-13-2-8 0-14 2-18 6-2 2-3 6-4 11l-21 0c0-11 4-19 12-26 8-6 19-9 32-9 13 0 24 3 31 10 7 6 11 14 11 23 0 9-3 16-9 21z"/>
<glyph unicode="&#57439;" d="M250 2c0-1 1-2 2-2l25 0c1 0 2 1 2 2l0 234-29 6z m29 508c0 1-1 1-2 1l-25 0c-1 0-2 0-2-1l0-60 29 4z m0-132l-29-5 0-54 29-6z m83 20c1 0 1 1 1 2l0 57c0 1 0 2-1 2l-187-28c0 0 0 0-1-1l-45-35c-2-1-2-3 0-3l45-22c1-1 1-1 1-1z m22-144l-46 39c0 0 0 0 0 0l-187 38c-1 0-1 0-1-1l0-58c0-1 0-2 1-2l187-38c0 0 0 0 0 0l46 19c1 0 1 2 0 3z"/>
<glyph unicode="&#57440;" d="M241 2c0-1 0-2 1-2l25 0c1 0 2 1 2 2l0 261-28 0z m0 370l28 0 0-32-28 0z m28 139c0 1-1 1-2 1l-25 0c-1 0-1 0-1-1l0-63 28 0z m100-131c1 0 1 0 1 1l0 58c0 1 0 2-1 2l-219 0c-1 0-1 0-1 0l-55-29c-2-1-2-3 0-4l55-28c0 0 0 0 1 0z m50-77l-55 29c-1 0-1 0-1 0l-225 0c-1 0-1-1-1-2l0-57c0-2 0-3 1-3l225 0c0 0 0 0 1 1l55 28c1 1 1 3 0 4z"/>
<glyph unicode="&#57441;" d="M512 177l0 21-124 91c1 5 1 10 2 14l3 26c0 3-2 5-4 5l-38 0c-3 0-5-2-4-5l1-12-57 39c-3 99-18 124-35 124-17 0-32-25-35-124l-57-39 1 12c1 3-1 5-4 5l-38 0c-2 0-4-2-4-5l3-26c1-4 1-9 2-14l-123-91 0-21 222 76c4-56 11-114 18-159l-66-40 0-17 73 15c1-6 2-11 3-16 1-5 9-5 10 0 1 5 2 10 3 16l73-15 0 17-66 40c7 45 14 103 18 159l223-76"/>
<glyph unicode="&#57442;" d="M506 202l-68 50c0 5 1 9 1 13l3 20c0 2-1 4-3 4l-30 0c-2 0-3-2-3-4l2-10-34 25c0 4 0 7 1 11l2 19c1 2-1 4-3 4l-29 0c-2 0-3-2-3-4l1-9-52 35c-3 99-18 124-35 124-17 0-32-25-35-124l-52-35 1 9c0 2-1 4-3 4l-29 0c-2 0-4-2-3-4l2-19c1-4 1-7 1-11l-34-25 2 10c0 2-1 4-3 4l-30 0c-2 0-3-2-3-4l3-20c0-4 1-8 1-13l-68-50c-3-3-5-7-5-12l0-11c0-1 1-2 2-1l57 19 1-3c0-2 2-2 2 0l1 5 43 14 1-5c0-2 2-2 2 0l1 7 27 9 1-5c0-3 2-3 2 0l1 6 38 13 1-6c0-2 2-2 2 0l1 8 19 6 0-6c1-2 3-2 3 0l1 8 16 5c4-56 11-113 18-157l-62-31c-3-2-4-5-4-8l0-10c0-1 1-2 2-1l71 7c1-6 2-12 3-17 1-5 9-5 10 0 1 5 2 11 3 17l71-7c1-1 2 0 2 1l0 10c0 3-1 6-4 8l-62 31c7 44 14 101 18 157l17-6 1-7c0-2 2-2 2 0l1 6 18-6 1-8c1-2 2-2 3 0l1 6 38-13 0-6c1-3 3-3 3 0l1 5 27-9 0-7c1-2 3-2 3 0l1 5 43-15 0-4c1-2 3-2 3 0l0 3 57-19c1-1 3 0 3 1l0 11c0 5-3 9-6 12"/>
<glyph unicode="&#57443;" d="M496 16l-116 172c8 14 14 29 16 45l116 23-116 23c-10 60-57 107-117 117l-23 115-23-115c-16-3-31-8-45-16l-172 116 116-172c-8-14-13-29-16-45l-115-23 115-23c10-60 57-107 117-117l23-116 23 116c16 3 31 8 45 16z m-240 355c63 0 115-52 115-115 0-15-3-29-8-42l-49 72-28 28-72 49c13 5 27 8 42 8z m22-115c0-12-10-22-22-22-12 0-22 10-22 22 0 12 10 22 22 22 12 0 22-10 22-22z m-22-115c-63 0-115 52-115 115 0 15 3 29 8 42l49-72 28-28 72-49c-13-5-27-8-42-8z"/>
<glyph unicode="&#57444;" d="M256 511c-141 0-255-114-255-255 0-141 114-256 255-256 141 0 255 115 255 256 0 141-114 255-255 255z m-17-142c-27 2-50 6-72 14 18 36 42 65 72 84z m0-36l0-59-100 0c1 27 7 52 15 76 26-9 54-15 85-17z m0-95l0-58c-31-2-59-8-86-17-8 23-13 49-14 75z m0-94l0-100c-30 19-54 49-72 85 22 8 45 13 72 15z m34 0c26-2 50-7 72-15-18-36-43-66-72-85z m0 36l0 58 100 0c-1-26-7-52-14-75-27 9-55 15-86 17z m0 94l0 59c31 2 59 8 85 17 8-24 14-49 15-76z m0 95l0 98c29-19 54-48 71-84-22-8-45-12-71-14z m63 91c27-10 50-26 71-45-9-6-19-12-29-18-11 24-25 45-42 63z m-202-63c-10 6-20 12-29 18 21 19 44 35 70 45-16-18-30-39-41-63z m-14-33c-9-28-15-59-17-90l-65 0c3 43 19 82 43 115 12-9 25-18 39-25z m-17-126c1-32 7-62 17-89-14-8-27-16-39-25-24 32-40 72-43 114z m30-123c11-23 25-44 41-63-26 11-49 26-69 45 9 7 18 13 28 18z m246 0c10-5 19-11 28-18-20-19-43-34-69-45 16 19 30 40 41 63z m13 34c10 27 15 57 17 89l65 0c-3-42-19-82-43-114-12 9-25 17-39 25z m17 125c-2 31-8 62-17 90 14 7 27 16 39 25 24-33 40-72 43-115z"/>
<glyph unicode="&#57445;" d="M69 356c0 5-3 9-8 9-4 0-8-4-8-9l0-2c6 1 11 1 16 1z m414-27l0-90c17 8 29 29 29 48l0 1c0 19-12 35-29 41z m-380-293l71 0c8 0 9 13 9 25l0 1c0 8-14 32-24 48l-22 102c-23 3-46 5-71 6z m368 422c0 10-9 18-18 18-3 0-7-1-10-4-96-66-185-104-288-121l0-130c103-16 192-54 288-121 3-2 7-3 10-3 9 0 18 7 18 18z m-329-235l0 127c-36-6-75-9-116-9-3 0-5-1-7-1l-1 0c-9 0-17-6-17-16l0-75c0-10 8-18 17-18l1 0c2 0 4 0 7 0 41 0 80-3 116-8z"/>
<glyph unicode="&#57446;" d="M486 411c0 3 1 5 1 7l-465-131 0-62 121-35c0 0 0 0 0 0l0-1c-6-20 5-41 25-47l53-16c4-1 8-2 11-2 17 0 32 11 37 27l0 1c0 1 0 2 1 3l217-62c0 2-1 5-1 8z m-231-255l0 0c-3-10-12-17-23-17-2 0-4 0-6 1l-53 16c-13 3-20 17-16 29l0 1c0 0 0 0 0 0l99-27c-1-1-1-2-1-3z m254 274l-9 0c-3 0-7-8-7-19l0-310c0-11 4-19 7-19l9 0c2 0 2 8 2 19l0 310c0 11 0 19-2 19m-495-136l-9 0c-2 0-4-2-4-5l0-66c0-3 2-5 4-5l9 0c3 0 5 2 5 5l0 66c0 3-2 5-5 5"/>
<glyph unicode="&#57447;" d="M324 217c28-16 52-44 68-77l119 0c-11 49-40 90-78 111-17-15-38-25-62-25-13 0-25 3-36 8-3-6-7-12-11-17z m26 71c0-15-3-29-9-42 9-4 20-7 30-7 18 0 35 7 49 19 19 16 32 43 32 72 0 50-36 91-81 91-29 0-55-17-69-43 28-18 48-51 48-90z m-161-72l2 1c-5 5-9 11-13 17-11-5-24-8-37-8-23 0-45 10-62 26-38-22-67-63-78-112l120 0c17 33 40 60 68 76z m22 161c-15 26-40 44-70 44-44 0-81-41-81-91 0-29 13-56 32-72 14-12 31-19 49-19 11 0 22 3 31 7-5 13-8 27-8 42 0 38 19 71 47 89z m127-89c0 50-36 91-81 91-45 0-81-41-81-91 0-29 13-56 32-72 14-12 31-19 49-19 18 0 35 7 49 19 19 16 32 43 32 72z m-221-197l280 0c-11 49-40 94-78 115-17-16-38-24-62-24-24 0-45 7-62 23-38-21-67-65-78-114z"/>
<glyph unicode="&#57448;" d="M511 308c0 61-64 110-142 110-34 0-65-9-90-24 16-7 30-15 43-25 16-13 28-27 38-42 2 1 5 1 7 1 11 0 20-9 20-20 0-8-4-15-10-18 3-11 4-22 4-34 0-20-5-40-14-59 0 0 1 0 2 0 17 0 34 3 50 7 21-16 53-24 55-23 1 1-13 14-23 37 36 20 60 53 60 90z m-81-20c-12 0-21 9-21 20 0 11 9 20 21 20 11 0 20-9 20-20 0-11-9-20-20-20z m-247-174c101 0 183 64 183 142 0 79-82 142-183 142-101 0-182-63-182-142 0-47 30-90 76-115-13-29-30-46-29-47 0 0 1 0 1 0 6 0 44 9 70 30 20-6 42-10 64-10z m109 143c0-15-11-27-26-27-14 0-26 12-26 27 0 14 12 26 26 26 15 0 26-12 26-26z m-107 26c15 0 27-12 27-26 0-15-12-27-27-27-14 0-26 12-26 27 0 14 12 26 26 26z m-106-26c0 14 11 26 26 26 14 0 26-12 26-26 0-15-12-27-26-27-15 0-26 12-26 27z"/>
<glyph unicode="&#57449;" d="M352 321l-192 191-64-65 191-191-191-191 64-65 256 256-64 65"/>
<glyph unicode="&#57450;" d="M359 326l-172 172c-19 19-50 19-69 0l-1-1c-19-19-19-50 0-69l173-172-173-172c-19-19-19-50 0-69l1-1c19-19 50-19 69 0l208 207c19 20 19 50 0 70l-36 35"/>
<glyph unicode="&#57451;" d="M38 0l179 0 257 256-90 90-166 166-179 0 256-256z"/>
<glyph unicode="&#57452;" d="M263 256l-149-149c-39-40-12-107 44-107l2 0c17 0 33 7 45 18l193 193c25 25 25 64 0 89l-45 46-148 148c-12 11-28 18-44 18l-2 0c-56 0-84-67-44-107l148-149"/>
<glyph unicode="&#57453;" d="M338 347l-164 165-92-91 165-165-165-165 92-91 256 256-92 91"/>
<glyph unicode="&#57454;" d="M360 357l-137 136c-24 25-65 25-90 0l-55-55 181-182-181-182 55-55c25-25 66-25 90 0l193 192c25 25 25 65 0 90l-56 56"/>
<glyph unicode="&#57455;" d="M241 257l-241-241 271 0 106 105 135 136-239 239-271 0 239-239"/>
<glyph unicode="&#57456;" d="M215 257l-172-172c-32-31-9-85 35-85l148 0c14 0 26 5 36 15l98 97 109 109c20 20 20 51 0 71l-205 205c-10 10-22 15-36 15l-148 0c-44 0-67-54-35-85l170-170"/>
<glyph unicode="&#57457;" d="M321 256l-66 66-123 123-132 0 189-189-189-189 132 0 123 123z m124 66l-122 123-132 0 188-189-189-189 132 0 123 123 66 66z"/>
<glyph unicode="&#57458;" d="M293 236c11 11 11 29 0 40l-53 53-126 127c-6 5-13 8-20 8l-65 0c-25 0-38-31-20-49l159-159-160-159c-18-18-5-49 21-49l64 0c8 0 15 3 20 8l127 127z m157 93l-126 127c-6 5-13 8-21 8l-64 0c-26 0-38-31-20-49l158-159-159-159c-18-18-5-49 21-49l64 0c8 0 15 3 20 8l127 127 53 53c11 11 11 29 0 40z"/>
<glyph unicode="&#57459;" d="M304 256l-142 143-161 0 142-142-143-144 161 0 63 63z m127 81l-62 62-161 0 142-142-143-144 161 0 63 63 80 80z"/>
<glyph unicode="&#57460;" d="M281 240c9 9 9 24 0 33l-131 131c-4 5-10 7-16 7l-110 0c-20 0-31-25-16-40l115-114-116-116c-15-15-4-40 16-40l109 0c7 0 12 2 17 7l61 61z m153 104l-60 60c-4 5-10 7-16 7l-110 0c-20 0-30-25-16-40l115-114-116-116c-15-15-4-40 16-40l109 0c7 0 12 2 17 7l61 61 71 71c9 9 9 24 0 33z"/>
<glyph unicode="&#57461;" d="M34 512l444-256-444-256 0 512"/>
<glyph unicode="&#57462;" d="M105 505l354-204c35-20 35-70 0-90l-354-204c-35-20-78 5-78 45l0 408c0 40 43 65 78 45"/>
<glyph unicode="&#57463;" d="M34 0l444 256-444 256 111-256-111-256"/>
<glyph unicode="&#57464;" d="M81 5l384 221c23 13 23 47 0 60l-384 221c-28 17-62-13-49-43l85-194c3-9 3-19 0-28l-85-194c-13-30 21-60 49-43"/>
<glyph unicode="&#57465;" d="M448 320l-189 189-64-64 137-137-332 0 0-104 333 0-138-137 64-64 253 253-64 64"/>
<glyph unicode="&#57466;" d="M465 322l-163 164c-18 18-48 18-66 0l-1-1c-18-18-18-47 0-66l109-109-298 0c-25 0-46-21-46-46l0-16c0-25 21-46 46-46l299 0-109-110c-19-18-19-47 0-65l0-1c18-18 48-18 66 0l196 197c19 18 19 48 0 66l-33 33"/>
<glyph unicode="&#57467;" d="M448 320l-119 120-129 0 131-131-331 0 0-106 331 0-131-131 128 0 120 120 64 64-64 64"/>
<glyph unicode="&#57468;" d="M467 323l-108 109c-10 10-24 16-39 16l-111 0 137-137-291 0c-31 0-55-24-55-54l0-2c0-30 24-54 55-54l290 0-137-137 112 0c14 0 28 6 39 16l108 109 29 28c21 22 21 56 0 78l-29 28"/>
<glyph unicode="&#57469;" d="M422 347l-69 69-181 0 104-104-276 0 0-113 274 0-103-103 180 0 71 70 90 90-90 91"/>
<glyph unicode="&#57470;" d="M442 351l-56 55c-11 11-25 17-41 17l-165 0 109-109-231 0c-32 0-58-26-58-58l0-1c0-32 26-58 58-58l229 0-108-109 165 0c15 0 30 7 41 17l57 57 53 53c23 23 23 60 0 82l-53 54"/>
<glyph unicode="&#57471;" d="M512 256l-306 176 0-102-206 0 0-152 206 0 0-99 306 177"/>
<glyph unicode="&#57472;" d="M500 278l-246 142c-17 9-38-3-38-22l0-64-137 0c-44 0-79-35-79-79l0-2c0-44 35-79 79-79l137 0 0-60c0-19 21-31 38-22l246 142c16 10 16 34 0 44"/>
<glyph unicode="&#57473;" d="M512 256l-306 177 25-103-231 0 0-152 230 0-24-99 306 177"/>
<glyph unicode="&#57474;" d="M498 279l-227 132c-20 12-45-7-40-30l12-47-164 0c-44 0-79-36-79-80l0-1c0-44 35-80 79-80l163 0-10-42c-6-23 19-42 40-30l226 131c19 11 19 37 0 47"/>
<glyph unicode="&#57475;" d="M512 256l-246 142 0-95-266 0 0-97 266 0 0-93 246 143"/>
<glyph unicode="&#57476;" d="M512 256l-246 142 0-95-222 0c-24 0-44-19-44-43l0-11c0-24 20-43 44-43l222 0 0-93 246 143"/>
<glyph unicode="&#57477;" d="M512 256l-249 144 23-97-286 0 0-98 286 0-23-93 249 144"/>
<glyph unicode="&#57478;" d="M512 256l-249 144 23-97-237 0c-27 0-49-22-49-48l0-1c0-27 22-49 49-49l237 0-23-93 249 144"/>
<glyph unicode="&#57479;" d="M512 435c0 42-35 77-77 77l-358 0c-42 0-77-35-77-77l0-358c0-42 35-77 77-77l358 0c42 0 77 35 77 77l0 358"/>
<glyph unicode="&#57480;" d="M416 512l-320 0c-53 0-95-43-95-95l0-322c0-52 42-95 95-95l320 0c53 0 95 43 95 95l0 322c0 52-42 95-95 95z m79-416c0-44-36-80-80-80l-319 0c-44 0-80 36-80 80l0 321c0 44 36 80 80 80l317 0c45 0 82-37 82-82z m-77 389l-321 0c-39 0-70-31-70-70l0-321c0-39 31-70 70-70l321 0c39 0 70 31 70 70l0 321c0 39-31 70-70 70z"/>
<glyph unicode="&#57481;" d="M416 512l-320 0c-53 0-95-43-95-95l0-322c0-52 42-95 95-95l320 0c53 0 95 43 95 95l0 322c0 52-42 95-95 95z m70-418c0-39-31-70-69-70l-321 0c-38 0-69 31-69 70l0 321c0 39 31 70 69 70l321 0c38 0 69-31 69-70z"/>
<glyph unicode="&#57482;" d="M486 512l-485 0 0-512 510 0 0 512z m9-26l0-470-479 0 0 481 479 0z m-470 1l461 0 0-461-461 0z"/>
<glyph unicode="&#57483;" d="M27 512l-26 0 0-512 510 0 0 512z m0-27l459 0 0-461-459 0z"/>
<glyph unicode="&#57484;" d="M0 34l256 443 256-443-512 0"/>
<glyph unicode="&#57485;" d="M493 66l-237 412-256-445 512 0z m-19-23l-452 0 234 409 234-409z m-436 9l437 0-218 378z"/>
<glyph unicode="&#57486;" d="M275 446l-19 32-256-445 512 0z m-237-390l219 378 218-378z"/>
<glyph unicode="&#57487;" d="M512 256c0-141-115-256-256-256-141 0-255 115-255 256 0 141 114 256 255 256 141 0 256-115 256-256"/>
<glyph unicode="&#57488;" d="M256 512c-141 0-256-115-256-256 0-141 115-256 256-256 141 0 256 115 256 256 0 141-115 256-256 256z m0-497c-134 0-242 108-242 241 0 134 108 242 242 242 133 0 241-108 241-242 0-133-108-241-241-241z m1 473c-128 0-232-104-232-233 0-128 104-232 232-232 128 0 232 104 232 232 0 129-104 233-232 233z"/>
<glyph unicode="&#57489;" d="M256 512c-141 0-256-115-256-256 0-141 115-256 256-256 141 0 256 115 256 256 0 141-115 256-256 256z m1-25c128 0 232-104 232-232 0-128-104-232-232-232-128 0-232 104-232 232 0 128 104 232 232 232z"/>
<glyph unicode="&#57490;" d="M239 505c9 9 25 9 34 0 9-9 26-12 37-5 12 6 26 2 32-10 6-11 22-18 35-16 13 3 25-5 28-18 3-12 15-24 29-24 13-1 22-13 21-26-1-13 9-27 21-31 12-5 18-19 14-31-5-12 0-28 10-36 11-8 13-23 5-33-8-10-8-28 0-38 8-10 6-25-5-33-10-8-15-24-10-36 4-12-2-26-14-31-12-4-22-18-21-31 1-14-8-25-21-26-14 0-26-12-29-24-3-13-15-21-28-18-13 2-29-5-35-16-6-12-20-16-32-10-11 7-28 4-37-5-9-9-25-9-34 0-9 9-26 12-37 5-12-6-26-2-32 10-6 11-22 18-35 16-13-3-25 5-28 18-3 12-15 24-29 24-13 1-22 12-21 26 1 13-9 27-21 31-12 5-18 19-14 31 5 12 0 28-10 36-11 8-13 23-5 33 8 10 8 28 0 38-8 10-6 25 5 33 10 8 15 24 10 36-4 12 2 26 14 31 12 4 22 18 21 31-1 13 8 25 21 26 14 0 26 12 29 24 3 13 15 21 28 18 13-2 29 5 35 16 6 12 20 16 32 10 11-7 28-4 37 5"/>
<glyph unicode="&#57491;" d="M501 259c7 9 10 21 9 33-2 13-9 23-18 30-1 1-2 4-2 5 4 12 4 24-1 35-5 11-14 20-26 24-1 1-3 3-3 4 1 13-2 24-10 34-8 9-20 14-32 15-1 0-3 2-4 4-4 20-23 36-44 36-3 0-7-1-10-2-2 0-4 2-5 3-8 14-23 23-40 23-7 0-15-2-22-5 0 0 0 0-1 0-2 0-3 0-4 1-8 8-20 13-32 13-12 0-24-5-32-14-1 0-2 0-4 0-1 0-1 0-1 0-7 3-15 5-22 5-17 0-32-9-40-23-1-1-3-3-5-3-3 1-7 2-10 2-21 0-40-16-44-36-1-2-3-4-4-4-12-1-24-6-32-15-8-10-11-21-10-34 0-1-2-3-3-4-12-4-21-13-26-24-5-11-5-23-1-35 0-1-1-4-2-5-9-7-16-17-18-30-1-12 2-24 9-33 1-1 1-5 0-6-7-9-10-21-9-33 2-13 9-23 18-30 1-1 2-4 2-5-4-12-4-24 1-35 5-11 14-20 26-24 1-1 3-3 3-4-1-13 2-24 10-34 8-9 20-14 32-15 1 0 3-2 4-4 4-20 23-36 44-36 3 0 7 1 10 2 2 0 4-2 5-3 8-14 23-23 40-23 7 0 15 2 22 5 0 0 0 0 1 0 2 0 3 0 4-1 8-8 20-13 32-13 12 0 24 5 32 14 1 0 2 0 4 0 1 0 1 0 1 0 7-3 15-5 22-5 17 0 32 9 40 23 1 1 3 3 5 3 3-1 7-2 10-2 21 0 40 16 44 36 1 2 3 4 4 4 12 1 24 6 32 15 8 10 11 21 10 34 0 1 2 3 3 4 12 4 21 13 26 24 5 11 5 23 1 35 0 1 1 4 2 5 9 7 16 17 18 30 1 12-2 24-9 33-1 1-1 5 0 6z m-12-13c5-7 7-15 6-24-2-8-6-16-13-21-6-4-9-14-6-21 3-7 3-16-1-24-3-8-10-13-18-16-6-3-12-11-11-19 0-8-2-16-8-23-5-6-13-10-22-10-7-1-15-8-16-15-3-14-16-25-31-25-2 0-4 1-7 1-1 0-2 0-3 0-7 0-14-4-17-9-5-10-16-16-27-16-6 0-11 1-16 3-2 2-5 2-8 2-5 0-10-2-13-5-6-6-14-9-22-9-9 0-17 3-23 9-3 3-8 5-13 5-3 0-6 0-8-2-5-2-10-3-16-3-11 0-22 6-27 16-3 5-10 9-17 9-1 0-2 0-3 0-3 0-5-1-7-1-15 0-28 11-31 25-1 7-9 14-16 15-9 0-17 4-22 10-6 7-8 15-8 23 1 8-5 16-11 19-8 3-15 8-18 16-4 8-4 17-1 24 3 7 0 17-6 21-7 5-11 13-13 21-1 9 1 17 6 24 5 5 5 16 0 21-5 7-7 15-6 24 2 8 6 16 13 21 6 4 9 14 6 21-3 7-3 16 1 24 3 8 10 13 18 16 6 3 12 11 11 19 0 8 2 16 8 23 5 6 13 10 22 10 7 1 15 8 16 15 3 14 16 25 31 25 2 0 4-1 7-1 1 0 2 0 3 0 7 0 14 4 17 9 5 10 16 16 27 16 6 0 11-1 16-3 2-2 5-2 8-2 5 0 10 2 13 5 6 6 14 9 23 9 8 0 16-3 22-9 3-3 8-5 13-5 3 0 6 0 8 2 5 2 10 3 16 3 11 0 22-6 27-16 3-5 10-9 17-9 1 0 2 0 3 0 3 0 5 1 7 1 15 0 28-11 31-25 1-7 9-14 16-15 9 0 17-4 22-10 6-7 8-15 8-23-1-8 5-16 11-19 8-3 15-8 18-16 4-8 4-17 1-24-3-7 0-17 6-21 7-5 11-13 13-21 1-9-1-17-6-24-5-5-5-16 0-21z m-12 57c-9 7-14 22-9 33 4 11-2 24-13 28-1 0-1 0-2 1-1 0-3 1-4 2 0 0-1 1-2 1-1 1-2 2-3 4-1 1-2 2-3 3-1 2-1 3-2 4-1 2-2 5-2 7 0 1 0 3-1 4 0 1 0 2 1 3 0 0 0 1 0 2 0 1-1 3-1 4 0 2-1 4-2 6-1 1-2 2-3 3 0 1-1 2-3 3-1 1-2 2-3 2-1 1-3 1-4 2-1 0-3 0-4 0-12 1-24 11-26 23-2 10-11 17-21 17-1 0-3-1-5-1-1 0-3-1-5-1-10 0-21 6-26 15-4 7-11 11-19 11-3 0-7 0-10-2-4-2-8-3-13-3-8 0-16 2-21 8-4 4-10 6-15 6-5 0-11-2-15-6-5-6-13-8-21-8-5 0-9 1-13 3-3 1-5 2-8 2-1 0-2 0-2 0-8 0-15-4-19-11-5-9-16-15-26-15-2 0-4 1-5 1-2 0-4 1-5 1-10 0-19-7-21-17-2-12-14-22-26-23-10 0-18-8-19-18-1-1-1-2-1-2 0-1 0-2 0-2 1-1 1-2 1-3 0-1-1-3-1-4 0-2-1-5-2-7-1-1-1-2-2-4-1-1-2-2-3-3-1-2-2-3-3-4-1 0-2-1-2-1-1-1-3-2-4-2-1-1-1-1-2-1-11-4-17-17-13-28 5-11 0-26-9-33-10-7-12-20-5-29 8-10 8-25 0-35-7-9-5-22 5-29 9-7 14-22 9-33-4-11 2-24 13-28 11-4 19-17 18-29-1-11 8-22 20-22 12-1 24-11 26-23 1-5 4-9 8-12 1-1 2-1 3-2 3-2 6-3 10-3 1 0 3 1 5 1 1 0 3 1 5 1 10 0 21-6 26-15 4-7 11-11 19-11 3 0 7 0 10 2 4 2 8 3 13 3 8 0 16-2 21-8 4-4 10-6 15-6 5 0 11 2 15 6 5 6 13 8 21 8 2 0 5 0 7 0 2-1 4-2 6-3 2-1 3-1 5-2 2 0 4 0 5 0 8 0 15 4 19 11 5 9 16 15 26 15 2 0 4-1 5-1 2 0 4-1 5-1 3 0 5 1 7 2 2 0 4 2 6 3 4 3 7 7 8 12 2 12 14 22 26 23 12 0 21 11 20 22-1 12 7 25 18 29 11 4 17 17 13 28-5 11 0 26 9 33 10 7 12 20 5 29-8 10-8 25 0 35 7 9 5 22-5 29z"/>
<glyph unicode="&#57492;" d="M510 292c-2 13-9 23-18 30-1 1-2 4-2 5 4 12 4 24-1 35-5 11-14 20-26 24-1 1-3 3-3 4 1 13-2 24-10 34-8 9-20 14-32 15-1 0-3 2-4 4-4 20-23 36-44 36-3 0-7-1-10-2-2 0-4 2-5 3-8 14-23 23-40 23-7 0-15-2-22-5 0 0 0 0-1 0-2 0-3 0-4 1-8 8-20 13-32 13-12 0-24-5-32-14-1 0-2 0-4 0-1 0-1 0-1 0-7 3-15 5-22 5-17 0-32-9-40-23-1-1-3-3-5-3-3 1-7 2-10 2-21 0-40-16-44-36-1-2-3-4-4-4-12-1-24-6-32-15-8-10-11-21-10-34 0-1-2-3-3-4-12-4-21-13-26-24-5-11-5-23-1-35 0-1-1-4-2-5-9-7-16-17-18-30-1-12 2-24 9-33 1-1 1-5 0-6-7-9-10-21-9-33 2-13 9-23 18-30 1-1 2-4 2-5-4-12-4-24 1-35 5-11 14-20 26-24 1-1 3-3 3-4-1-13 2-24 10-34 8-9 20-14 32-15 1 0 3-2 4-4 4-20 23-36 44-36 3 0 7 1 10 2 2 0 4-2 5-3 8-14 23-23 40-23 7 0 15 2 22 5 0 0 0 0 1 0 2 0 3 0 4-1 8-8 20-13 32-13 12 0 24 5 32 14 1 0 2 0 4 0 1 0 1 0 1 0 7-3 15-5 22-5 17 0 32 9 40 23 1 1 3 3 5 3 3-1 7-2 10-2 21 0 40 16 44 36 1 2 3 4 4 4 12 1 24 6 32 15 8 10 11 21 10 34 0 1 2 3 3 4 12 4 21 13 26 24 5 11 5 23 1 35 0 1 1 4 2 5 9 7 16 17 18 30 1 12-2 24-9 33-1 1-1 5 0 6 7 9 10 21 9 33z m-28-54c7-10 5-23-5-30-9-7-14-22-9-33 4-11-2-23-13-27-11-5-19-18-18-29 1-12-8-22-20-23-12-1-24-11-26-23-2-10-11-17-21-17-1 0-3 1-5 1-1 0-3 1-5 1-8 0-16-4-21-9-2-2-4-4-5-6-1-2-2-4-3-5-1-1-1-1-2-1-4-4-9-5-14-5 0 0-1 0-2 0-1 0-2 0-3 0-2 1-3 1-5 2-2 1-4 2-6 3-2 0-5 0-7 0-8 0-16-2-21-8 0 0-1-1-1-1-2-1-3-2-4-3-1 0-1 0-2 0-1-1-3-1-4-2-1 0-3 0-4 0-1 0-3 0-4 0-1 1-3 1-4 2-1 0-1 0-2 0-1 1-2 2-4 3 0 0-1 1-1 1-5 6-13 8-21 8-5 0-9-1-13-3-1 0-2-1-3-1 0 0-1 0-2-1 0 0-1 0-2 0-1 0-2 0-3 0-1 0-2 0-3 0-1 0-2 0-3 0-1 1-2 1-3 1-1 1-3 2-5 3-2 2-4 4-5 7-5 9-16 15-26 15-2 0-4-1-5-1-2 0-4-1-5-1-10 0-19 7-21 17-2 12-14 22-26 23-12 1-21 11-20 23 1 11-7 24-18 29-11 4-17 16-13 27 5 11 0 26-9 33-10 7-12 20-5 30 8 9 8 25 0 34-7 10-5 23 5 30 9 7 14 22 9 33-4 11 2 23 13 27 11 5 19 18 18 29-1 12 8 22 20 23 12 1 24 11 26 23 2 10 11 17 21 17 1 0 3-1 5-1 1 0 3-1 5-1 10 0 21 6 26 15 4 7 11 11 19 11 3 0 7 0 10-2 4-2 8-3 13-3 8 0 16 2 21 8 4 4 10 6 15 6 5 0 11-2 15-6 5-6 13-8 21-8 5 0 9 1 13 3 3 2 7 2 10 2 8 0 15-4 19-11 5-9 16-15 26-15 2 0 4 1 5 1 2 0 4 1 5 1 10 0 19-7 21-17 2-12 14-22 26-23 12-1 21-11 20-23-1-11 7-24 18-29 11-4 17-16 13-27-5-11 0-26 9-33 10-7 12-20 5-30-8-9-8-25 0-34z"/>
<glyph unicode="&#57493;" d="M256 512l24-39 33 33 15-44 39 25 5-46 44 15-6-46 46 6-15-44 46-5-25-39 44-15-33-33 39-24-39-24 33-33-44-15 25-39-46-5 15-44-46 6 6-46-44 15-5-46-39 25-15-44-33 33-24-39-24 39-33-33-15 44-39-25-5 46-44-15 6 46-46-6 15 44-46 5 25 39-44 15 33 33-39 24 39 24-33 33 44 15-25 39 46 5-15 44 46-6-6 46 44-15 5 46 39-25 15 44 33-33 24 39"/>
<glyph unicode="&#57494;" d="M506 199l-33 33 39 24-39 24 33 33-34 11-10 4 25 39-36 4-10 1 15 44-35-5-11-1 6 46-44-15-5 46-39-25-15 44-33-33-24 39-24-39-33 33-15-44-39 25-5-46-44 15 6-46-11 1-35 5 15-44-10-1-36-4 25-39-44-15 33-33-39-24 39-24-33-33 44-15-25-39 36-4 10-1-15-44 35 5 11 1-6-46 44 15 5-46 39 25 15-44 33 33 24-39 24 39 33-33 15 44 39-25 5 46 44-15-6 46 11-1 35-5-15 44 10 1 36 4-25 39z m-63-8l22-36-15-1-27-3 14-40-15 2-26 3 5-41-40 14-4-42-36 22-13-39-30 30-22-36-22 36-30-30-13 39-36-22-4 42-40-14 5 41-26-3-15-2 14 40-27 3-15 1 22 36-25 8-14 5 30 30-36 22 36 22-30 30 39 13-22 36 15 1 27 3-14 40 41-5-5 41 40-14 4 42 36-22 13 39 30-30 22 36 22-36 30 30 13-39 36 22 4-42 40 14-5-41 26 3 15 2-14-40 27-3 15-1-22-36 39-13-30-30 36-22-36-22 30-30z m29 64l-33 21 28 27-37 13 21 33-39 4 13 36-38-4 4 38-36-13-4 39-33-21-13 37-27-28-20 33-21-33-27 28-13-37-33 21-4-39-36 13 4-38-38 4 13-36-39-4 21-33-37-13 28-27-33-21 33-20-28-27 37-13-21-33 39-4-13-36 38 4-4-38 36 13 4-39 33 21 13-37 27 28 21-33 20 33 27-28 13 37 33-21 4 39 36-13-4 38 38-4-13 36 39 4-21 33 37 13-28 27z"/>
<glyph unicode="&#57495;" d="M512 256l-39 24 33 33-44 15 25 39-36 4-10 1 15 44-35-5-11-1 6 46-34-12-10-3-5 46-39-25-15 44-33-33-24 39-24-39-33 33-15-44-39 25-5-46-44 15 6-46-11 1-35 5 15-44-10-1-36-4 25-39-44-15 33-33-39-24 39-24-33-33 44-15-25-39 36-4 10-1-15-44 35 5 11 1-6-46 44 15 5-46 39 25 15-44 33 33 24-39 24 39 33-33 15 44 39-25 5 46 10-3 34-12-6 46 11-1 35-5-15 44 10 1 36 4-25 39 44 15-33 33z m-162-194l-33 21-13-37-27 28-20-33-21 33-27-28-13 37-33-21-4 39-36-13 4 38-38-4 13 36-39 4 21 33-37 13 28 27-33 20 33 21-28 27 37 13-21 33 39 4-13 36 38-4-4 38 36-13 4 39 33-21 13 37 27-28 21 33 20-33 27 28 13-37 33 21 4-39 36 13-4-38 38 4-13-36 39-4-21-33 37-13-28-27 33-21-33-20 28-27-37-13 21-33-39-4 13-36-38 4 4-38-36 13z"/>
<glyph unicode="&#57496;" d="M427 296l29 17-29 17 25 22-31 11 20 26-33 5 14 29-33-1 8 32-32-9 2 33-30-14-4 33-27-20-11 31-22-25-17 29-17-29-22 25-11-31-27 20-4-33-30 14 2-33-32 9 8-32-33 1 14-29-33-5 20-26-31-11 25-22-29-17 29-17-25-22 31-11-20-26 33-5-14-30 33 2-8-32 28 7-6-174 117 107 107-112 7 180 29-8-8 32 33-2-14 30 33 5-20 26 31 11-25 22"/>
<glyph unicode="&#57497;" d="M457 268l-26 23 4 2 26 15-30 17 26 23-33 11 21 27-29 4-5 1 15 30-30-1-4-1 9 33-29-7-4-1 2 34-31-15-5 33-27-20-11 32-23-25-17 29-17-29-23 25-11-32-4 3-23 17-5-33-31 15 2-34-33 8 9-33-4 1-30 1 15-30-34-5 21-27-5-1-28-10 26-23-29-17 29-17-26-23 28-9 5-2-21-27 29-4 5-1-15-30 30 1 4 1-9-33 29 7 2 1-6-167 118 108 108-113 6 172 33-8-9 33 4-1 30-1-15 30 5 1 29 4-21 27 5 2z m-49-6l18-24-12-2-18-2 13-28-12 1-18 1 7-30-28 7-6-161-99 103-107-98 6 156-27-7 7 30-18-1-12-1 13 28-18 2-12 2 18 24-29 10 23 21-26 15 26 16-23 20 29 11-18 24 12 2 18 2-13 28 12-1 18-1-7 30 29-8-1 31 27-13 5 30 24-19 10 29 21-22 16 26 15-26 21 22 10-29 24 19 5-30 27 13-1-31 29 8-7-30 18 1 12 1-13-28 18-2 12-2-18-24 29-11-23-20 27-16-27-15 23-21z m17 45l-25 15 21 18-26 10 17 22-28 4 12 26-28-2 7 27-28-7 2 28-26-12-3 28-23-17-9 27-19-21-14 24-15-24-19 21-9-27-23 17-3-28-26 12 2-28-28 7 7-27-28 2 12-26-28-4 17-22-26-10 21-18-24-15 24-14-21-19 26-9-17-23 28-4-12-25 28 2 0 0-7-28 24 7-5-149 100 91 91-95 5 153 26-7-7 28 0 0 28-2-12 25 28 4-17 23 26 9-21 19z"/>
<glyph unicode="&#57498;" d="M461 308l-26 15-4 2 26 23-33 11 21 27-29 4-5 1 15 30-30-1-4-1 9 33-29-7-4-1 2 34-31-15-5 33-27-20-11 32-23-25-17 29-17-29-23 25-11-32-27 20-5-33-31 15 2-34-4 1-29 7 9-33-4 1-30 1 15-30-5-1-29-4 21-27-5-1-28-10 26-23-29-17 25-15 4-2-26-23 28-9 5-2-21-27 29-4 5-1-15-30 30 1 4 1-9-33 29 7 2 1-6-167 118 108 108-113 4 140 2 28 0 4 4-1 29-7-9 33 4-1 30-1-15 30 5 1 29 4-21 27 33 11-26 23 4 2z m-110-114l-5-153-91 95-100-91 5 149-24-7 7 28-28-2 12 25-28 4 17 23-26 9 21 19-24 14 24 15-21 18 26 10-17 22 28 4-12 26 28-2-7 27 28-7-2 28 26-12 3 28 23-17 9 27 19-21 15 24 14-24 19 21 9-27 23 17 3-28 26 12-2-28 28 7-7-27 28 2-12-26 28-4-17-22 26-10-21-18 25-15-25-14 21-19-26-9 17-23-28-4 12-25-28 2 7-28z"/>
<glyph unicode="&#57499;" d="M293 133l11 30 25-19 5 31 28-14-1 32 30-8-8 31 9-1 23-1-14 29 32 4-19 26 30 10-24 21 28 16-28 17 24 21-30 10 19 26-32 4 14 29-32-2 8 31-30-8 1 32-28-14-5 31-25-19-11 30-21-23-16 27-16-27-21 23-11-30-25 19-5-31-28 14 1-32-30 8 8-31-32 2 14-29-32-4 19-26-30-10 24-21-27-17 27-16-24-21 30-10-19-26 32-4-14-29 24 2 8 0-8-31 30 8-1-32 28 14 5-31 25 19 11-30 21 23 16-27 16 27z m79 45l2-36-32 16-5-35-29 21-12-34-23 27-8-14 38-123 47 95 95-53-40 127z m-157-68l-12 34-29-21-4 35-33-16 2 36-32-8-39-128 94 53 48-95 38 122-9 15z"/>
<glyph unicode="&#57500;" d="M448 278l-22 20-2 1 2 2 26 15-28 17 2 1 22 20-31 11 20 26-32 5 14 29-30-2-3 0 9 32-32-9 2 33-29-14-5 32-26-20-11 31-20-22-1-2-17 28-17-28-21 24-11-31-2 2-24 18-5-32-2 1-27 13 2-33-3 1-29 8 9-32-3 0-30 2 14-29-3-1-29-4 20-26-3-1-28-10 22-20 2-1-28-17 26-15 2-2-24-21 28-10 3-1-20-26 29-4 3-1-14-29 30 2 3 0-1-3 0 0-8-2-49-158 101 56 52-102 35 116 36-116 52 102 101-56-49 157-9 3 0 0-1 3 3 0 30-2-14 29 3 1 29 4-20 26z m-37-18l8-10-13-2-17-2 13-27-12 1-17 1 6-22 5-2 4-1 40-128-89 49-45-89-36 117-2-4-2 3-36-116-45 89-89-49 40 129 4 1 4 1 6 22-17-1-12-1 13 27-17 2-13 2 18 23-28 10 22 19-25 15 25 15-22 19 28 10-18 23 13 2 17 2-13 27 12-1 17-1-7 28 28-7-2 29 27-12 4 29 23-18 10 28 20-22 15 25 14-25 20 22 10-28 23 18 4-29 27 12-2-29 16 4 12 3-7-28 17 1 12 1-13-27 30-4-18-23 28-10-22-19 25-15-25-15 22-19-28-10z m-55-94l-27 13-4-30-24 18-10-28-20 22-7-11 32-104 40 80 80-45-33 108-28 7z m-114-5l-20-22-10 28-24-18-4 30-27-13 2 30-28-7-33-108 80 45 40-80 32 103z m153 141l23 14-23 14 20 17-25 9 16 22-27 3 12 24-27-1 7 26-26-7 1 27-24-12-3 27-22-16-9 25-17-20-14 23-14-23-17 20-9-25-22 16-3-27-24 12 1-27-13 3-13 4 7-26-27 1 12-24-27-3 16-22-25-9 20-17-23-14 23-14-20-17 25-9-16-22 27-3-12-24 21 1 6 0-7-26 13 4 13 3 0 0-1-27 24 12 3-27 22 16 0 0 9-25 17 20 14-23 0 0 4 8 1 0 9 15 17-20 9 25 0 0 22-16 3 27 24-12-1 27 26-7-2 9 0 0-5 17 5 0 2 0 7-1 13 0-12 24 27 3-16 22 25 9z"/>
<glyph unicode="&#57501;" d="M455 314l-29 17 2 2 23 20-29 10-2 1 19 26-29 4-3 0 14 30-30-2-3 0 8 32-32-8 2 33-29-15-5 33-26-20-1 3-10 28-22-24-17 28-17-28-22 24-11-31-26 20-5-33-2 2-27 13 2-33-32 8 8-32-3 0-30 2 14-30-3 0-29-4 19-26-31-11 25-22-3-2-25-15 28-17-25-22 29-9 2-1-19-27 29-4 3 0-14-30 24 1-50-159 103 57 52-103 36 117 1 0 36-117 52 103 102-57-49 159 23-1-14 30 3 0 29 4-19 27 31 10-23 20-2 2z m-158-266l-28 90 4 7 22-24 10 28 0 3 3-2 24-18 4 32 3-1 27-13-2 33 25-6 29-93-81 44z m-120 80l-80-44 29 93 20 5 3 1-2-33 27 13 3 1 4-32 27 20 11-31 20 22 2 2 1-2 4-6-28-89z m16 338l22-17 9 26 18-20 14 23 14-23 18 20 9-26 22 17 3-27 25 11-2-27 27 7-7-26 27 1-12-24 27-4-16-22 25-9-20-18 24-14-24-13 20-18-25-9 16-22-27-4 12-24-20 1-7 0 5-21 1-2 1-3-24 6-2 0-1 1 2-27-24 11-1 0-3-27-22 17 0 0-9-24 0-2-18 20-8-12-5-9-1-1 0 0 0-1-14 23-18-20-9 26 0 0-22-17 0 3-3 24-1 0-24-11 0 3 2 24-1-1-2 0-24-6 7 26-6 0-21-1 12 24-27 4 16 22-25 9 20 18-23 13 23 14-20 18 25 9-16 22 27 4-12 24 27-1-7 26 27-7-2 27 25-11z"/>
<glyph unicode="&#57502;" d="M349 512l-304 0 0-512 422 0 0 388 0 3z m84-478l-354 0 0 444 256 0 0-98 98 0z"/>
<glyph unicode="&#57503;" d="M349 512l-304 0 0-512 422 0 0 388 0 3z m84-478l-354 0 0 444 256 0 0-98 98 0z m-157 298l-38 0 0-57-57 0 0-34 57 0 0-61 38 0 0 61 57 0 0 34-57 0z"/>
<glyph unicode="&#57504;" d="M467 391l-118 121-304 0 0-512 422 0 0 388z m-34-357l-354 0 0 444 256 0 0-98 98 0z m-254 242l154 0 0-34-154 0z"/>
<glyph unicode="&#57505;" d="M349 512l-304 0 0-512 422 0 0 388 0 3z m84-478l-354 0 0 444 256 0 0-98 98 0z m-205 203l-29 30-26-30 55-55 111 118-28 30z"/>
<glyph unicode="&#57506;" d="M467 391l-119 121-303 0 0-512 422 0 0 388z m-34-357l-354 0 0 444 256 0 0-98 98 0z m-109 181l-26-26-41 41-41-41-26 26 41 41-41 41 26 26 41-41 41 41 26-26-41-41z"/>
<glyph unicode="&#57507;" d="M467 391l-118 121-304 0 0-512 422 0 0 388z m-34-357l-354 0 0 444 256 0 0-98 98 0z m-277 221c0 0 51-52 99-52 49 0 100 52 100 52 0 0-51 53-100 53-48 0-99-53-99-53z m143 2c0-24-19-43-43-43-24 0-43 19-43 43 0 23 19 42 43 42 24 0 43-19 43-42z m-68 0c0-15 11-26 25-26 15 0 26 11 26 26 0 14-11 25-26 25-14 0-25-11-25-25z"/>
<glyph unicode="&#57508;" d="M349 512l-304 0 0-512 422 0 0 388 0 3z m84-478l-354 0 0 444 256 0 0-98 98 0z m-318 78l282 0 0-43-282 0z m0 73l282 0 0-43-282 0z m0 73l282 0 0-43-282 0z m0 165l184 0 0-43-184 0z m0-91l282 0 0-43-282 0z"/>
<glyph unicode="&#57509;" d="M364 471l-280 0 0-471 388 0 0 357 1 3z m-249-421l0 390 235 0 0-90 91 0 0-318-326 0z m33 14l260 0 0 39-260 0z m248 68l12 0 0 39-260 0 0-39z m0 67l12 0 0 39-260 0 0-39z m-248 151l169 0 0 39-169 0z m248-84l12 0 0 39-260 0 0-39z m-76 246l-280 0 0-471 26 0 0 448 277 0z"/>
<glyph unicode="&#57510;" d="M437 466l0-36c0-6-3-10-9-10l-1 0c-6 0-11 4-11 10l0 36-48 0 0-36c0-6-3-10-9-10l-2 0c-6 0-12 4-12 10l0 36-45 0 0-36c0-6-5-10-10-10l-2 0c-6 0-11 4-11 10l0 36-48 0 0-36c0-6-3-10-9-10l-1 0c-6 0-11 4-11 10l0 36-46 0 0-36c0-6-5-10-11-10l-1 0c-6 0-12 4-12 10l0 36-46 0 0-36c0-6-4-10-10-10l-2 0c-5 0-11 4-11 10l0 36-56 0 0-466 389 0 97 100 0 5 0 361z m21-335l-93 0 0-92-314 0 0 292 407 0z m-366 339l0 34c0 6-4 8-10 8l-2 0c-5 0-11-2-11-8l0-38 23 0z m69 0l0 34c0 6-4 8-10 8l-2 0c-6 0-11-2-11-8l0-38 23 0z m68 0l0 34c0 6-3 8-9 8l-1 0c-6 0-11-2-11-8l0-38 21 0z m71 0l0 34c0 6-5 8-11 8l-1 0c-6 0-11-2-11-8l0-38 23 0z m68 0l0 34c0 6-3 8-9 8l-1 0c-6 0-13-2-13-8l0-38 23 0z m69 0l0 34c0 6-3 8-9 8l-2 0c-5 0-10-2-10-8l0-38 21 0z"/>
<glyph unicode="&#57511;" d="M279 512c0 0-13 0-15 0-34 0-65-34-65-71l0-264c0-19 4-35 12-47 11-16 27-24 46-24 21 0 56 9 56 71l0 183c0 10-8 18-18 18-10 0-18-8-18-18l0-183c0-35-12-35-20-35-6 0-22 0-22 35l0 264c0 19 16 35 35 35 1 0 9 0 9 0 27 0 48-21 48-48l0-344c0-27-21-48-48-48l-46 0c-27 0-48 21-48 48l0 253c0 10-8 18-18 18-10 0-18-8-18-18l0-253c0-46 38-84 84-84l46 0c46 0 84 38 84 84l0 344c0 46-38 84-84 84"/>
<glyph unicode="&#57512;" d="M467 391l-118 120-304 0 0-511 422 0 0 388z m-34-357l-354 0 0 444 141 0 0-6 38 0 0-10-38 0 0-27 38 0 0-13-38 0 0-24 38 0 0-15-38 0 0-23 38 0 0-14-38 0 0-23 38 0 0-16-38 0 0-25 38 0 0-9-51 0 3-41 9 0-14-121c0-22 26-41 41-41 15 0 41 19 41 41l-14 121 9 0 3 41-13 0 0 16-39 0 0 12 39 0 0 25-39 0 0 15 39 0 0 24-39 0 0 13 39 0 0 25-39 0 0 14 39 0 0 23-39 0 0 14 39 0 0 24 63 0 0-98 98 0z m-187 104c12 0 21-10 21-22 0-12-9-22-21-22-13 0-22 10-22 22 0 12 9 22 22 22z"/>
<glyph unicode="&#57513;" d="M350 512l-305 0 0-512 421 0 0 390 1 2z m83-478l-354 0 0 444 256 0 0-98 98 0z m-231 147c-29 6-60-20-51-45 11-32 77-23 77 22 0 18 0 76 0 106l96 25 0-93c-31 6-61-19-52-44 11-33 77-23 77 21 0 16 0 167 0 167l-146-29z"/>
<glyph unicode="&#57514;" d="M350 512l-305 0 0-512 421 0 0 390 1 2z m83-478l-354 0 0 444 256 0 0-98 98 0z m-213 242c19 0 34 15 34 34 0 19-15 34-34 34-19 0-34-15-34-34 0-19 15-34 34-34z m9-90l-37 54-77-115 283 0-103 168z"/>
<glyph unicode="&#57515;" d="M350 512l-305 0 0-512 421 0 0 390 1 2z m83-478l-354 0 0 444 256 0 0-98 98 0z m-292 198l0-133 225 0 0 243-225 0z m195 98l23 0 0-20-23 0z m0-40l23 0 0-20-23 0z m0-39l23 0 0-20-23 0z m0-39l23 0 0-21-23 0z m0-41l23 0 0-18-23 0z m0-39l23 0 0-20-23 0z m-157 187l150 0 0-85-150 0z m0-110l150 0 0-85-150 0z m-31 121l23 0 0-20-23 0z m0-40l23 0 0-20-23 0z m0-39l23 0 0-20-23 0z m0-39l23 0 0-21-23 0z m0-41l23 0 0-18-23 0z m0-39l23 0 0-20-23 0z"/>
<glyph unicode="&#57516;" d="M350 512l-305 0 0-512 421 0 0 391 1 1z m83-478l-354 0 0 444 256 0 0-98 98 0z m-127 228l60-21-60-22 0-20 84 32 0 19-84 32z m-80-76l17 0 41 108-17 0z m-106 45l84-32 0 20-60 21 60 22 0 20-84-32z"/>
<glyph unicode="&#57517;" d="M350 512l-305 0 0-512 421 0 0 390 1 2z m82-478l-353 0 0 444 255 0 0-98 98 0z m-106 108c-5 4-10 6-17 6l-32 0 0-73 16 0 0 27 15 0c7 0 13 1 18 5 4 3 6 9 6 18 0 8-2 13-6 17z m-11-27c-2-1-4-2-8-2l-13 0 0 22 13 0c4 0 6-1 8-3 2-2 3-4 3-8 0-4-1-7-3-9z m-67 33l15 0 0-73-15 0z m-11-13l0 13-53 0 0-14 35 0-37-46 0-13 57 0 0 12-38 0z"/>
<glyph unicode="&#57518;" d="M350 512l-305 0 0-512 421 0 0 390 1 2z m82-478l-353 0 0 444 255 0 0-98 98 0z m-209 81c-2-1-5-2-8-2l-14 0 0 22 14 0c3 0 6-1 8-3 2-2 3-4 3-8 0-4-1-7-3-9z m11 27c-5 4-10 6-17 6l-31 0 0-73 14 0 0 27 16 0c7 0 13 1 18 5 4 3 6 9 6 18 0 8-2 13-6 17z m82-32c0-11 3-20 10-27 6-7 14-10 23-10 6 0 11 1 15 4 2 1 5 3 8 7l1-9 10 0 0 39-31 0 0-13 18 0c-1-5-3-8-6-11-3-3-8-4-13-4-5 0-9 2-13 5-5 4-7 10-7 19 0 9 2 16 6 20 4 4 9 7 14 7 3 0 6-1 9-2 4-2 7-5 8-10l15 0c-1 7-4 12-10 17-5 5-13 7-22 7-10 0-19-4-25-11-7-7-10-16-10-28z m-48-3l35 0 0 13-35 0 0 14 38 0 0 14-54 0 0-73 56 0 0 12-40 0z m-113-10c0-4 0-6-1-8-1-2-3-4-7-4-3 0-6 1-7 4-1 2-2 6-2 12l0 0-14 0 0 0c0-9 2-16 5-21 3-5 10-7 19-7 9 0 16 3 19 9 3 4 4 9 4 15l0 51-16 0 0-51"/>
<glyph unicode="&#57519;" d="M350 512l-305 0 0-512 421 0 0 390 1 2z m82-478l-353 0 0 444 255 0 0-98 98 0z m-125 41l16 0 0 30 32 0 0 13-32 0 0 16 36 0 0 14-52 0z m-60 0l14 0 0 30 33 0 0 13-33 0 0 16 38 0 0 14-52 0z m-29 73l15 0 0-73-15 0z m-66-14l21 0 0-59 15 0 0 59 21 0 0 14-57 0z"/>
<glyph unicode="&#57520;" d="M349 512l-303 0 0-512 420 0 0 388 1 3z m84-478l-353 0 0 444 254 0 0-98 99 0z m-223 108c-4 4-10 5-17 5l-31 0 0-71 16 0 0 27 14 0c8 0 14 1 18 5 4 3 7 9 7 17 0 8-3 13-7 17z m86 5l0-71 30 0c11 0 19 5 24 14 4 6 6 14 6 24 0 4-1 7-2 12-1 4-2 8-5 11-3 5-7 7-12 9-3 1-7 1-11 1z m41-17c2-4 4-10 4-17 0-5-1-10-3-14-3-6-8-10-15-10l-13 0 0 46 13 0c7 0 12-2 14-5z m-59-19c-3 2-7 4-12 5l-13 3c-5 1-8 2-10 3-2 1-3 3-3 6 0 3 1 5 3 6 3 2 6 3 10 3 3 0 6-1 9-3 3-1 5-4 6-9l14 0c0 9-3 14-8 18-6 4-12 6-20 6-9 0-16-2-21-6-5-5-7-10-7-16 0-8 2-13 7-16 3-2 8-4 16-6l8-1c4-1 8-2 10-4 2-1 3-3 3-5 0-4-2-7-7-9-2 0-5-1-8-1-7 0-11 2-13 5-2 2-3 4-3 8l-14 0c0-9 2-14 8-18 5-5 13-7 22-7 10 0 17 2 22 6 5 5 8 10 8 17 0 6-3 11-7 15m-80 7c-2-1-5-2-8-2l-12 0 0 19 12 0c3 0 6 0 8-2 2-1 3-4 3-7 0-4-1-6-3-8z"/>
<glyph unicode="&#57521;" d="M350 512l-305 0 0-512 422 0 0 388 0 3z m82-478l-353 0 0 444 255 0 0-98 98 0z m-130 109c-4-5-7-10-7-16 0-7 3-13 7-16 3-2 9-4 16-6l8-1c5-1 8-2 10-4 2-1 3-3 3-5 0-4-2-7-6-9-2 0-5-1-9-1-6 0-10 2-13 5-1 2-2 4-3 8l-14 0c0-9 3-14 8-18 6-5 13-7 23-7 9 0 16 2 21 6 5 5 8 10 8 17 0 6-2 11-6 15-3 2-7 4-13 5l-13 3c-5 1-8 2-9 3-3 1-4 3-4 6 0 3 1 5 4 6 2 2 5 3 9 3 4 0 7-1 9-3 4-1 6-4 6-9l15 0c-1 9-3 14-9 18-5 4-12 6-20 6-9 0-16-2-21-6z m-23-1c-4 4-10 5-17 5l-31 0 0-71 14 0 0 27 16 0c8 0 14 1 18 5 4 3 6 9 6 17 0 8-2 13-6 17z m-12-24c-2-1-4-2-8-2l-14 0 0 19 14 0c4 0 6 0 8-2 2-1 3-4 3-7 0-4-1-6-3-8z m-89-10l35 0 0 12-35 0 0 15 37 0 0 12-51 0 0-71 53 0 0 12-39 0z"/>
<glyph unicode="&#57522;" d="M350 512l-305 0 0-512 422 0 0 390 0 2z m82-478l-353 0 0 444 255 0 0-98 98 0z m-110 112c-3-1-5-2-7-4-2-2-4-5-5-8-1-3-2-7-2-10l13 0c0 3 1 6 3 8 1 2 3 4 7 4 3 0 5-1 6-3 2-2 3-4 3-6 0-5-2-7-5-9-2-1-5-1-10-1l0-10c5 0 8 0 10-1 4-2 6-5 6-10 0-3-1-6-3-8-2-2-4-3-7-3-4 0-7 2-9 5-1 2-1 5-1 7l-14 0c0-5 1-10 3-13 4-7 11-10 21-10 8 0 15 2 19 7 4 4 6 10 6 16 0 5-2 10-5 13-3 2-5 3-6 3 2 1 4 2 5 4 3 3 4 7 4 11 0 6-2 10-6 14-5 3-10 5-17 5-3 0-7 0-9-1z m-27-4c-5 4-11 6-18 6l-32 0 0-73 16 0 0 27 15 0c8 0 14 1 19 5 4 3 6 9 6 18 0 8-2 13-6 17z m-13-27c-2-1-4-2-8-2l-13 0 0 22 13 0c4 0 6-1 8-3 2-2 3-4 3-8 0-4-1-7-3-9z m-86-24l-13 57-22 0 0-73 14 0 0 49c0 1 0 3 0 6 0 2 0 4 0 6l14-61 14 0 14 61c0-2 0-4 0-6 0-3 1-5 1-6l0-49 12 0 0 73-21 0z"/>
<glyph unicode="&#57523;" d="M350 512l-305 0 0-512 422 0 0 388 0 3z m82-478l-353 0 0 444 255 0 0-98 98 0z m-114 113l-16 0 24-71 14 0 25 71-16 0-15-54z m-54 0l-26-71 16 0 5 14 26 0 5-14 16 0-25 71z m-2-44l10 28 9-28z m-39 44l-10-41-2-11-2 11-9 41-15 0-9-41-2-11-2 11-9 41-16 0 20-71 14 0 9 42 2 14 3-14 9-42 14 0 20 71z"/>
<glyph unicode="&#57524;" d="M350 512l-305 0 0-512 422 0 0 390 0 2z m82-478l-353 0 0 444 255 0 0-98 98 0z m-125 114l24-73 14 0 25 73-16 0-15-55-16 55z m-40 2c-11 0-19-3-24-8-7-7-11-17-11-31 0-13 4-23 11-30 5-5 13-8 24-8 10 0 18 3 23 8 7 7 11 17 11 30 0 14-4 24-11 31-5 5-13 8-23 8z m16-57c-4-5-9-7-15-7-6 0-11 2-15 7-3 4-5 10-5 18 0 9 2 15 5 19 4 5 9 7 15 7 6 0 11-2 15-7 3-4 5-10 5-19 0-8-2-14-5-18z m-97-2l-13 57-22 0 0-73 14 0 0 49c0 1 0 3 0 6 0 2 0 4 0 6l13-61 15 0 14 61c0-2-1-4-1-6 0-3 0-5 0-6l0-49 14 0 0 73-21 0z"/>
<glyph unicode="&#57525;" d="M350 512l-305 0 0-512 422 0 0 390 0 2z m82-478l-353 0 0 444 255 0 0-98 98 0z m-115 114l15 0 0-73-15 0z m-40-55l-16 55-16 0 24-73 14 0 25 73-16 0z m-70 55l-26-73 16 0 5 14 27 0 4-14 17 0-26 73z m-1-45l10 28 9-28z"/>
<glyph unicode="&#57526;" d="M350 512l-305 0 0-512 421 0 0 389 1 3z m82-478l-353 0 0 444 255 0 0-98 98 0z m-125 71l0-13 29 0 0-14 12 0 0 14 9 0 0 11-9 0 0 44-15 0z m30-3l-19 0 19 31z m-43 40c-4 4-10 6-17 6l-30 0 0-71 14 0 0 25 15 0c8 0 14 2 18 5 4 4 6 10 6 18 0 8-2 14-6 17z m-12-24c-2-2-4-3-8-3l-13 0 0 21 13 0c4 0 6-1 8-2 2-2 3-5 3-8 0-4-1-7-3-8z m-85-26l-13 56-21 0 0-71 12 0 0 48c0 1 1 3 1 6 0 2 0 4 0 6l14-60 14 0 14 60c0-2 0-4 0-6 0-3 0-5 0-6l0-48 14 0 0 71-22 0z"/>
<glyph unicode="&#57527;" d="M350 512l-305 0 0-512 422 0 0 389 0 3z m82-478l-353 0 0 444 255 0 0-98 98 0z m-118 114l24-71 14 0 25 71-16 0-15-54-16 54z m-43-56l-13 56-22 0 0-71 14 0 0 48c0 1 0 3 0 6 0 2 0 4 0 6l13-60 15 0 13 60c0-2 0-4 0-6 0-3 0-5 0-6l0-48 14 0 0 71-21 0z m-69 15l-2-11-2 11-9 41-15 0-9-41-2-11-2 11-9 41-16 0 20-71 14 0 9 42 2 13 3-13 9-42 14 0 20 71-15 0z"/>
<glyph unicode="&#57528;" d="M350 512l-305 0 0-512 421 0 0 388 1 3z m82-478l-353 0 0 444 255 0 0-98 98 0z m-122 105c-7-7-10-16-10-29 0-11 3-20 9-27 6-7 14-10 24-10 8 0 15 3 20 7 5 5 9 12 10 20l-15 0c-1-4-2-7-4-9-2-3-6-5-11-5-5 0-10 2-13 6-3 4-5 10-5 18 0 8 2 14 5 19 3 4 7 6 13 6 5 0 9-1 11-4 2-2 3-5 4-8l15 0c0 5-2 9-5 13-5 8-14 12-26 12-9 0-16-3-22-9z m-52 10c-11 0-19-3-24-8-7-7-11-17-11-30 0-13 4-23 11-30 5-5 13-8 24-8 10 0 18 3 23 8 7 7 11 17 11 30 0 13-4 23-11 30-5 5-13 8-23 8z m13-57c-4-5-8-7-14-7-6 0-11 2-15 7-3 4-5 10-5 18 0 9 2 15 5 19 4 5 9 7 15 7 6 0 10-2 14-7 3-4 5-10 5-19 0-8-2-14-5-18z m-63 44c-4 5-8 7-13 9-3 1-6 1-11 1l-30 0 0-71 30 0c11 0 19 5 24 14 4 6 6 14 6 24 0 4 0 7-1 12-1 4-3 8-5 11z m-11-37c-3-7-8-11-15-11l-14 0 0 46 14 0c7 0 11-2 14-5 2-4 3-10 3-17 0-5-1-10-2-13z"/>
<glyph unicode="&#57529;" d="M350 512l-305 0 0-512 421 0 0 388 1 3z m82-478l-353 0 0 444 255 0 0-98 98 0z m-137 100l21 0 0-59 17 0 0 59 21 0 0 12-59 0z m-11 7c-5 4-10 5-18 5l-31 0 0-71 16 0 0 27 14 0c8 0 14 1 19 5 4 3 6 9 6 17 0 8-2 13-6 17z m-13-24c-2-1-4-2-8-2l-12 0 0 19 12 0c4 0 6 0 8-2 2-1 3-4 3-7 0-4-1-6-3-8z m-55 24c-5 4-10 5-17 5l-31 0 0-71 14 0 0 27 16 0c7 0 13 1 18 5 4 3 6 9 6 17 0 8-2 13-6 17z m-11-24c-2-1-4-2-8-2l-14 0 0 19 14 0c4 0 6 0 8-2 2-1 3-4 3-7 0-4-1-6-3-8z"/>
<glyph unicode="&#57530;" d="M350 512l-305 0 0-512 422 0 0 388 0 3z m82-478l-353 0 0 444 255 0 0-98 98 0z m-134 109c-4-5-7-10-7-16 0-7 3-13 7-16 3-2 9-4 16-6l8-1c5-1 8-2 10-4 2-1 3-3 3-5 0-4-2-7-6-9-2 0-5-1-9-1-6 0-10 2-13 5-1 2-2 4-3 8l-14 0c0-9 3-14 8-18 6-5 13-7 23-7 9 0 16 2 21 6 5 5 8 10 8 17 0 6-2 11-6 15-3 2-7 4-13 5l-13 3c-5 1-8 2-9 3-3 1-4 3-4 6 0 3 1 5 4 6 2 2 5 3 9 3 4 0 7-1 9-3 4-1 6-4 6-9l15 0c-1 9-3 14-9 18-5 4-12 6-20 6-9 0-16-2-21-6z m-50 3l-16 0 0-71 52 0 0 12-36 0z m-25 0l-18 0-13-23-13 23-18 0 22-35-23-36 18 0 14 24 14-24 18 0-23 37z"/>
<glyph unicode="&#57531;" d="M351 512l-306 0 0-512 421 0 0 388 2 3z m82-478l-354 0 0 444 255 0 0-98 99 0z m-129 41l16 0 0 30 32 0 0 13-32 0 0 16 36 0 0 12-52 0z m-18 61c-3 5-7 7-12 9-3 1-7 1-11 1l-31 0 0-71 31 0c10 0 19 5 24 14 4 6 6 14 6 24 0 4-1 7-2 12-1 4-2 8-5 11z m-11-37c-3-7-7-11-14-11l-14 0 0 46 14 0c6 0 11-2 13-5 2-4 4-10 4-17 0-5-1-10-3-13z m-62 42c-4 4-10 5-17 5l-30 0 0-71 14 0 0 27 15 0c8 0 14 1 18 5 4 3 7 9 7 17 0 8-3 13-7 17z m-10-24c-2-1-5-2-8-2l-14 0 0 19 14 0c3 0 6 0 8-2 2-1 3-4 3-7 0-4-1-6-3-8z"/>
<glyph unicode="&#57532;" d="M351 512l-306 0 0-512 421 0 0 388 2 3z m82-478l-354 0 0 444 255 0 0-98 99 0z m-131 41l14 0 0 30 32 0 0 13-32 0 0 16 36 0 0 12-50 0z m-68 59l21 0 0-59 16 0 0 59 22 0 0 12-59 0z m-10-53c-1 1-1 4-1 7l0 5c0 5 0 8-2 11-1 2-3 4-7 5 4 2 7 4 9 7 2 4 3 7 3 10 0 3-1 6-2 8-1 2-2 4-3 6-2 2-4 3-7 5-3 1-6 1-11 1l-35 0 0-71 16 0 0 28 14 0c4 0 7 0 8-2 2-1 2-4 2-9l1-7c0-2 0-4 0-6 0-1 1-2 1-4l17 0 0 2c-2 1-3 2-3 4z m-18 36c-1-1-4-1-7-1l-15 0 0 18 15 0c3 0 6 0 7-1 3-1 5-4 5-8 0-4-2-7-5-8z"/>
<glyph unicode="&#57533;" d="M350 512l-305 0 0-512 421 0 0 388 1 3z m82-478l-353 0 0 444 255 0 0-98 98 0z m-141 100l21 0 0-59 17 0 0 59 21 0 0 12-59 0z m-3 12l-18 0-13-23-13 23-18 0 22-35-23-36 18 0 14 24 14-24 18 0-23 37z m-124-12l21 0 0-59 15 0 0 59 21 0 0 12-57 0z"/>
<glyph unicode="&#57534;" d="M178 439c-21-7-37-27-41-50l240 0c-4 23-20 43-41 50-6 2-12 3-18 3l-20 0 0 27c0 0 0 0 0 0 0 24-19 43-43 43-23 0-42-19-42-43 0 0 0 0 0 0l0-27-17 0c-6 0-12-1-18-3z m63 34c0 9 7 16 16 16 8 0 15-7 15-16 0-1 0-2-1-4-1-6-7-11-14-11-8 0-14 5-15 11-1 2-1 3-1 4z m69-4c0 0 0 0 0 0l0-14 6 0c16 0 32-6 44-16l60 0 0-409-328 0 0 409 60 0c12 10 28 16 44 16l3 0 0 14c0 0 0 0 0 0l-137 0 0-469 388 0 0 469z"/>
<glyph unicode="&#57535;" d="M177 439c-21-7-37-27-41-50l240 0c-4 23-20 43-41 50-6 2-12 3-18 3l-20 0 0 27c0 0 0 0 0 0 0 24-19 43-43 43-23 0-42-19-42-43 0 0 0 0 0 0l0-27-17 0c-6 0-12-1-18-3z m63 34c0 9 7 16 16 16 8 0 15-7 15-16 0-1 0-2-1-4-1-6-7-11-14-11-8 0-14 5-15 11-1 2-1 3-1 4z m171-4l-101 0c0 0 0 0 0 0l0-14 6 0c16 0 32-6 44-16l51 0c5 0 9-4 9-9l0-391c0-5-4-9-9-9l-310 0c-5 0-9 4-9 9l0 391c0 5 4 9 9 9l51 0c12 10 28 16 44 16l3 0 0 14c0 0 0 0 0 0l-98 0c-22 0-39-17-39-39l0-391c0-22 17-39 39-39l310 0c22 0 39 17 39 39l0 391c0 22-17 39-39 39z"/>
<glyph unicode="&#57536;" d="M177 439c-15-5-28-18-35-33l-33 0 0-361 213 0 83 85 0 2 0 274-34 0c-8 15-21 28-36 33-6 2-12 3-18 3l-20 0 0 27c0 0 0 0 0 0 0 24-19 43-43 43-23 0-42-19-42-43 0 0 0 0 0 0l0-27-17 0c-6 0-12-1-18-3z m204-56l0-245-68 0 0-69-180 0 0 314z m-141 90c0 9 7 16 16 16 8 0 15-7 15-16 0-1 0-2-1-4-1-6-7-11-14-11-8 0-14 5-15 11-1 2-1 3-1 4z m171-4l-101 0c0 0 0 0 0 0l0-14 6 0c16 0 32-6 44-16l51 0c5 0 9-4 9-9l0-391c0-5-4-9-9-9l-310 0c-5 0-9 4-9 9l0 391c0 5 4 9 9 9l51 0c12 10 28 16 44 16l3 0 0 14c0 0 0 0 0 0l-98 0c-22 0-39-17-39-39l0-391c0-22 17-39 39-39l310 0c22 0 39 17 39 39l0 391c0 22-17 39-39 39z"/>
<glyph unicode="&#57537;" d="M150 446l-1-300c-68 14-139-44-119-101 27-76 177-53 177 49 0 41 1 175 1 244l220 58 0-214c-70 14-140-44-119-101 26-76 176-53 176 49 0 35 0 382 0 382l-335-66"/>
<glyph unicode="&#57538;" d="M20 0l473 0 0 512-473 0z m16 74l50 0 0-41-50 0z m0 78l50 0 0-37-50 0z m0 87l50 0 0-44-50 0z m0 78l50 0 0-40-50 0z m0 81l50 0 0-40-50 0z m0 83l50 0 0-40-50 0z m65-249l310 0 0-176-310 0z m0 227l310 0 0-179-310 0z m328-385l47 0 0-41-47 0z m0 78l47 0 0-37-47 0z m0 87l47 0 0-44-47 0z m0 78l47 0 0-40-47 0z m0 81l47 0 0-40-47 0z m0 83l47 0 0-40-47 0z"/>
<glyph unicode="&#57539;" d="M59 512c-22 0-39-18-39-39l0-434c0-21 17-39 39-39l394 0c22 0 40 18 40 39l0 434c0 21-18 39-40 39z m27-459c0-11-12-20-25-20-14 0-25 9-25 20 0 12 11 21 25 21 13 0 25-9 25-21z m0 80c0-10-12-18-25-18-14 0-25 8-25 18 0 11 11 19 25 19 13 0 25-8 25-19z m0 84c0-12-12-22-25-22-14 0-25 10-25 22 0 12 11 22 25 22 13 0 25-10 25-22z m0 80c0-11-12-20-25-20-14 0-25 9-25 20 0 11 11 20 25 20 13 0 25-9 25-20z m0 81c0-11-12-20-25-20-14 0-25 9-25 20 0 11 11 20 25 20 13 0 25-9 25-20z m0 83c0-11-12-20-25-20-14 0-25 9-25 20 0 11 11 20 25 20 13 0 25-9 25-20z m325-366c0-21-18-39-40-39l-231 0c-22 0-39 18-39 39l0 98c0 21 17 39 39 39l231 0c22 0 40-18 40-39z m0 224c0-21-18-39-40-39l-231 0c-22 0-39 18-39 39l0 101c0 21 17 39 39 39l231 0c22 0 40-18 40-39z m65-266c0-11-11-20-24-20-13 0-23 9-23 20 0 12 10 21 23 21 13 0 24-9 24-21z m0 80c0-10-11-18-24-18-13 0-23 8-23 18 0 11 10 19 23 19 13 0 24-8 24-19z m0 84c0-12-11-22-24-22-13 0-23 10-23 22 0 12 10 22 23 22 13 0 24-10 24-22z m0 80c0-11-11-20-24-20-13 0-23 9-23 20 0 11 10 20 23 20 13 0 24-9 24-20z m0 81c0-11-11-20-24-20-13 0-23 9-23 20 0 11 10 20 23 20 13 0 24-9 24-20z m0 83c0-11-11-20-24-20-13 0-23 9-23 20 0 11 10 20 23 20 13 0 24-9 24-20z"/>
<glyph unicode="&#57540;" d="M465 400l-418 0 0-342 465 0 0 342z m-381-37l390 0 0-267-390 0z m381 90l-465 0 0-342 27 0 0 309 438 0z m-224-196c20 0 37 17 37 38 0 21-17 37-37 37-21 0-38-16-38-37 0-21 17-38 38-38z m82 18l-72-90-40 45-85-98 310 0z"/>
<glyph unicode="&#57541;" d="M430 339l-330 47-43-303 412-59 43 304z m-336-227l34 237 346-49-34-238z m290 339l9-84 34-5-13 125-414-43 32-305 11 2 13 91-19 182z m-131-216c18-3 35 10 38 28 2 19-10 36-29 38-18 3-35-10-38-28-2-19 10-36 29-38z m97-28l-20 34-75-71-30 46-88-76 275-40z"/>
<glyph unicode="&#57542;" d="M512 148l-30 189c-1 4-4 6-8 6l-13 0c1-4 2-9 2-14 8-54 16-108 23-159l2-13-12 5c-33 14-69 21-105 21-36 0-72-7-105-21l-10-4 0 0 0 0 0 0 0 0-10 4c-33 14-69 21-105 21-36 0-72-7-106-21l-11-5 2 13c7 51 15 105 22 159 1 5 2 10 3 14l-13 0c-4 0-7-2-8-6l-30-189c0-3 0-5 2-7 1-1 4-2 6-2l0 0 217 7 7-8 1 0c1-1 3-2 5-2l29 0c2 0 3 1 5 2l1 0 7 7 224-7 0 0c2 0 5 1 6 3 2 2 2 4 2 7z m-33 20c-8 54-15 108-23 160-1 5-1 10-2 15-1 7-2 14-3 21-26 8-53 11-80 11-37 0-73-7-108-21l0-186c35 15 71 22 108 22 37 0 73-7 108-22z m-338 22c37 0 73-7 108-22l0 186c-35 14-71 21-108 21-27 0-54-3-80-11-1-7-2-14-3-21-1-5-1-10-2-15-8-52-15-106-23-160 35 15 71 22 108 22z"/>
<glyph unicode="&#57543;" d="M472 335l-15 0c-1 6-3 13-4 20l0 4-4 1c-28 8-56 12-83 12-38 0-75-7-113-23-37 16-73 23-110 23-27 0-55-4-83-12l-3-1-1-4c-1-7-2-14-3-20l-13 0-40-190 228 3c0-5 4-9 8-9l32 0c5 0 8 4 9 9l235-3z m-405 15c26 7 51 10 76 10 35 0 68-6 103-20l0-170c-35 14-71 21-107 21-36 0-72-7-106-20 5 33 11 61 17 88 5 24 10 48 15 75 1 5 2 10 2 16z m376 0c1-6 2-11 2-16 5-27 11-52 17-75 6-28 13-56 18-88-34 13-71 20-109 20-38 0-75-7-110-21l0 170c35 13 70 20 105 20 25 0 51-3 77-10z"/>
<glyph unicode="&#57544;" d="M512 174l0 10c-4 0-6 2-6 3 0 2 2 4 6 4l0 10c-4 1-6 2-6 4 0 2 2 3 6 3l0 11c-4 0-6 1-6 3 0 2 2 3 6 4l0 10c-4 0-6 2-6 4 0 1 2 3 6 3l0 10c-4 1-6 2-6 4 0 2 2 3 6 4l0 10c-4 0-6 2-6 3 0 2 2 3 6 4l0 10c-4 1-6 2-6 4 0 1 2 3 6 3l0 10c-4 1-6 2-6 4 0 2 2 3 6 4l0 10c-4 0-6 2-6 4 0 1 2 3 6 3l0 10c-21 4-38 20-43 41l-427 0c-4-21-21-37-42-41l0-10c3 0 6-2 6-3 0-2-3-4-6-4l0-10c3-1 6-2 6-4 0-2-3-3-6-4l0-10c3 0 6-2 6-3 0-2-3-3-6-4l0-10c3-1 6-2 6-4 0-1-3-3-6-3l0-10c3-1 6-2 6-4 0-2-3-3-6-4l0-10c3 0 6-2 6-3 0-2-3-3-6-4l0-10c3-1 6-2 6-4 0-1-3-3-6-3l0-11c3 0 6-2 6-3 0-2-3-3-6-4l0-10c3-1 6-2 6-4 0-1-3-3-6-3l0-11c21-4 38-21 42-43l427 0c4 22 21 39 43 44z m-51 1c0-5-4-9-8-9l-396 0c-4 0-8 4-8 9l0 163c0 5 4 8 8 8l396 0c4 0 8-3 8-8z m-352-3l294 0 0 169-294 0z m345 169l-45 0 0-169 45 0c2 0 3 2 3 3l0 164c0 1-1 2-3 2z m-396 0c-2 0-3-1-3-2l0-164c0-1 1-3 3-3l46 0 0 169z m119-65l-10 0 0-51-16 0 0 51-10 0 0 11 36 0z m6 11l16 0 0-62-16 0z m63-27l-15 0 0 11c0 3-1 5-1 6 0 1-1 1-2 1-2 0-3-1-3-1 0-1-1-3-1-7l0-29c0-3 1-5 1-6 0 0 1-1 2-1 2 0 3 1 3 1 0 1 1 4 1 7l0 8 15 0 0-3c0-6 0-11-1-13-1-3-3-5-6-7-3-2-7-4-11-4-5 0-9 1-12 3-3 2-5 4-6 7-1 3-2 8-2 14l0 18c0 5 0 8 1 10 0 3 1 5 2 7 2 2 4 4 7 5 3 1 6 1 9 1 5 0 9 0 12-2 3-2 5-4 6-7 1-3 1-7 1-13z m31-35l-6 27 0-27-16 0 0 62 16 0 0-23 7 23 15 0-9-27 10-35z m51 0l-28 0 0 62 27 0 0-11-11 0 0-12 11 0 0-12-11 0 0-13 12 0z m30 51l0-51-16 0 0 51-10 0 0 11 35 0 0-11z m63 29l17-4 0 5 3 0 0-10-4 0-16 4z m1-14c0 1 1 2 2 2 0 0 2 0 4 0 1 0 2 0 3 0 1 0 1-1 2-2 0 1 1 2 1 2 1 0 2 0 3 0 2 0 3 0 4-1 1-1 1-3 1-4 0-3 0-4-1-5-1-1-3-1-4-1-1 0-2 0-3 0 0 0-1 1-1 2 0-1-1-2-1-2-1 0-2-1-5-1-1 0-3 1-3 1-1 0-2 1-2 2-1 1-1 2-1 3 0 2 0 3 1 4z m0-17c0 1 1 2 2 2 1 0 2 0 3 0l0-4c-1 0-2 0-2 0 0 0 0 0-1-1 0 0 0 0 0 0 0-1 0-1 0-1 1 0 1 0 1 0 0 0 1 0 1 0l4 0c-1 0-1 0-2 1 0 0 0 1 0 2 0 0 0 1 1 2 0 1 1 1 2 1 0 0 1 0 2 0l2 0c1 0 3 0 3 0 1 0 2 0 2-1 1 0 1-1 2-1 0-1 0-2 0-3 0-1 0-2-1-3 0-1 0-2-1-2-1-1-2-1-2-1-1 0-3-1-5-1l-3 0c-2 0-4 1-5 1 0 0-1 0-2 1-1 0-1 1-1 2-1 1-1 2-1 3 0 1 0 2 1 3z m16-19c-1 1-1 1-2 1l-2 0 0 4 1 0c1 0 2 0 2 0 1 0 2 0 2-1 1 0 1-1 2-1 0-1 0-2 0-3 0-2 0-4-1-5-1-1-3-2-4-2-1 0-2 1-4 1-1 1-3 3-8 6l0-6-3 0 0 11 3 0c5-3 8-5 9-6 2 0 3-1 3-1 1 0 1 1 2 1 0 0 0 0 0 1 0 0 0 0 0 0z m3-37l-13 0 0-2-4 0 0 2-3 0 0 5 3 0 0 5 4 0 13-3z m0 17c-1-1-3-1-4-1-1 0-2 0-3 0 0 0-1 1-1 2 0-1-1-2-1-2-1 0-2-1-5-1-1 0-2 1-3 1-1 0-2 1-2 2-1 1-1 2-1 3 0 2 0 3 1 4 0 1 1 2 2 2 1 0 2 0 4 0l1 0 0-5-3 0c-1 0-1 0-2 0 0 0 0 0 0-1 0 0 0 0 1 0 0 0 1 0 2 0l1 0c1 0 2 0 2 0 0 0 1 0 1 0 0 1 0 2 0 2l3 0c0-1 0-2 0-2 0 0 0 0 1 0 0 0 0 0 1 0l1 0c1 0 1 0 2 0 0 0 0 0 0 1 0 0 0 0 0 0-1 0-1 0-2 0l-1 0 0 5 1 0c2 0 3 0 4-1 1-1 1-2 1-4 0-3 0-4-1-5z m-8 34l3 0c1 0 1 1 2 1 0 0 0 0 0 0 0 1 0 1 0 1 0 0-1 0-2 0l-3 0c-1 0-2 0-2 0 0 0 0 0 0-1 0 0 0 0 0 0 1 0 1-1 2-1z m-364 33l13 0 0 1 4 0 0-1 3 0 0-5-3 0 0-6-4 0-13 5z m1-16c1 1 3 1 4 1 1 0 2 0 3 0 0 0 1-1 1-2 0 1 1 2 1 2 1 0 2 0 5 0 1 0 2 0 3 0 1 0 2-1 2-2 1-1 1-2 1-3 0-2 0-3-1-4 0-1-1-2-2-2-1 0-2-1-4-1l-2 0 0 6 4 0c1 0 1 0 2 0 0 0 0 0 0 1 0 0 0 0-1 1 0 0-1 0-2 0l-1 0c-1 0-2 0-2 0 0-1-1-1-1-1 0-1 0-1 0-2l-3 0c0 1 0 2 0 2 0 0 0 1-1 1 0 0 0 0-1 0l-1 0c-1 0-1 0-2 0 0-1 0-1 0-1 0 0 0-1 0-1 1 0 1 0 2 0l2 0 0-6-2 0c-2 0-3 1-4 2-1 1-1 2-1 4 0 3 0 4 1 5z m3-22c0 0 0 0 1 0l2 0 0-5-1 0c-1 0-2 1-2 1-1 0-1 0-2 1-1 0-1 1-2 1 0 1 0 2 0 3 0 2 0 4 1 5 1 1 3 1 4 1 1 0 2 0 4 0 1-1 4-3 8-6l0 6 3 0 0-11-3 0c-5 3-8 5-9 6-2 0-3 1-3 1-1 0-1-1-2-1 0 0 0 0 0-1 0 0 0 0 1-1z m16-49l-17 4 0-6-3 0 0 10 5 0 15-3z m0 14c0-1-1-2-2-2 0 0-2-1-4-1-1 0-2 1-3 1-1 0-1 1-2 2 0-1-1-2-1-2-1 0-2 0-3 0-2 0-3 0-4 1-1 1-1 3-1 4 0 3 0 4 1 5 1 1 3 1 4 1 1 0 2 0 3 0 0 0 1-1 1-2 0 1 1 2 1 2 1 0 2 0 5 0 1 0 3 0 3 0 1 0 2-1 2-2 1-1 1-2 1-4 0-1 0-2-1-3z m0 18c0-1-1-2-1-2-1 0-2-1-3-1l0 5c0 0 1 0 1 0 0 1 1 1 1 1 0 0 0 0 0 1 0 0 0 0 0 0 0 0-1 0-1 0 0 0-1 0-1 0l-4 0c1 0 1 0 2-1 0 0 0-1 0-2 0 0 0-1-1-2 0-1-1-1-2-1 0 0-1 0-2 0l-2 0c-1 0-3 0-3 0-1 0-2 0-2 1-1 0-1 1-2 1 0 1 0 2 0 3 0 2 0 3 1 4 0 0 0 1 1 1 1 1 2 1 2 1 1 0 3 0 5 0l3 0c2 0 4 0 5 0 0 0 1 0 2-1 1 0 1-1 1-2 1 0 1-1 1-3 0-1 0-2-1-3z m-6 49l-9 0 9-2z m4-63c-1 0-1 0-2 0l-3 0c-1 0-1 0-2 0 0 0 0 0 0 0 0-1 0-1 0-1 1 0 1-1 2-1l3 0c1 0 1 1 2 1 0 0 0 0 0 1 0 0 0 0 0 0z m-10 16l-3 0c-1 0-1 1-2 0 0 0 0 0 0 0 0 0 0 0 0 0 0-1 1 0 2 0l3 0c1 0 2-1 2 0 0 0 0 0 0 0 0 0 0 0 0 0-1 1-1 0-2 0z m347 37c1 0 1-1 2-1l3 0c1 0 1 1 2 1 0 0 0 0 0 1 0 0 0 0 0 0-1 0-1 0-2 0l-3 0c-1 0-1 0-2 0 0 0 0 0 0 0 0-1 0-1 0-1z m10 0c1 0 1-1 2-1l1 0c1 0 1 1 2 1 0 0 0 0 0 1 0 0 0 0 0 0-1 0-1 0-2 0l-1 0c-1 0-1 0-2 0 0 0 0 0 0 0 0-1 0-1 0-1z m-6-64l9 0-9 2z m-351 11c-1 0-1 0-2 0l-1 0c-1 0-1 0-2 0 0 0 0 0 0 0 0-1 0-1 0-1 1 0 1-1 2-1l1 0c1 0 1 1 2 1 0 0 0 0 0 1 0 0 0 0 0 0z"/>
<glyph unicode="&#57545;" d="M508 346c-6 13-24 28-41 34l-77 29c-7 2-16 3-25 3-12 0-24-2-33-6l-259-117c-15-7-23-25-15-41l79-176c5-11 16-18 29-18 4 0 8 1 12 3l259 116c16 8 34 27 40 43l30 77c6 16 7 40 1 53z m-135-15l6-14-29-13 7-15 27 12 6-13-27-12 8-18 30 14 6-14-46-21-33 73z m-84-37l26-59 29 13 7-14-46-21-33 73z m-49-23l56-64-18-8-14 17-21-10 3-21-17-8-11 84z m-73-31c9 4 16 5 21 5l2-15c-3 0-10 0-17-3-7-4-9-8-7-12 2-5 7-5 18-4 15 1 24-3 29-14 6-12 1-27-20-36-8-3-17-5-22-5l-3 16c5-1 13 0 20 3 8 4 11 9 8 13-2 5-6 6-17 5-14-1-25 2-30 13-5 12 1 27 18 34z m312 65c-3-1-7-2-10-2-10 0-19 5-23 15-1 0-1 1-1 2-4 11 0 24 10 30 1 0 2 1 3 1 4 2 7 3 11 3 9 0 19-6 23-15 6-13 0-28-13-34z m-239-84l16 7-12 14c-3 3-7 8-10 12l0 0c1-5 2-11 3-16z m-172 80l258 117c10 5 24 7 38 7 8 0 19-1 30-5l52-19c-8 11-21 21-34 25l-77 28c-16 6-42 5-58-2l-258-117c-16-7-23-26-16-41l79-176c5-11 16-18 28-18l-64 143c-10 22 0 48 22 58z"/>
<glyph unicode="&#57546;" d="M511 318l-4 89c-1 19-12 42-23 53-11 9-33 16-50 16-2 0-4 0-5-1l-14-1-31-2-14-1-30-2c-18-2-44-15-56-29l-201-230c-13-14-11-36 3-48l156-137c6-6 14-9 22-9 9 0 19 4 26 12l201 231c12 14 21 41 20 59z m-36 88c-6-6-13-9-21-9-6 0-13 2-18 7 0 0-1 1-1 1-9 10-11 24-4 35 1 0 2 1 3 2 5 7 13 10 20 10 7 0 13-2 18-7 12-10 13-27 3-39z m-414-222c-1 12 3 25 12 34l201 231c15 17 44 31 66 33l60 4c-13 7-30 10-44 9l-89-7c-19-1-44-14-56-28l-202-230c-12-15-11-36 3-48l156-137c11-9 25-11 37-6l-128 112c-9 8-15 20-16 33"/>
<glyph unicode="&#57547;" d="M506 367c-8 20-30 42-53 52l-76 31c-11 5-25 7-40 7-10 0-25-1-39-7l-260-104c-31-12-45-47-33-77l70-177c9-22 31-37 56-37 7 0 14 1 21 4l261 104c23 10 47 33 57 55l33 75c10 23 11 54 3 74z m-417-269l-70 177c-9 22 2 47 24 56l260 105c9 3 21 5 33 5 13 0 25-2 34-6l75-31c19-8 39-27 45-43 7-16 6-43-3-62l-33-74c-8-19-29-39-48-47l-260-104c-5-2-11-3-16-3-18 0-34 11-41 27z m322 97c2 1 4 3 6 4 7 6 14 12 19 19 3 4 6 8 7 12l33 75c5 11 7 25 6 37 0 3 0 5 0 7-1 1-1 3-1 4-1 2-1 3-2 4 0 1-1 3-1 4-1 1-2 2-3 4-2 2-4 5-6 7-8 9-18 17-28 21l-75 31c-8 3-19 5-30 5-7 0-15-1-22-2-2-1-4-2-6-3l-260-104c-2 0-4-1-6-3-1-1-3-2-4-3-2-2-3-3-4-5-1-2-2-4-3-5-1-2-1-4-2-6 0-2-1-4-1-6 0-2 1-4 1-6 0-2 1-4 2-6l70-177c3-7 9-13 16-16 2-1 4-2 6-2 3-1 5-1 7-1 3 0 6 0 9 1 1 0 2 1 3 1l260 104c3 1 6 3 9 5z m6 154c1 2 2 4 3 6 0 1 1 2 1 2 1 2 3 3 4 4 1 1 3 2 4 2 1 1 2 1 2 1 1 1 2 1 3 1 1 1 3 1 4 1 1 0 2 0 3 0 10 0 19-6 23-15 5-13-1-28-14-33-3-1-6-2-9-2-10 0-20 6-24 16-2 6-2 12 0 17z m23-21c2 0 3 1 5 1 6 3 9 10 7 16-2 5-7 8-12 8-1 0-3 0-4-1-4-1-6-3-7-6-2-3-2-7 0-10 1-5 6-8 11-8z"/>
<glyph unicode="&#57548;" d="M508 356c-21-7-42-13-64-17-18-3-35-3-52-2 20 11 38 26 49 46 2 3-3 7-5 3-12-22-34-37-57-48-2 0-5 0-8 0-5 1-13 1-22 2-8 12-21 24-35 29l-52 22c-8 3-18 5-28 5-7 0-17-1-27-5l-181-72c-21-9-31-33-23-54l49-123c6-16 21-26 38-26 6 0 11 1 16 3l181 73c16 6 33 22 39 38l23 52c5 11 7 26 6 38 3 1 6 2 7 3 7 3 13 5 20 9 8-1 14-2 17-2 38-2 74 9 111 19 4 1 2 8-2 7z m-168-70l-23-52c-6-13-21-27-34-32l-181-73c-4-1-7-2-11-2-13 0-24 7-29 19l-49 123c-6 16 2 33 17 40l182 72c6 3 14 4 22 4 9 0 18-1 24-4l53-22c9-4 19-11 25-20-4 0-7 0-10-1-6 6-12 10-19 13l-52 22c-6 2-13 3-21 3-5 0-10 0-15-2-1 0-3 0-4-1l-182-73c-1 0-2-1-4-2-1 0-2-1-3-2-1-1-2-2-3-3 0-2-1-3-2-4 0-1-1-3-1-4 0-1 0-3 0-4 0-2 0-3 0-5 0-1 1-2 1-4l49-123c3-5 7-9 11-11 2-1 3-1 5-2 1 0 3 0 5 0 2 0 4 0 6 1 0 0 1 0 2 0l181 73c2 1 4 2 6 3 2 1 3 2 5 3 5 4 9 9 13 13 2 3 4 6 5 9l23 52c3 6 4 15 4 23 0 1 0 2 0 3 0 1 0 3 0 4 0 0 0 0 0 0 0 1-1 2-1 3 0 1-1 2-1 3 0 1 0 1-1 2 0 1-1 3-2 4 3 1 6 1 9 1 1-1 2-2 2-4 1-2 2-4 2-6 0-3 1-5 1-7 0-10-1-21-5-30z m-20 41c1-2 2-3 3-5 0-2 1-3 1-5 0-2 0-4-1-7-1-4-5-9-10-11-2-1-4-1-6-1-7 0-14 4-17 11-1 4-1 8 0 12 0 1 1 3 2 4 0 1 1 1 1 2 1 1 2 1 2 2 1 1 2 1 3 2 1 0 1 1 2 1 1 0 1 0 2 0 1 1 2 1 3 1 0 0 1 0 2 0 0 0 1 0 2 0-3-3-5-5-5-9 0 0-1 0-1 0-4-2-6-7-5-12 2-3 5-5 9-5 1 0 2 0 3 0 1 1 3 2 4 3 0 1 0 1 1 2 0 1 0 3 0 5 0 0 0 1 0 2-1 2-3 3-4 4 1 3 3 5 6 6 1-1 2-1 3-2z m48 5c-2-1-7-3-14-6 0 2-1 5-2 7 6 0 12 0 17-1 0 0-1 0-1 0z"/>
<glyph unicode="&#57549;" d="M506 309l-43 114-135 32-327-125 103-273 327 125 81 114z m-14-16l-70-99-309-118-94 246 307 116 3 2 3-1 121-28 43-113z m-163 134l-295-112 85-224 295 112 68 96-39 101z m57-107c-6 16 2 34 18 40 3 1 7 2 11 2 13 0 24-8 29-20 3-8 2-16-1-23-3-8-9-14-17-17-4-1-7-2-11-2-13 0-24 8-29 20z m36-6c9 3 14 14 11 24-1 1-1 2-2 3-1 1-2 3-3 4-2 1-3 2-5 3-1 1-2 1-3 1-1 1-3 1-5 1-1 0-2 0-3 0-2 0-3-1-4-1-10-4-15-15-11-25 3-7 10-12 18-12 2 0 4 1 7 2z"/>
<glyph unicode="&#57550;" d="M434 192l78 110-44 115-131 30-336-127 96-256z m-11 175c16 7 34-2 40-18 7-16-2-34-18-40-16-7-34 2-40 18-7 16 2 34 18 40z"/>
<glyph unicode="&#57551;" d="M472 392l-120 28-308-117 88-234 309 118 71 100z m-4-82c-3-7-9-14-17-17-15-5-31 2-37 17-5 15 2 32 17 38 8 3 16 2 23-2 6-3 11-8 14-15 2-7 2-14 0-21z m-440 1l320 121 2 1-41 9-308-117 88-234 19 8-80 212"/>
<glyph unicode="&#57552;" d="M429 465l-86 0c0 4 0 8 0 12l0 0c0 21-3 35-9 35l-156 0c-6 0-10-14-10-35l0 0c0-4 0-8 1-12l-87 0c-14 0-24-12-24-29 0-16 9-28 23-29l0-381c0-8 4-16 10-20 3-4 8-6 12-6l306 0c8 0 15 6 19 15 0 1 0 1 0 1 2 5 3 10 3 16 0 3 0 7-1 10l0 365c14 1 23 13 24 29-1 17-11 29-25 29z m-214 18l86 0c3 0 6-7 7-17l-98 0c0 10 2 17 5 17z m-81-116l47 0 0-303-47 0z m99 0l47 0 0-303-47 0z m99 0l47 0 0-303-47 0z m122 69c0 0 0 0 0 0l0 1c0 0 0 0 0-1m-396 0c0 0 0 0 0 0 0 1 0 1 0 1l0-1"/>
<glyph unicode="&#57553;" d="M106 37c0-21 15-37 35-37l226 0c20 0 38 16 38 37l0 359-299 0z m208 299c0 9 8 17 17 17l3 0c9 0 17-8 17-17l0-271c0-9-8-17-17-17l-3 0c-9 0-17 8-17 17z m-80 0c0 9 8 17 17 17l3 0c9 0 17-8 17-17l0-271c0-9-8-17-17-17l-3 0c-9 0-17 8-17 17z m-79 0c0 9 8 17 17 17l3 0c9 0 17-8 17-17l0-271c0-9-8-17-17-17l-3 0c-9 0-17 8-17 17z m153 164c0 6-10 12-17 12l-73 0c-7 0-14-6-14-12l0-12 104 0z m76-25l-259 0c-23 0-43-20-43-43l0-24 348 0 0 24c0 23-23 43-46 43z"/>
<glyph unicode="&#57554;" d="M106 37c0-21 18-37 38-37l227 0c20 0 35 16 35 37l0 359-300 0z m220 316l31 0 0-305-31 0z m-86 0l31 0 0-305-31 0z m-79 0l31 0 0-305-31 0z m147 147c0 6-7 12-14 12l-73 0c-7 0-17-6-17-12l0-12 104 0z m71-25l-243 0c-22 0-42-20-42-42l0-25 324 0 0 25c0 22-17 42-39 42z"/>
<glyph unicode="&#57555;" d="M110 36c0-20 16-36 36-36l221 0c19 0 35 16 35 36l0 351-292 0z m209 309l30 0 0-289c0-8-4-15-13-15l-1 0c-9 0-16 7-16 15z m-78 0l30 0 0-289c0-8-1-15-10-15l-1 0c-9 0-19 7-19 15z m-71 0l30 0 0-289c0-8-4-15-13-15l-1 0c-9 0-16 7-16 15z m205 119l-43 0c2 5 3 11 3 16 0 17-23 32-50 32l-66 0c-28 0-50-15-50-32 0-5 1-11 2-16l-33 0c-22 0-40-19-40-41l0-24 316 0 0 24c0 22-18 41-39 41z m-173 0c0 1 0 1 0 2 0 9 22 17 50 17 27 0 49-8 49-18 0 0 0-1 0-1z"/>
<glyph unicode="&#57556;" d="M433 437c-8-3-23-6-47-9-35-4-81-6-130-6-48 0-94 2-129 6-27 3-42 6-50 10-1-5-2-10-1-16l33-370c1-13 8-24 18-31 2-2 5-3 7-4 4-2 9-4 13-4-7-1-13-3-17-4 17-4 62-9 126-9 65 0 110 5 127 9-5 2-11 3-19 4 4 1 9 2 12 4 3 1 6 3 8 5 9 7 16 17 17 30l33 370c1 6 0 10-1 15z m-70-64c0 6 5 10 11 10 6 0 10-5 9-11l-20-306c0-6-5-10-10-10 0 0-1 0-1 0-6 0-10 5-9 11z m-60-2c0 5 5 9 10 9l1 0c5 0 10-3 9-9l-6-311c0-6-5-11-10-11l-1 0c-5 0-10 6-9 12z m-48 9l0 0c5 0 10-3 10-9l3-316c0-6-5-12-11-12l0 0c-5 0-10 7-10 13l-2 314c-1 6 4 10 10 10z m-60 3c6 0 11-4 11-10l11-310c1-6-4-11-9-11 0 0-1 0-1 0-5 0-10 4-10 10l-11 310c-1 6 4 11 9 11z m-68-11c-1 6 3 11 9 11 5 0 10-4 11-10l22-309c1-6-3-11-9-11 0 0 0 0-1 0-5 0-9 4-10 10z m81 96c5 0 9 3 11 7 1 1 1 3 1 6 0 6 16 12 36 12 20 0 36-6 36-13 0-2 0-4 1-5 2-4 6-7 11-7 3 0 6 2 8 6 3 4 5 9 5 16 0 12-17 22-37 22l-47 0c-20 0-36-10-36-22 0-7 1-12 4-16 2-4 4-6 7-6z m227-21c1 1 2 1 3 1-1 0-3 1-4 1-21 7-84 14-178 14-99 0-165-8-181-15 16-7 82-15 181-15 96 0 160 8 179 14z"/>
<glyph unicode="&#57557;" d="M512 319l0-114-193 0 0-205-126 0 0 205-193 0 0 114 193 0 0 193 126 0 0-193 193 0"/>
<glyph unicode="&#57558;" d="M512 100l-99-99-156 156-157-157-100 100 157 157-156 156 99 99 156-156 156 156 100-100-156-156 156-156"/>
<glyph unicode="&#57559;" d="M0 313l512 0 0-114-512 0z"/>
<glyph unicode="&#57560;" d="M512 290l-6 3-2 1-59 20-17 40 32 69-32 32-10 10-8-4-59-30-40 15 0-2-26 68-59 0-3-5-1-3-19-57-41-17-68 33-10-10-32-32 4-8 30-59-16-40 0-1-70-25 0-59 7-3 5-1 57-19 16-40 1-1-32-69 0 0 0 0 41-41 8 4 59 30 41-17 26-72 59 0 2 9 1 3 20 59 40 17 69-32 29 30 13 12-4 8-31 59 15 40 1 1 69 25z m-255-113c-46 0-83 37-83 83 0 45 37 82 83 82 45 0 82-37 82-82 0-46-37-83-82-83z"/>
<glyph unicode="&#57561;" d="M171 28l-171 171 80 91 91-91 256 285 85-91-341-365"/>
<glyph unicode="&#57562;" d="M211 89l96 0 0-89-96 0z m170 386c-35 25-79 37-131 37-40 0-74-10-101-27-44-28-67-67-70-142l101 0c0 20 6 39 17 57 11 18 30 28 57 28 27 0 46-7 57-21 10-15 15-31 15-48 0-16-5-29-14-42-5-7-12-14-20-20l-25-19c-25-20-41-35-47-50-6-15-10-36-11-77l94 0c1 13 2 28 5 37 4 14 13 22 27 33l24 19c25 19 42 35 51 48 15 21 23 46 23 76 0 49-18 86-52 111"/>
<glyph unicode="&#57563;" d="M208 90l97 0 0-90-97 0z m0 422l0-132 24-242 52 0 21 242 0 132-97 0"/>
<glyph unicode="&#57564;" d="M358 138c-11 0-50-68-73-69-6-1-9 5-9 10-1 12 6 32 10 44l47 152c24 76-13 94-46 93-44-3-83-27-112-58-9-11-41-45-41-59 1-4 6-9 11-9 14 1 47 69 75 71 6 0 14-6 9-20l-46-138c-5-14-27-78-25-115 1-29 21-41 49-39 77 4 162 104 161 126-1 7-6 11-10 11m-41 260c35 1 62 29 60 64-1 32-25 51-55 49-34-1-61-31-59-64 1-32 23-51 54-49"/>
<glyph unicode="&#57565;" d="M15 141l0 189-15 0 0-207 460 0 0 18z m449 30l-423 0 0 189-15 0 0-207 460 0 0 18z m-412 11l460 0 0 207-460 0z m257 63c-5-4-11-6-19-6l0-13-7 0 0 13c-7 1-15 2-20 5-8 5-11 15-11 26l19 0c0-3 1-8 2-10 2-4 6-5 10-6l0 30-5 2c-9 3-15 6-19 11-3 4-5 10-5 17 0 4 1 8 2 12 1 1 2 2 3 4 0 1 1 2 2 3 1 1 1 1 1 2 3 3 6 5 10 6 0 0 0 0 1 1 2 0 6 1 10 1l0 9 7 0 0-9c4 0 9-1 12-2 2-1 5-2 6-3 2-2 4-3 5-5 1-1 2-2 3-3 3-5 4-11 4-15l-18 0c0 4-1 6-2 8-2 4-6 4-10 5l0-27c11-4 19-7 23-10 6-5 9-12 9-21 0-11-4-20-13-25z m-18 37l0-27c4 0 7 1 8 2 3 3 5 6 5 11 0 4-2 8-4 10-2 1-5 3-9 4z m-19 35c0-4 1-7 4-10 2-1 3-2 7-3l0 24c-4 0-6-1-8-3-2-2-3-5-3-8z"/>
<glyph unicode="&#57566;" d="M460 371l0 14-460 0 0-207 15 0 0 193z m0-26l26 0 0 14-460 0 0-207 15 0 0 193z m37-12l-445 0 0-207 460 0 0 207z m-217-155l0 5c-7 1-15 2-20 5-8 6-11 16-11 27l19 0c0-4 1-9 2-11 2-3 6-4 10-5l0 30-5 1c-1 1-3 1-4 2-7 2-11 5-15 9-3 5-5 11-5 17 0 2 0 4 1 6 0 2 1 4 1 6 2 4 4 7 6 9 3 3 6 5 10 7 0 0 0 0 1 0 2 1 6 1 10 2l0 8 7 0 0-8c8-1 14-2 18-5 8-5 12-12 12-24l-18 0c0 4-1 7-2 9-2 3-6 4-10 4l0-26c11-4 19-8 23-10 6-5 9-12 9-21 0-12-4-21-13-26-5-3-11-5-19-6l0-13-7 0z m20 35c0 4-2 7-4 9-2 2-5 3-9 4l0-27c4 1 7 2 8 3 3 2 5 6 5 11z m-31 48c0-4 1-7 4-9 2-1 3-2 7-4l0 24c-4 0-7-1-9-3-2-2-2-4-2-8z"/>
<glyph unicode="&#57567;" d="M501 338l-456 0 0-210 467 0 0 210z m-271-175c-2 1-3 2-4 3-3 3-5 5-7 8-13 16-21 37-21 60 0 50 35 89 78 89 42 0 77-39 77-89 0-23-8-44-21-60-2-3-4-5-7-8-1-1-2-2-4-3-5-5-11-9-18-12-8-3-18-6-27-6-10 0-20 3-28 6-7 3-13 7-18 12z m241 186l19 0 0 11-467 0 0-210 11 0 0 199z m-4 23l0 11-467 0 0-210 11 0 0 199z m-194-202l7 0 0 14c8 0 14 2 19 5 9 6 13 14 13 26 0 9-3 16-9 21-4 3-12 6-23 10l0 27c4 0 8-1 10-5 1-1 2-4 2-8l18 0c0 11-4 19-12 24-4 3-10 4-18 5l0 8-7 0 0-8c-4-1-8-1-11-2 0 0-1 0-1-1-4-1-7-3-10-6-2-3-4-6-6-9 0-2-1-4-1-6-1-2-1-4-1-6 0-7 2-12 6-17 3-4 8-7 15-10 1 0 2-1 3-1l6-2 0-30c-4 1-9 2-11 5-1 2-1 8-2 11l-19 0c0-11 3-21 11-26 5-3 13-5 21-6z m7 56c4-1 7-2 9-4 3-2 4-5 4-10 0-5-2-9-5-11-1-1-4-2-8-3z m-7 21c-4 2-6 3-8 4-3 2-4 6-4 10 0 3 1 6 3 8 2 2 5 3 9 3z"/>
</font>
</defs>
</svg>
